<?xml version="1.0" encoding="iso-8859-1"?>
<!-- Generator: Adobe Illustrator 19.0.0, SVG Export Plug-In . SVG Version: 6.00 Build 0)  -->
<svg xmlns="http://www.w3.org/2000/svg" xmlns:xlink="http://www.w3.org/1999/xlink" version="1.1" id="Layer_1" x="0px" y="0px" style="enable-background:new 0 0 512 512;" xml:space="preserve" width="512" height="512">
<g>
	<path d="M129.62,99.4c-14.053,0-25.486,11.433-25.486,25.487s11.433,25.487,25.486,25.487c14.054,0,25.487-11.433,25.487-25.487   S143.673,99.4,129.62,99.4z M129.62,135.374c-5.782,0-10.486-4.705-10.486-10.487s4.704-10.487,10.486-10.487   s10.487,4.705,10.487,10.487S135.402,135.374,129.62,135.374z"/>
	<path d="M382.38,99.4c-14.053,0-25.487,11.433-25.487,25.487s11.433,25.487,25.487,25.487s25.487-11.433,25.487-25.487   S396.433,99.4,382.38,99.4z M382.38,135.374c-5.782,0-10.487-4.705-10.487-10.487s4.704-10.487,10.487-10.487   c5.782,0,10.487,4.705,10.487,10.487S388.162,135.374,382.38,135.374z"/>
	<path d="M129.62,482.653c14.054,0,25.487-11.433,25.487-25.486c0-14.054-11.433-25.487-25.487-25.487   c-14.053,0-25.486,11.433-25.486,25.487C104.133,471.22,115.567,482.653,129.62,482.653z M129.62,446.68   c5.782,0,10.487,4.705,10.487,10.487s-4.705,10.486-10.487,10.486s-10.486-4.704-10.486-10.486S123.838,446.68,129.62,446.68z"/>
	<path d="M382.38,431.68c-14.053,0-25.487,11.433-25.487,25.487c0,14.053,11.433,25.486,25.487,25.486s25.487-11.433,25.487-25.486   C407.867,443.113,396.433,431.68,382.38,431.68z M382.38,467.653c-5.782,0-10.487-4.704-10.487-10.486s4.704-10.487,10.487-10.487   c5.782,0,10.487,4.705,10.487,10.487S388.162,467.653,382.38,467.653z"/>
	<path d="M340.903,136.712c-21.872-21.531-51.861-34.839-84.904-34.839s-63.032,13.308-84.904,34.839   c-0.467,0.46-0.951,0.832-1.357,1.357c-21.531,21.872-34.839,51.861-34.839,84.904c0,66.774,54.325,121.1,121.1,121.1   c66.775,0,121.1-54.325,121.1-121.1c0-33.043-13.308-63.032-34.839-84.904C342.036,137.841,341.158,136.909,340.903,136.712z    M256,329.073c-55.982,0-101.97-43.583-105.831-98.6h19.211c4.143,0,7.5-3.358,7.5-7.5s-3.357-7.5-7.5-7.5h-19.211   c1.658-23.623,11.079-45.137,25.727-61.999c0,0,13.549,13.549,13.552,13.552c2.814,2.814,7.682,2.925,10.606,0   c2.929-2.929,2.929-7.678,0-10.606l-13.552-13.552c16.861-14.648,38.376-24.069,61.998-25.726v19.211c0,4.142,3.358,7.5,7.5,7.5   c4.143,0,7.5-3.358,7.5-7.5v-19.211c23.623,1.658,45.137,11.078,61.999,25.726l-13.553,13.552c-2.929,2.929-2.929,7.678,0,10.606   c2.802,2.802,7.699,2.909,10.607,0l13.553-13.552c14.648,16.862,24.069,38.376,25.726,61.999H342.62c-4.142,0-7.5,3.358-7.5,7.5   s3.358,7.5,7.5,7.5h19.212C357.97,285.49,311.982,329.073,256,329.073z"/>
	<path d="M82.287,202.707c-4.143,0-7.5,3.358-7.5,7.5v262.742c0,21.533,17.518,39.051,39.051,39.051h284.325   c21.533,0,39.051-17.518,39.051-39.051v-87.742c0-4.142-3.358-7.5-7.5-7.5s-7.5,3.358-7.5,7.5v87.742   c0,13.262-10.789,24.051-24.051,24.051H113.838c-13.262,0-24.051-10.789-24.051-24.051V210.207   C89.787,206.065,86.428,202.707,82.287,202.707z"/>
	<path d="M437.213,109.104c0-21.533-17.518-39.051-39.051-39.051h-78.044V61.75c0-13.43-10.926-24.356-24.356-24.356h-0.455   C294.28,16.601,277.043,0,256,0c-21.043,0-38.28,16.601-39.307,37.394h-0.456c-13.43,0-24.355,10.926-24.355,24.356v8.304h-78.044   c-21.533,0-39.051,17.518-39.051,39.051v71.103c0,4.142,3.357,7.5,7.5,7.5c4.142,0,7.5-3.358,7.5-7.5v-71.103   c0-13.262,10.789-24.051,24.051-24.051h284.325c13.262,0,24.051,10.789,24.051,24.051v246.103c0,4.142,3.358,7.5,7.5,7.5   s7.5-3.358,7.5-7.5V109.104z M256,15c12.771,0,23.276,9.877,24.279,22.394h-48.558C232.724,24.877,243.23,15,256,15z    M206.881,70.053V61.75c0-5.159,4.197-9.356,9.355-9.356h79.525c5.159,0,9.356,4.197,9.356,9.356v8.304H206.881z"/>
	<path d="M302.173,372.18c-8.351-8.35-21.897-9.584-31.588-2.815c-4.725-1.41-9.612-2.128-14.586-2.128   c-28.186,0-51.117,22.931-51.117,51.118c0,4.982,0.721,9.877,2.136,14.609c-6.692,9.631-5.77,22.986,2.807,31.565   c8.339,8.34,21.914,9.573,31.589,2.815c4.725,1.411,9.612,2.129,14.585,2.129c28.187,0,51.118-22.931,51.118-51.118   c0-4.974-0.718-9.861-2.128-14.586c2.872-4.111,4.424-8.99,4.424-14.11C309.413,383.055,306.842,376.848,302.173,372.18z    M256,382.236c0.382,0,0.764,0.006,1.144,0.018L219.9,419.497c-0.012-0.38-0.018-0.761-0.018-1.144   C219.882,398.438,236.085,382.236,256,382.236z M220.433,453.921c-3.789-3.789-3.789-9.954,0-13.743l57.392-57.392   c3.745-3.745,10.003-3.739,13.743,0c3.746,3.745,3.74,10.003,0,13.743c0,0-57.03,57.029-57.039,57.039   C230.925,457.566,224.289,457.776,220.433,453.921z M256,454.471c-0.382,0-0.763-0.006-1.144-0.018l37.244-37.244   c0.012,0.38,0.018,0.762,0.018,1.144C292.118,438.269,275.915,454.471,256,454.471z"/>
	<path d="M273.325,181.975c-0.869-8.967-8.317-15.729-17.326-15.729s-16.457,6.762-17.325,15.729l-7.356,75.96   c-4.061,5.263-6.485,11.852-6.485,18.999c0,17.185,13.981,31.167,31.167,31.167c17.186,0,31.167-13.981,31.167-31.167   c0-7.147-2.424-13.735-6.485-18.999L273.325,181.975z M256,181.247c1.246,0,2.275,0.935,2.396,2.175l6.154,63.547   c-2.718-0.777-5.584-1.202-8.549-1.202c-2.964,0-5.83,0.425-8.549,1.202l6.154-63.547C253.725,182.182,254.755,181.247,256,181.247   z M256,293.1c-8.914,0-16.166-7.252-16.167-16.166c0-8.626,7.532-16.167,16.167-16.167c8.758,0,16.167,7.417,16.167,16.167   C272.167,285.848,264.914,293.1,256,293.1z"/>
</g>















</svg>
