<svg height="512pt" width="512pt" xmlns="http://www.w3.org/2000/svg"><path d="m312.777344 231.378906c0-17.730468-14.425782-32.15625-32.15625-32.15625-9.875 0-18.71875 4.476563-24.621094 11.5-5.902344-7.023437-14.746094-11.5-24.621094-11.5-17.730468 0-32.15625 14.425782-32.15625 32.15625 0 9.875 4.476563 18.71875 11.5 24.621094-7.023437 5.902344-11.5 14.746094-11.5 24.621094 0 17.730468 14.425782 32.15625 32.15625 32.15625 9.875 0 18.71875-4.476563 24.621094-11.5 5.902344 7.023437 14.746094 11.5 24.621094 11.5 17.730468 0 32.15625-14.425782 32.15625-32.15625 0-9.875-4.476563-18.71875-11.5-24.621094 7.023437-5.902344 11.5-14.746094 11.5-24.621094zm-98.480469 0c0-9.417968 7.664063-17.082031 17.082031-17.082031 9.421875 0 17.082032 7.664063 17.082032 17.082031 0 9.421875-7.660157 17.085938-17.082032 17.085938-9.417968 0-17.082031-7.664063-17.082031-17.085938zm45.667969 24.621094c-1.433594 1.203125-2.761719 2.53125-3.964844 3.964844-1.203125-1.433594-2.53125-2.761719-3.964844-3.964844 1.433594-1.203125 2.761719-2.53125 3.964844-3.964844 1.203125 1.433594 2.53125 2.761719 3.964844 3.964844zm-28.585938 41.703125c-9.417968 0-17.082031-7.664063-17.082031-17.082031 0-9.421875 7.664063-17.082032 17.082031-17.082032 9.421875 0 17.085938 7.660157 17.085938 17.082032 0 9.417968-7.664063 17.082031-17.085938 17.082031zm66.324219-17.082031c0 9.417968-7.664063 17.082031-17.082031 17.082031-9.421875 0-17.082032-7.664063-17.082032-17.082031 0-9.421875 7.660157-17.085938 17.082032-17.085938 9.417968 0 17.082031 7.664063 17.082031 17.085938zm-34.167969-49.242188c0-9.417968 7.664063-17.082031 17.085938-17.082031 9.417968 0 17.082031 7.664063 17.082031 17.082031 0 9.421875-7.664063 17.085938-17.082031 17.085938-9.421875 0-17.085938-7.664063-17.085938-17.085938zm0 0"/><path d="m512 256c0-28.734375-27.097656-55.132812-76.316406-74.429688 21.160156-48.445312 21.652344-86.273437 1.335937-106.589843-9.449219-9.449219-22.648437-14.460938-39.222656-14.894531-4.136719-.089844-7.621094 3.175781-7.730469 7.339843-.105468 4.160157 3.175782 7.621094 7.339844 7.730469 12.582031.328125 22.324219 3.855469 28.953125 10.484375 15.511719 15.511719 13.734375 48.585937-4.863281 90.769531-20.875-7.039062-44.238282-12.628906-69.277344-16.632812-4.003906-25.039063-9.59375-48.40625-16.632812-69.28125 9.992187-4.402344 19.652343-7.945313 28.847656-10.523438 4.007812-1.125 6.34375-5.285156 5.21875-9.292968-1.125-4.007813-5.289063-6.347657-9.292969-5.222657-9.558594 2.683594-19.578125 6.34375-29.929687 10.871094-19.292969-49.226563-45.695313-76.328125-74.429688-76.328125s-55.132812 27.097656-74.429688 76.316406c-48.445312-21.160156-86.273437-21.652344-106.589843-1.335937-20.316407 20.316406-19.824219 58.136719 1.328125 106.574219-6.886719 2.707031-13.425782 5.582031-19.570313 8.625-3.730469 1.84375-5.261719 6.367187-3.414062 10.097656 1.847656 3.730468 6.367187 5.257812 10.097656 3.410156 6.03125-2.984375 12.472656-5.800781 19.269531-8.449219 9.78125 19.742188 22.355469 40.222657 37.230469 60.761719-14.871094 20.535156-27.441406 41.007812-37.226563 60.746094-42.976562-16.679688-67.621093-38.808594-67.621093-60.746094 0-12.066406 7.160156-23.988281 21.277343-35.429688 3.234376-2.621093 3.734376-7.367187 1.113282-10.601562s-7.371094-3.730469-10.601563-1.109375c-17.824219 14.445313-26.863281 30.304687-26.863281 47.140625 0 28.734375 27.097656 55.132812 76.316406 74.429688-21.160156 48.445312-21.652344 86.273437-1.335937 106.589843 9.9375 9.9375 24.0625 14.898438 41.574219 14.898438 18.285156 0 40.269531-5.425781 65.015624-16.234375 19.296876 49.21875 45.695313 76.316406 74.429688 76.316406 17.480469 0 34.542969-10.257812 49.34375-29.660156 2.523438-3.3125 1.886719-8.039063-1.421875-10.5625-3.3125-2.523438-8.039063-1.890625-10.566406 1.421875-12.007813 15.742187-24.578125 23.726562-37.355469 23.726562-21.9375 0-44.066406-24.644531-60.742188-67.621093 19.734376-9.785157 40.207032-22.355469 60.742188-37.226563 20.535156 14.871094 41.007812 27.441406 60.742188 37.222656-2.023438 5.207031-4.140626 10.210938-6.363282 14.96875-1.757812 3.773438-.128906 8.257813 3.644532 10.019531 3.769531 1.757813 8.253906.128907 10.015624-3.644531 2.226563-4.769531 4.355469-9.765625 6.390626-14.957031 24.753906 10.808594 46.730468 16.230469 65.015624 16.230469 17.507813 0 31.636719-4.960938 41.574219-14.898438 20.316407-20.316406 19.824219-58.144531-1.335937-106.589843 49.21875-19.296876 76.316406-45.695313 76.316406-74.429688zm-96.984375-65.867188c-8.6875 17.296876-19.601563 35.195313-32.394531 53.207032-7.644532-9.933594-15.804688-19.851563-24.421875-29.671875-.851563-13.039063-2.09375-25.820313-3.714844-38.25 21.785156 3.691406 42.160156 8.628906 60.53125 14.714843zm-159.015625 154.363282c-12.242188 0-24.347656-.34375-36.234375-1.019532-8.882813-7.929687-17.683594-16.242187-26.339844-24.902343-8.660156-8.65625-16.972656-17.457031-24.902343-26.339844-.675782-11.886719-1.015626-23.988281-1.015626-36.234375 0-12.242188.34375-24.34375 1.015626-36.234375 7.929687-8.882813 16.246093-17.683594 24.902343-26.339844 8.652344-8.652343 17.46875-16.964843 26.371094-24.898437 11.867187-.671875 23.960937-1.019532 36.203125-1.019532 12.246094 0 24.347656.34375 36.234375 1.015626 8.882813 7.929687 17.683594 16.246093 26.339844 24.902343 8.660156 8.65625 16.976562 17.457031 24.902343 26.339844.675782 11.886719 1.019532 23.992187 1.019532 36.234375s-.355469 24.351562-1.035156 36.253906c-7.925782 8.878906-16.234376 17.671875-24.886719 26.320313-8.65625 8.660156-17.457031 16.976562-26.339844 24.902343-11.886719.675782-23.992187 1.019532-36.234375 1.019532zm17.742188 14.832031c-5.902344 4.851563-11.820313 9.527344-17.742188 14.007813-5.921875-4.480469-11.839844-9.15625-17.742188-14.007813 5.878907.15625 11.792969.238281 17.742188.238281 5.949219.003906 11.863281-.082031 17.742188-.238281zm-78.261719-17.71875c-7.605469-.742187-15.09375-1.621094-22.449219-2.640625-1.019531-7.355469-1.898438-14.84375-2.640625-22.449219 4.046875 4.265625 8.167969 8.507813 12.375 12.714844s8.449219 8.328125 12.714844 12.375zm-42.808594-67.867187c-4.851563-5.902344-9.527344-11.820313-14.007813-17.742188 4.480469-5.921875 9.15625-11.839844 14.007813-17.742188-.15625 5.878907-.238281 11.792969-.238281 17.742188-.003906 5.949219.082031 11.863281.238281 17.742188zm37.460937-176.757813c17.316407 8.695313 35.234376 19.625 53.265626 32.4375-9.9375 7.632813-19.859376 15.777344-29.679688 24.378906-13.066406.851563-25.863281 2.097657-38.300781 3.71875 3.691406-21.785156 8.628906-42.160156 14.714843-60.535156zm65.910157 41.710937c5.90625 4.472657 11.808593 9.136719 17.695312 13.976563-5.875-.15625-11.792969-.242187-17.738281-.242187-5.933594 0-11.828125.089843-17.6875.246093 5.902344-4.84375 11.820312-9.503906 17.730469-13.980469zm-60.542969 31.695313c-4.277344 4.046875-8.527344 8.167969-12.734375 12.375s-8.328125 8.449219-12.375 12.714844c.742187-7.609375 1.625-15.101563 2.640625-22.457031 7.355469-1.015626 14.851562-1.894532 22.46875-2.632813zm121.019531 0c7.605469.742187 15.09375 1.621094 22.449219 2.640625 1.019531 7.355469 1.898438 14.84375 2.640625 22.449219-4.046875-4.265625-8.167969-8.507813-12.375-12.714844s-8.449219-8.328125-12.714844-12.375zm12.714844 158.84375c4.199219-4.199219 8.316406-8.433594 12.355469-12.695313-.746094 7.605469-1.636719 15.085938-2.652344 22.433594-7.34375 1.015625-14.824219 1.894532-22.417969 2.636719 4.265625-4.046875 8.507813-8.167969 12.714844-12.375zm28.949219-30.886719c8.625-9.828125 16.785156-19.75 24.433594-29.691406 12.796874 18.015625 23.710937 35.914062 32.398437 53.210938-18.382813 6.089843-38.769531 11.027343-60.566406 14.71875 1.625-12.429688 2.878906-25.207032 3.734375-38.238282zm1.136718-24.597656c.160157-5.882812.25-11.800781.25-17.75 0-5.945312-.085937-11.863281-.242187-17.742188 4.855469 5.902344 9.527344 11.820313 14.007813 17.742188-4.484376 5.921875-9.160157 11.847656-14.015626 17.75zm-22.738281-116.234375c-12.429687-1.621094-25.210937-2.863281-38.25-3.714844-9.808593-8.605469-19.710937-16.75-29.632812-24.386719 18.105469-12.863281 36.023437-23.800781 53.167969-32.429687 6.085937 18.375 11.023437 38.75 14.714843 60.53125zm-80.582031-142.441406c21.945312 0 44.078125 24.65625 60.757812 67.65625-19.574218 9.730469-40.074218 22.316406-60.695312 37.238281-20.554688-14.894531-41.050781-27.476562-60.804688-37.273438 16.675782-42.976562 38.804688-67.621093 60.742188-67.621093zm-170.359375 70.566406c7-7.003906 17.582031-10.484375 30.960937-10.484375 16.261719 0 36.667969 5.144531 59.808594 15.347656-7.039062 20.875-12.628906 44.238282-16.632812 69.277344-25.128906 4.015625-48.503906 9.605469-69.28125 16.613281-18.589844-42.175781-20.367188-75.242187-4.855469-90.753906zm11.324219 104.460937c18.277344-6.066406 38.675781-11 60.550781-14.695312-1.621094 12.4375-2.863281 25.21875-3.714844 38.261719-8.617187 9.820312-16.777343 19.738281-24.421875 29.675781-12.800781-18.027344-23.722656-35.9375-32.414062-53.242188zm56.835937 108.230469c.851563 13.039063 2.09375 25.820313 3.714844 38.25-21.785156-3.691406-42.160156-8.628906-60.53125-14.714843 8.6875-17.296876 19.601563-35.195313 32.394531-53.207032 7.644532 9.933594 15.804688 19.851563 24.421875 29.671875zm-68.160156 128.027344c-15.515625-15.511719-13.734375-48.585937 4.863281-90.769531 20.875 7.039062 44.238282 12.628906 69.273438 16.632812 4.003906 25.035156 9.59375 48.398438 16.632812 69.273438-42.183594 18.597656-75.257812 20.378906-90.769531 4.863281zm104.492187-11.34375c-6.085937-18.371094-11.023437-38.746094-14.714843-60.53125 12.429687 1.621094 25.210937 2.863281 38.25 3.714844 9.820312 8.617187 19.738281 16.777343 29.671875 24.417969-18.011719 12.796874-35.910156 23.710937-53.207032 32.398437zm78.527344-32.398437c9.933594-7.644532 19.851563-15.800782 29.671875-24.417969 13.03125-.851563 25.804688-2.09375 38.226563-3.710938-3.699219 21.855469-8.636719 42.25-14.6875 60.53125-17.296875-8.6875-35.195313-19.605469-53.210938-32.402343zm157.699219 43.742187c-15.511719 15.515625-48.585937 13.734375-90.765625-4.863281 6.988281-20.765625 12.570312-44.167969 16.589844-69.269532 25.050781-4.003906 48.429687-9.59375 69.3125-16.636718 18.597656 42.183594 20.378906 75.257812 4.863281 90.769531zm2.945313-109.617187c-9.785157-19.734376-22.355469-40.207032-37.226563-60.742188 14.871094-20.535156 27.441406-41.007812 37.226563-60.742188 42.976562 16.675782 67.621093 38.804688 67.621093 60.742188s-24.644531 44.066406-67.621093 60.742188zm0 0"/></svg>