<?xml version="1.0" encoding="iso-8859-1"?>
<!-- Generator: Adobe Illustrator 19.0.0, SVG Export Plug-In . SVG Version: 6.00 Build 0)  -->
<svg version="1.1" id="Layer_1" xmlns="http://www.w3.org/2000/svg" xmlns:xlink="http://www.w3.org/1999/xlink" x="0px" y="0px"
	 style="enable-background:new 0 0 512 512;" xml:space="preserve">
<g>
	<g>
		<path d="M350.469,437.646h-4.153V42.354C346.316,19,327.316,0,303.961,0h-95.923c-23.354,0-42.355,19-42.355,42.354v395.291
			h-4.152c-22.053,0-39.993,17.941-39.993,39.993v24.163c0,5.632,4.566,10.199,10.199,10.199h248.526
			c5.633,0,10.199-4.567,10.199-10.199v-24.162C390.462,455.587,372.522,437.646,350.469,437.646z M165.683,491.602h-23.748v-13.963
			h0.001c0-10.805,8.791-19.595,19.595-19.595h4.152V491.602z M325.919,491.602L325.919,491.602H186.082V42.354
			c0-12.106,9.849-21.956,21.957-21.956h95.923c12.107,0,21.957,9.849,21.957,21.956V491.602z M370.064,491.602h-23.748v-33.557
			h4.153c10.804,0,19.595,8.79,19.595,19.595V491.602z"/>
	</g>
</g>
<g>
	<g>
		<path d="M232.02,59.406c-15.241,0-27.64,12.399-27.64,27.64s12.399,27.64,27.64,27.64s27.64-12.399,27.64-27.64
			S247.26,59.406,232.02,59.406z M232.02,94.287c-3.993,0-7.241-3.248-7.241-7.241s3.248-7.241,7.241-7.241s7.241,3.248,7.241,7.241
			S236.012,94.287,232.02,94.287z"/>
	</g>
</g>
<g>
	<g>
		<path d="M232.02,138.978c-15.241,0-27.64,12.399-27.64,27.64s12.399,27.641,27.64,27.641s27.64-12.399,27.64-27.641
			C259.658,151.378,247.26,138.978,232.02,138.978z M232.02,173.86c-3.993,0-7.241-3.249-7.241-7.242s3.248-7.241,7.241-7.241
			s7.241,3.248,7.241,7.241S236.012,173.86,232.02,173.86z"/>
	</g>
</g>
<g>
	<g>
		<path d="M232.02,218.55c-15.241,0-27.64,12.399-27.64,27.641c0,15.24,12.399,27.64,27.64,27.64s27.64-12.399,27.64-27.64
			C259.658,230.949,247.26,218.55,232.02,218.55z M232.02,253.431c-3.993,0-7.241-3.248-7.241-7.241s3.248-7.242,7.241-7.242
			s7.241,3.249,7.241,7.242S236.012,253.431,232.02,253.431z"/>
	</g>
</g>
<g>
	<g>
		<path d="M230.929,340.633c-5.633,0-10.199,4.567-10.199,10.199v107.913c0,5.632,4.566,10.199,10.199,10.199
			c5.633,0,10.199-4.567,10.199-10.199V350.832C241.129,345.2,236.562,340.633,230.929,340.633z"/>
	</g>
</g>
<g>
	<g>
		<path d="M230.929,295.942c-5.633,0-10.199,4.567-10.199,10.199v6.54c0,5.632,4.566,10.199,10.199,10.199
			c5.633,0,10.199-4.567,10.199-10.199v-6.54C241.129,300.509,236.562,295.942,230.929,295.942z"/>
	</g>
</g>
<g>
</g>
<g>
</g>
<g>
</g>
<g>
</g>
<g>
</g>
<g>
</g>
<g>
</g>
<g>
</g>
<g>
</g>
<g>
</g>
<g>
</g>
<g>
</g>
<g>
</g>
<g>
</g>
<g>
</g>
</svg>
