<svg id="bold" height="512" width="512" xmlns="http://www.w3.org/2000/svg"><path d="m17 3.5v-2.5c0-.667-.81-1-1.28-.53l-.573.573c-.899-.671-1.998-1.043-3.147-1.043-1.936 0-3.71 1.064-4.631 2.776-.261.487-.079 1.093.407 1.355.484.26 1.091.082 1.354-.407.572-1.064 1.672-1.724 2.87-1.724.611 0 1.19.185 1.696.494l-.476.476c-.471.471-.136 1.28.53 1.28h2.5c.414 0 .75-.336.75-.75z"/><path d="m10.25 6.25h-2.5c-.414 0-.75.336-.75.75v2.5c0 .669.811.999 1.28.53l.573-.573c.899.671 1.998 1.043 3.147 1.043 1.932 0 3.706-1.059 4.629-2.764.263-.485.083-1.092-.403-1.355-.486-.262-1.092-.082-1.355.403-.574 1.058-1.674 1.716-2.871 1.716-.611 0-1.19-.185-1.696-.494l.476-.476c.471-.471.136-1.28-.53-1.28z"/><path d="m1 24h22c.552 0 1-.448 1-1v-2c0-1.654-1.346-3-3-3h-.825l3.789-13.734c.147-.533-.166-1.083-.698-1.23-.534-.149-1.083.165-1.23.698l-3.935 14.266h-3.101c0-1.654-1.346-3-3-3s-3 1.346-3 3h-3.101l-3.935-14.266c-.146-.533-.696-.848-1.23-.698-.532.147-.845.697-.698 1.23l3.789 13.734h-.825c-1.654 0-3 1.346-3 3v2c0 .552.448 1 1 1zm1-3c0-.551.449-1 1-1h6.55c.07 0 .132-.026.198-.04.55.632 1.35 1.04 2.252 1.04s1.702-.408 2.253-1.04c.066.014.127.04.197.04h6.55c.551 0 1 .449 1 1v1h-20z"/></svg>