<?xml version="1.0" encoding="UTF-8"?>
<svg xmlns="http://www.w3.org/2000/svg" viewBox="0 0 1268 380">
  <defs>
    <style>
      .cls-1 {
        stroke-linecap: round;
        stroke-width: 7px;
      }

      .cls-1, .cls-2 {
        fill: none;
      }

      .cls-1, .cls-2, .cls-3, .cls-4, .cls-5 {
        stroke-miterlimit: 10;
      }

      .cls-1, .cls-3, .cls-4, .cls-5 {
        stroke: #000;
      }

      .cls-2 {
        stroke: #ff7900;
        stroke-width: 20px;
      }

      .cls-3 {
        fill: #fff;
      }

      .cls-3, .cls-4, .cls-5 {
        stroke-width: 8px;
      }

      .cls-6 {
        fill: #000;
      }

      .cls-6, .cls-7 {
        stroke-width: 0px;
      }

      .cls-4 {
        fill: #77b300;
      }

      .cls-7 {
        fill: #d7d9dd;
      }

      .cls-5 {
        fill: #00a19c;
      }
    </style>
  </defs>
  <g id="Layer_5" data-name="Layer 5">
    <rect class="cls-7" x="30" y="40" width="300" height="300"/>
  </g>
  <g id="Icon">
    <path class="cls-1" d="M187.2619,182.77873c4.80937,4.83646-9.37243,18.93882-4.56306,23.77528s18.99125-9.26582,23.8007-4.42927c4.8107,4.83779-9.3711,18.94015-4.56041,23.77795,4.81237,4.83948,18.99417-9.26288,23.80653-4.42341,4.81084,4.83794-9.37096,18.9403-4.56012,23.77824,4.81415,4.84127,18.99595-9.26109,23.8101-4.41983s-9.36765,18.94363-4.5535,23.78489"/>
    <polygon class="cls-2" points="180.26289 85.86938 106.55443 116.18264 75.86938 189.73711 106.18264 263.44557 179.73711 294.13062 253.44557 263.81736 284.13062 190.26289 253.81736 116.55443 180.26289 85.86938"/>
    <g>
      <circle class="cls-3" cx="180.26289" cy="85.86938" r="20.9825"/>
      <circle class="cls-4" cx="180.26289" cy="190.26289" r="20.9825"/>
      <circle class="cls-3" cx="106.55443" cy="116.18264" r="20.9825"/>
      <circle class="cls-3" cx="75.86938" cy="189.73711" r="20.9825"/>
      <circle class="cls-3" cx="106.18264" cy="263.44557" r="20.9825"/>
      <circle class="cls-3" cx="179.73711" cy="294.13062" r="20.9825"/>
      <circle class="cls-5" cx="253.44557" cy="263.81736" r="20.9825"/>
      <circle class="cls-3" cx="284.13062" cy="190.26289" r="20.9825"/>
      <circle class="cls-3" cx="253.81736" cy="116.55443" r="20.9825"/>
    </g>
  </g>
  <g id="Active_Type" data-name="Active Type">
    <g>
      <path class="cls-6" d="M389.27971,210.90863c7.4541,7.79102,19.03174,14.31055,33.62305,14.31055,12.37061,0,18.39746-5.72461,18.39746-11.76562,0-7.79102-9.83301-10.01758-21.41113-12.87891-17.28711-3.97461-39.49121-8.74512-39.49121-32.91211,0-17.64941,15.22559-32.27734,40.12598-32.27734,16.81152,0,30.76807,5.08789,41.23584,14.78711l-12.5293,16.53516c-8.56445-7.94922-19.98389-11.60645-30.76855-11.60645-9.67432,0-15.06689,4.29297-15.06689,10.65332,0,6.83594,9.6748,9.0625,21.09375,11.76562,17.4458,4.13379,39.6499,9.38086,39.6499,33.38867,0,19.39844-13.79834,34.02539-42.34619,34.02539-20.30078,0-34.89209-6.83594-44.7251-16.85352l12.2124-17.17188Z"/>
      <path class="cls-6" d="M479.36076,136.97504h74.85889v19.875h-52.33789v22.41797h51.22754v19.875h-51.22754v24.00879h52.33789v19.87402h-74.85889v-106.05078Z"/>
      <path class="cls-6" d="M663.49162,227.60395l7.77148,9.0625-15.70117,12.87891-8.40576-10.01758c-7.45459,3.49805-16.01904,5.40625-25.21777,5.40625-31.87842,0-55.19238-22.89453-55.19238-54.85352s23.31396-54.85352,55.19238-54.85352c32.0376,0,55.35156,22.89453,55.35156,54.85352,0,14.94531-5.23389,27.82422-13.79834,37.52344ZM633.04045,222.99262l-11.57764-13.51465,15.54297-12.87793,11.73633,13.67285c3.48926-5.56543,5.39209-12.56055,5.39209-20.19238,0-19.875-12.68799-34.82031-32.1958-34.82031s-32.03711,14.94531-32.03711,34.82031c0,19.71484,12.5293,34.82031,32.03711,34.82031,3.96533,0,7.77148-.63672,11.10205-1.9082Z"/>
      <path class="cls-6" d="M689.97551,136.97504h22.83838v62.96289c0,14.78711,8.56445,24.96289,24.8999,24.96289s24.7417-10.17578,24.7417-24.96289v-62.96289h22.99707v63.59961c0,26.39258-15.54297,44.35938-47.73877,44.35938s-47.73828-18.125-47.73828-44.20117v-63.75781Z"/>
      <path class="cls-6" d="M806.22453,136.97504h74.85889v19.875h-52.33789v22.41797h51.22754v19.875h-51.22754v24.00879h52.33789v19.87402h-74.85889v-106.05078Z"/>
      <path class="cls-6" d="M921.20598,173.86274v69.16309h-22.521v-106.05078h23.15527l49.00732,66.62012v-66.62012h22.52148v106.05078h-21.72852l-50.43457-69.16309Z"/>
      <path class="cls-6" d="M1006.05266,190.08051c0-32.59375,24.58301-54.85352,56.30273-54.85352,23.31396,0,36.79541,12.71875,44.24951,25.91602l-19.34912,9.54004c-4.44092-8.58594-13.95703-15.42285-24.90039-15.42285-19.19043,0-33.14746,14.78711-33.14746,34.82031s13.95703,34.82031,33.14746,34.82031c10.94336,0,20.45947-6.67773,24.90039-15.42285l19.34912,9.38086c-7.61279,13.19629-20.93555,26.0752-44.24951,26.0752-31.71973,0-56.30273-22.25977-56.30273-54.85352Z"/>
      <path class="cls-6" d="M1120.08293,136.97504h74.85889v19.875h-52.33789v22.41797h51.22754v19.875h-51.22754v24.00879h52.33789v19.87402h-74.85889v-106.05078Z"/>
    </g>
  </g>
</svg>