<?xml version="1.0" encoding="utf-8" standalone="no"?>
<!DOCTYPE svg PUBLIC "-//W3C//DTD SVG 1.1//EN"
  "http://www.w3.org/Graphics/SVG/1.1/DTD/svg11.dtd">
<svg xmlns:xlink="http://www.w3.org/1999/xlink" width="504pt" height="360pt" viewBox="0 0 504 360" xmlns="http://www.w3.org/2000/svg" version="1.1">
 <metadata>
  <rdf:RDF xmlns:dc="http://purl.org/dc/elements/1.1/" xmlns:cc="http://creativecommons.org/ns#" xmlns:rdf="http://www.w3.org/1999/02/22-rdf-syntax-ns#">
   <cc:Work>
    <dc:type rdf:resource="http://purl.org/dc/dcmitype/StillImage"/>
    <dc:date>2025-02-28T11:45:22.609083</dc:date>
    <dc:format>image/svg+xml</dc:format>
    <dc:creator>
     <cc:Agent>
      <dc:title>Matplotlib v3.9.2, https://matplotlib.org/</dc:title>
     </cc:Agent>
    </dc:creator>
   </cc:Work>
  </rdf:RDF>
 </metadata>
 <defs>
  <style type="text/css">*{stroke-linejoin: round; stroke-linecap: butt}</style>
 </defs>
 <g id="figure_1">
  <g id="patch_1">
   <path d="M 0 360 
L 504 360 
L 504 0 
L 0 0 
z
" style="fill: #dcdcdc"/>
  </g>
  <g id="axes_1">
   <g id="patch_2">
    <path d="M 63 320.4 
L 453.6 320.4 
L 453.6 43.2 
L 63 43.2 
z
" style="fill: #f8f8f8"/>
   </g>
   <g id="matplotlib.axis_1">
    <g id="xtick_1">
     <g id="line2d_1">
      <path d="M 80.754545 320.4 
L 80.754545 43.2 
" clip-path="url(#p5e3e0a817b)" style="fill: none; stroke: #b0b0b0; stroke-width: 0.8; stroke-linecap: square"/>
     </g>
     <g id="line2d_2">
      <defs>
       <path id="m1ccdd0184e" d="M 0 0 
L 0 3.5 
" style="stroke: #000000; stroke-width: 0.8"/>
      </defs>
      <g>
       <use xlink:href="#m1ccdd0184e" x="80.754545" y="320.4" style="stroke: #000000; stroke-width: 0.8"/>
      </g>
     </g>
     <g id="text_1">
      <!-- $\mathdefault{0}$ -->
      <g transform="translate(77.234545 335.758281) scale(0.11 -0.11)">
       <defs>
        <path id="DejaVuSans-30" d="M 2034 4250 
Q 1547 4250 1301 3770 
Q 1056 3291 1056 2328 
Q 1056 1369 1301 889 
Q 1547 409 2034 409 
Q 2525 409 2770 889 
Q 3016 1369 3016 2328 
Q 3016 3291 2770 3770 
Q 2525 4250 2034 4250 
z
M 2034 4750 
Q 2819 4750 3233 4129 
Q 3647 3509 3647 2328 
Q 3647 1150 3233 529 
Q 2819 -91 2034 -91 
Q 1250 -91 836 529 
Q 422 1150 422 2328 
Q 422 3509 836 4129 
Q 1250 4750 2034 4750 
z
" transform="scale(0.015625)"/>
       </defs>
       <use xlink:href="#DejaVuSans-30" transform="translate(0 0.78125)"/>
      </g>
     </g>
    </g>
    <g id="xtick_2">
     <g id="line2d_3">
      <path d="M 137.269019 320.4 
L 137.269019 43.2 
" clip-path="url(#p5e3e0a817b)" style="fill: none; stroke: #b0b0b0; stroke-width: 0.8; stroke-linecap: square"/>
     </g>
     <g id="line2d_4">
      <g>
       <use xlink:href="#m1ccdd0184e" x="137.269019" y="320.4" style="stroke: #000000; stroke-width: 0.8"/>
      </g>
     </g>
     <g id="text_2">
      <!-- $\mathdefault{1}$ -->
      <g transform="translate(133.749019 335.758281) scale(0.11 -0.11)">
       <defs>
        <path id="DejaVuSans-31" d="M 794 531 
L 1825 531 
L 1825 4091 
L 703 3866 
L 703 4441 
L 1819 4666 
L 2450 4666 
L 2450 531 
L 3481 531 
L 3481 0 
L 794 0 
L 794 531 
z
" transform="scale(0.015625)"/>
       </defs>
       <use xlink:href="#DejaVuSans-31" transform="translate(0 0.09375)"/>
      </g>
     </g>
    </g>
    <g id="xtick_3">
     <g id="line2d_5">
      <path d="M 193.783492 320.4 
L 193.783492 43.2 
" clip-path="url(#p5e3e0a817b)" style="fill: none; stroke: #b0b0b0; stroke-width: 0.8; stroke-linecap: square"/>
     </g>
     <g id="line2d_6">
      <g>
       <use xlink:href="#m1ccdd0184e" x="193.783492" y="320.4" style="stroke: #000000; stroke-width: 0.8"/>
      </g>
     </g>
     <g id="text_3">
      <!-- $\mathdefault{2}$ -->
      <g transform="translate(190.263492 335.758281) scale(0.11 -0.11)">
       <defs>
        <path id="DejaVuSans-32" d="M 1228 531 
L 3431 531 
L 3431 0 
L 469 0 
L 469 531 
Q 828 903 1448 1529 
Q 2069 2156 2228 2338 
Q 2531 2678 2651 2914 
Q 2772 3150 2772 3378 
Q 2772 3750 2511 3984 
Q 2250 4219 1831 4219 
Q 1534 4219 1204 4116 
Q 875 4013 500 3803 
L 500 4441 
Q 881 4594 1212 4672 
Q 1544 4750 1819 4750 
Q 2544 4750 2975 4387 
Q 3406 4025 3406 3419 
Q 3406 3131 3298 2873 
Q 3191 2616 2906 2266 
Q 2828 2175 2409 1742 
Q 1991 1309 1228 531 
z
" transform="scale(0.015625)"/>
       </defs>
       <use xlink:href="#DejaVuSans-32" transform="translate(0 0.78125)"/>
      </g>
     </g>
    </g>
    <g id="xtick_4">
     <g id="line2d_7">
      <path d="M 250.297966 320.4 
L 250.297966 43.2 
" clip-path="url(#p5e3e0a817b)" style="fill: none; stroke: #b0b0b0; stroke-width: 0.8; stroke-linecap: square"/>
     </g>
     <g id="line2d_8">
      <g>
       <use xlink:href="#m1ccdd0184e" x="250.297966" y="320.4" style="stroke: #000000; stroke-width: 0.8"/>
      </g>
     </g>
     <g id="text_4">
      <!-- $\mathdefault{3}$ -->
      <g transform="translate(246.777966 335.758281) scale(0.11 -0.11)">
       <defs>
        <path id="DejaVuSans-33" d="M 2597 2516 
Q 3050 2419 3304 2112 
Q 3559 1806 3559 1356 
Q 3559 666 3084 287 
Q 2609 -91 1734 -91 
Q 1441 -91 1130 -33 
Q 819 25 488 141 
L 488 750 
Q 750 597 1062 519 
Q 1375 441 1716 441 
Q 2309 441 2620 675 
Q 2931 909 2931 1356 
Q 2931 1769 2642 2001 
Q 2353 2234 1838 2234 
L 1294 2234 
L 1294 2753 
L 1863 2753 
Q 2328 2753 2575 2939 
Q 2822 3125 2822 3475 
Q 2822 3834 2567 4026 
Q 2313 4219 1838 4219 
Q 1578 4219 1281 4162 
Q 984 4106 628 3988 
L 628 4550 
Q 988 4650 1302 4700 
Q 1616 4750 1894 4750 
Q 2613 4750 3031 4423 
Q 3450 4097 3450 3541 
Q 3450 3153 3228 2886 
Q 3006 2619 2597 2516 
z
" transform="scale(0.015625)"/>
       </defs>
       <use xlink:href="#DejaVuSans-33" transform="translate(0 0.78125)"/>
      </g>
     </g>
    </g>
    <g id="xtick_5">
     <g id="line2d_9">
      <path d="M 306.812439 320.4 
L 306.812439 43.2 
" clip-path="url(#p5e3e0a817b)" style="fill: none; stroke: #b0b0b0; stroke-width: 0.8; stroke-linecap: square"/>
     </g>
     <g id="line2d_10">
      <g>
       <use xlink:href="#m1ccdd0184e" x="306.812439" y="320.4" style="stroke: #000000; stroke-width: 0.8"/>
      </g>
     </g>
     <g id="text_5">
      <!-- $\mathdefault{4}$ -->
      <g transform="translate(303.292439 335.758281) scale(0.11 -0.11)">
       <defs>
        <path id="DejaVuSans-34" d="M 2419 4116 
L 825 1625 
L 2419 1625 
L 2419 4116 
z
M 2253 4666 
L 3047 4666 
L 3047 1625 
L 3713 1625 
L 3713 1100 
L 3047 1100 
L 3047 0 
L 2419 0 
L 2419 1100 
L 313 1100 
L 313 1709 
L 2253 4666 
z
" transform="scale(0.015625)"/>
       </defs>
       <use xlink:href="#DejaVuSans-34" transform="translate(0 0.09375)"/>
      </g>
     </g>
    </g>
    <g id="xtick_6">
     <g id="line2d_11">
      <path d="M 363.326913 320.4 
L 363.326913 43.2 
" clip-path="url(#p5e3e0a817b)" style="fill: none; stroke: #b0b0b0; stroke-width: 0.8; stroke-linecap: square"/>
     </g>
     <g id="line2d_12">
      <g>
       <use xlink:href="#m1ccdd0184e" x="363.326913" y="320.4" style="stroke: #000000; stroke-width: 0.8"/>
      </g>
     </g>
     <g id="text_6">
      <!-- $\mathdefault{5}$ -->
      <g transform="translate(359.806913 335.758281) scale(0.11 -0.11)">
       <defs>
        <path id="DejaVuSans-35" d="M 691 4666 
L 3169 4666 
L 3169 4134 
L 1269 4134 
L 1269 2991 
Q 1406 3038 1543 3061 
Q 1681 3084 1819 3084 
Q 2600 3084 3056 2656 
Q 3513 2228 3513 1497 
Q 3513 744 3044 326 
Q 2575 -91 1722 -91 
Q 1428 -91 1123 -41 
Q 819 9 494 109 
L 494 744 
Q 775 591 1075 516 
Q 1375 441 1709 441 
Q 2250 441 2565 725 
Q 2881 1009 2881 1497 
Q 2881 1984 2565 2268 
Q 2250 2553 1709 2553 
Q 1456 2553 1204 2497 
Q 953 2441 691 2322 
L 691 4666 
z
" transform="scale(0.015625)"/>
       </defs>
       <use xlink:href="#DejaVuSans-35" transform="translate(0 0.09375)"/>
      </g>
     </g>
    </g>
    <g id="xtick_7">
     <g id="line2d_13">
      <path d="M 419.841386 320.4 
L 419.841386 43.2 
" clip-path="url(#p5e3e0a817b)" style="fill: none; stroke: #b0b0b0; stroke-width: 0.8; stroke-linecap: square"/>
     </g>
     <g id="line2d_14">
      <g>
       <use xlink:href="#m1ccdd0184e" x="419.841386" y="320.4" style="stroke: #000000; stroke-width: 0.8"/>
      </g>
     </g>
     <g id="text_7">
      <!-- $\mathdefault{6}$ -->
      <g transform="translate(416.321386 335.758281) scale(0.11 -0.11)">
       <defs>
        <path id="DejaVuSans-36" d="M 2113 2584 
Q 1688 2584 1439 2293 
Q 1191 2003 1191 1497 
Q 1191 994 1439 701 
Q 1688 409 2113 409 
Q 2538 409 2786 701 
Q 3034 994 3034 1497 
Q 3034 2003 2786 2293 
Q 2538 2584 2113 2584 
z
M 3366 4563 
L 3366 3988 
Q 3128 4100 2886 4159 
Q 2644 4219 2406 4219 
Q 1781 4219 1451 3797 
Q 1122 3375 1075 2522 
Q 1259 2794 1537 2939 
Q 1816 3084 2150 3084 
Q 2853 3084 3261 2657 
Q 3669 2231 3669 1497 
Q 3669 778 3244 343 
Q 2819 -91 2113 -91 
Q 1303 -91 875 529 
Q 447 1150 447 2328 
Q 447 3434 972 4092 
Q 1497 4750 2381 4750 
Q 2619 4750 2861 4703 
Q 3103 4656 3366 4563 
z
" transform="scale(0.015625)"/>
       </defs>
       <use xlink:href="#DejaVuSans-36" transform="translate(0 0.78125)"/>
      </g>
     </g>
    </g>
    <g id="text_8">
     <!-- $\alpha$ (Radians) -->
     <g transform="translate(229.55 349.644375) scale(0.1 -0.1)">
      <defs>
       <path id="DejaVuSans-Oblique-3b1" d="M 2619 1628 
L 2622 2350 
Q 2625 3088 2069 3091 
Q 1653 3094 1394 2747 
Q 1069 2319 959 1747 
Q 825 1059 994 731 
Q 1169 397 1547 397 
Q 1966 397 2319 1063 
L 2619 1628 
z
M 2166 3578 
Q 3141 3594 3128 2584 
Q 3128 2584 3616 3500 
L 4128 3500 
L 3119 1603 
L 3109 919 
Q 3109 766 3194 638 
Q 3291 488 3391 488 
L 3669 488 
L 3575 0 
L 3228 0 
Q 2934 0 2722 263 
Q 2622 394 2619 669 
Q 2416 334 2066 50 
Q 1900 -81 1453 -78 
Q 722 -72 456 397 
Q 184 884 353 1747 
Q 534 2675 1009 3097 
Q 1544 3569 2166 3578 
z
" transform="scale(0.015625)"/>
       <path id="DejaVuSans-20" transform="scale(0.015625)"/>
       <path id="DejaVuSans-28" d="M 1984 4856 
Q 1566 4138 1362 3434 
Q 1159 2731 1159 2009 
Q 1159 1288 1364 580 
Q 1569 -128 1984 -844 
L 1484 -844 
Q 1016 -109 783 600 
Q 550 1309 550 2009 
Q 550 2706 781 3412 
Q 1013 4119 1484 4856 
L 1984 4856 
z
" transform="scale(0.015625)"/>
       <path id="DejaVuSans-52" d="M 2841 2188 
Q 3044 2119 3236 1894 
Q 3428 1669 3622 1275 
L 4263 0 
L 3584 0 
L 2988 1197 
Q 2756 1666 2539 1819 
Q 2322 1972 1947 1972 
L 1259 1972 
L 1259 0 
L 628 0 
L 628 4666 
L 2053 4666 
Q 2853 4666 3247 4331 
Q 3641 3997 3641 3322 
Q 3641 2881 3436 2590 
Q 3231 2300 2841 2188 
z
M 1259 4147 
L 1259 2491 
L 2053 2491 
Q 2509 2491 2742 2702 
Q 2975 2913 2975 3322 
Q 2975 3731 2742 3939 
Q 2509 4147 2053 4147 
L 1259 4147 
z
" transform="scale(0.015625)"/>
       <path id="DejaVuSans-61" d="M 2194 1759 
Q 1497 1759 1228 1600 
Q 959 1441 959 1056 
Q 959 750 1161 570 
Q 1363 391 1709 391 
Q 2188 391 2477 730 
Q 2766 1069 2766 1631 
L 2766 1759 
L 2194 1759 
z
M 3341 1997 
L 3341 0 
L 2766 0 
L 2766 531 
Q 2569 213 2275 61 
Q 1981 -91 1556 -91 
Q 1019 -91 701 211 
Q 384 513 384 1019 
Q 384 1609 779 1909 
Q 1175 2209 1959 2209 
L 2766 2209 
L 2766 2266 
Q 2766 2663 2505 2880 
Q 2244 3097 1772 3097 
Q 1472 3097 1187 3025 
Q 903 2953 641 2809 
L 641 3341 
Q 956 3463 1253 3523 
Q 1550 3584 1831 3584 
Q 2591 3584 2966 3190 
Q 3341 2797 3341 1997 
z
" transform="scale(0.015625)"/>
       <path id="DejaVuSans-64" d="M 2906 2969 
L 2906 4863 
L 3481 4863 
L 3481 0 
L 2906 0 
L 2906 525 
Q 2725 213 2448 61 
Q 2172 -91 1784 -91 
Q 1150 -91 751 415 
Q 353 922 353 1747 
Q 353 2572 751 3078 
Q 1150 3584 1784 3584 
Q 2172 3584 2448 3432 
Q 2725 3281 2906 2969 
z
M 947 1747 
Q 947 1113 1208 752 
Q 1469 391 1925 391 
Q 2381 391 2643 752 
Q 2906 1113 2906 1747 
Q 2906 2381 2643 2742 
Q 2381 3103 1925 3103 
Q 1469 3103 1208 2742 
Q 947 2381 947 1747 
z
" transform="scale(0.015625)"/>
       <path id="DejaVuSans-69" d="M 603 3500 
L 1178 3500 
L 1178 0 
L 603 0 
L 603 3500 
z
M 603 4863 
L 1178 4863 
L 1178 4134 
L 603 4134 
L 603 4863 
z
" transform="scale(0.015625)"/>
       <path id="DejaVuSans-6e" d="M 3513 2113 
L 3513 0 
L 2938 0 
L 2938 2094 
Q 2938 2591 2744 2837 
Q 2550 3084 2163 3084 
Q 1697 3084 1428 2787 
Q 1159 2491 1159 1978 
L 1159 0 
L 581 0 
L 581 3500 
L 1159 3500 
L 1159 2956 
Q 1366 3272 1645 3428 
Q 1925 3584 2291 3584 
Q 2894 3584 3203 3211 
Q 3513 2838 3513 2113 
z
" transform="scale(0.015625)"/>
       <path id="DejaVuSans-73" d="M 2834 3397 
L 2834 2853 
Q 2591 2978 2328 3040 
Q 2066 3103 1784 3103 
Q 1356 3103 1142 2972 
Q 928 2841 928 2578 
Q 928 2378 1081 2264 
Q 1234 2150 1697 2047 
L 1894 2003 
Q 2506 1872 2764 1633 
Q 3022 1394 3022 966 
Q 3022 478 2636 193 
Q 2250 -91 1575 -91 
Q 1294 -91 989 -36 
Q 684 19 347 128 
L 347 722 
Q 666 556 975 473 
Q 1284 391 1588 391 
Q 1994 391 2212 530 
Q 2431 669 2431 922 
Q 2431 1156 2273 1281 
Q 2116 1406 1581 1522 
L 1381 1569 
Q 847 1681 609 1914 
Q 372 2147 372 2553 
Q 372 3047 722 3315 
Q 1072 3584 1716 3584 
Q 2034 3584 2315 3537 
Q 2597 3491 2834 3397 
z
" transform="scale(0.015625)"/>
       <path id="DejaVuSans-29" d="M 513 4856 
L 1013 4856 
Q 1481 4119 1714 3412 
Q 1947 2706 1947 2009 
Q 1947 1309 1714 600 
Q 1481 -109 1013 -844 
L 513 -844 
Q 928 -128 1133 580 
Q 1338 1288 1338 2009 
Q 1338 2731 1133 3434 
Q 928 4138 513 4856 
z
" transform="scale(0.015625)"/>
      </defs>
      <use xlink:href="#DejaVuSans-Oblique-3b1" transform="translate(0 0.015625)"/>
      <use xlink:href="#DejaVuSans-20" transform="translate(65.917969 0.015625)"/>
      <use xlink:href="#DejaVuSans-28" transform="translate(97.705078 0.015625)"/>
      <use xlink:href="#DejaVuSans-52" transform="translate(136.71875 0.015625)"/>
      <use xlink:href="#DejaVuSans-61" transform="translate(206.201172 0.015625)"/>
      <use xlink:href="#DejaVuSans-64" transform="translate(267.480469 0.015625)"/>
      <use xlink:href="#DejaVuSans-69" transform="translate(330.957031 0.015625)"/>
      <use xlink:href="#DejaVuSans-61" transform="translate(358.740234 0.015625)"/>
      <use xlink:href="#DejaVuSans-6e" transform="translate(420.019531 0.015625)"/>
      <use xlink:href="#DejaVuSans-73" transform="translate(483.398438 0.015625)"/>
      <use xlink:href="#DejaVuSans-29" transform="translate(535.498047 0.015625)"/>
     </g>
    </g>
   </g>
   <g id="matplotlib.axis_2">
    <g id="ytick_1">
     <g id="line2d_15">
      <path d="M 63 309.262106 
L 453.6 309.262106 
" clip-path="url(#p5e3e0a817b)" style="fill: none; stroke: #b0b0b0; stroke-width: 0.8; stroke-linecap: square"/>
     </g>
     <g id="line2d_16">
      <defs>
       <path id="mc02d3e2f58" d="M 0 0 
L -3.5 0 
" style="stroke: #000000; stroke-width: 0.8"/>
      </defs>
      <g>
       <use xlink:href="#mc02d3e2f58" x="63" y="309.262106" style="stroke: #000000; stroke-width: 0.8"/>
      </g>
     </g>
     <g id="text_9">
      <!-- $\mathdefault{0}$ -->
      <g transform="translate(48.96 313.441247) scale(0.11 -0.11)">
       <use xlink:href="#DejaVuSans-30" transform="translate(0 0.78125)"/>
      </g>
     </g>
    </g>
    <g id="ytick_2">
     <g id="line2d_17">
      <path d="M 63 267.388127 
L 453.6 267.388127 
" clip-path="url(#p5e3e0a817b)" style="fill: none; stroke: #b0b0b0; stroke-width: 0.8; stroke-linecap: square"/>
     </g>
     <g id="line2d_18">
      <g>
       <use xlink:href="#mc02d3e2f58" x="63" y="267.388127" style="stroke: #000000; stroke-width: 0.8"/>
      </g>
     </g>
     <g id="text_10">
      <!-- $\mathdefault{1}$ -->
      <g transform="translate(48.96 271.567267) scale(0.11 -0.11)">
       <use xlink:href="#DejaVuSans-31" transform="translate(0 0.09375)"/>
      </g>
     </g>
    </g>
    <g id="ytick_3">
     <g id="line2d_19">
      <path d="M 63 225.514147 
L 453.6 225.514147 
" clip-path="url(#p5e3e0a817b)" style="fill: none; stroke: #b0b0b0; stroke-width: 0.8; stroke-linecap: square"/>
     </g>
     <g id="line2d_20">
      <g>
       <use xlink:href="#mc02d3e2f58" x="63" y="225.514147" style="stroke: #000000; stroke-width: 0.8"/>
      </g>
     </g>
     <g id="text_11">
      <!-- $\mathdefault{2}$ -->
      <g transform="translate(48.96 229.693288) scale(0.11 -0.11)">
       <use xlink:href="#DejaVuSans-32" transform="translate(0 0.78125)"/>
      </g>
     </g>
    </g>
    <g id="ytick_4">
     <g id="line2d_21">
      <path d="M 63 183.640168 
L 453.6 183.640168 
" clip-path="url(#p5e3e0a817b)" style="fill: none; stroke: #b0b0b0; stroke-width: 0.8; stroke-linecap: square"/>
     </g>
     <g id="line2d_22">
      <g>
       <use xlink:href="#mc02d3e2f58" x="63" y="183.640168" style="stroke: #000000; stroke-width: 0.8"/>
      </g>
     </g>
     <g id="text_12">
      <!-- $\mathdefault{3}$ -->
      <g transform="translate(48.96 187.819309) scale(0.11 -0.11)">
       <use xlink:href="#DejaVuSans-33" transform="translate(0 0.78125)"/>
      </g>
     </g>
    </g>
    <g id="ytick_5">
     <g id="line2d_23">
      <path d="M 63 141.766189 
L 453.6 141.766189 
" clip-path="url(#p5e3e0a817b)" style="fill: none; stroke: #b0b0b0; stroke-width: 0.8; stroke-linecap: square"/>
     </g>
     <g id="line2d_24">
      <g>
       <use xlink:href="#mc02d3e2f58" x="63" y="141.766189" style="stroke: #000000; stroke-width: 0.8"/>
      </g>
     </g>
     <g id="text_13">
      <!-- $\mathdefault{4}$ -->
      <g transform="translate(48.96 145.945329) scale(0.11 -0.11)">
       <use xlink:href="#DejaVuSans-34" transform="translate(0 0.09375)"/>
      </g>
     </g>
    </g>
    <g id="ytick_6">
     <g id="line2d_25">
      <path d="M 63 99.892209 
L 453.6 99.892209 
" clip-path="url(#p5e3e0a817b)" style="fill: none; stroke: #b0b0b0; stroke-width: 0.8; stroke-linecap: square"/>
     </g>
     <g id="line2d_26">
      <g>
       <use xlink:href="#mc02d3e2f58" x="63" y="99.892209" style="stroke: #000000; stroke-width: 0.8"/>
      </g>
     </g>
     <g id="text_14">
      <!-- $\mathdefault{5}$ -->
      <g transform="translate(48.96 104.07135) scale(0.11 -0.11)">
       <use xlink:href="#DejaVuSans-35" transform="translate(0 0.09375)"/>
      </g>
     </g>
    </g>
    <g id="ytick_7">
     <g id="line2d_27">
      <path d="M 63 58.01823 
L 453.6 58.01823 
" clip-path="url(#p5e3e0a817b)" style="fill: none; stroke: #b0b0b0; stroke-width: 0.8; stroke-linecap: square"/>
     </g>
     <g id="line2d_28">
      <g>
       <use xlink:href="#mc02d3e2f58" x="63" y="58.01823" style="stroke: #000000; stroke-width: 0.8"/>
      </g>
     </g>
     <g id="text_15">
      <!-- $\mathdefault{6}$ -->
      <g transform="translate(48.96 62.19737) scale(0.11 -0.11)">
       <use xlink:href="#DejaVuSans-36" transform="translate(0 0.78125)"/>
      </g>
     </g>
    </g>
    <g id="text_16">
     <!-- Coincidence probability -->
     <g transform="translate(42.880312 240.557031) rotate(-90) scale(0.1 -0.1)">
      <defs>
       <path id="DejaVuSans-43" d="M 4122 4306 
L 4122 3641 
Q 3803 3938 3442 4084 
Q 3081 4231 2675 4231 
Q 1875 4231 1450 3742 
Q 1025 3253 1025 2328 
Q 1025 1406 1450 917 
Q 1875 428 2675 428 
Q 3081 428 3442 575 
Q 3803 722 4122 1019 
L 4122 359 
Q 3791 134 3420 21 
Q 3050 -91 2638 -91 
Q 1578 -91 968 557 
Q 359 1206 359 2328 
Q 359 3453 968 4101 
Q 1578 4750 2638 4750 
Q 3056 4750 3426 4639 
Q 3797 4528 4122 4306 
z
" transform="scale(0.015625)"/>
       <path id="DejaVuSans-6f" d="M 1959 3097 
Q 1497 3097 1228 2736 
Q 959 2375 959 1747 
Q 959 1119 1226 758 
Q 1494 397 1959 397 
Q 2419 397 2687 759 
Q 2956 1122 2956 1747 
Q 2956 2369 2687 2733 
Q 2419 3097 1959 3097 
z
M 1959 3584 
Q 2709 3584 3137 3096 
Q 3566 2609 3566 1747 
Q 3566 888 3137 398 
Q 2709 -91 1959 -91 
Q 1206 -91 779 398 
Q 353 888 353 1747 
Q 353 2609 779 3096 
Q 1206 3584 1959 3584 
z
" transform="scale(0.015625)"/>
       <path id="DejaVuSans-63" d="M 3122 3366 
L 3122 2828 
Q 2878 2963 2633 3030 
Q 2388 3097 2138 3097 
Q 1578 3097 1268 2742 
Q 959 2388 959 1747 
Q 959 1106 1268 751 
Q 1578 397 2138 397 
Q 2388 397 2633 464 
Q 2878 531 3122 666 
L 3122 134 
Q 2881 22 2623 -34 
Q 2366 -91 2075 -91 
Q 1284 -91 818 406 
Q 353 903 353 1747 
Q 353 2603 823 3093 
Q 1294 3584 2113 3584 
Q 2378 3584 2631 3529 
Q 2884 3475 3122 3366 
z
" transform="scale(0.015625)"/>
       <path id="DejaVuSans-65" d="M 3597 1894 
L 3597 1613 
L 953 1613 
Q 991 1019 1311 708 
Q 1631 397 2203 397 
Q 2534 397 2845 478 
Q 3156 559 3463 722 
L 3463 178 
Q 3153 47 2828 -22 
Q 2503 -91 2169 -91 
Q 1331 -91 842 396 
Q 353 884 353 1716 
Q 353 2575 817 3079 
Q 1281 3584 2069 3584 
Q 2775 3584 3186 3129 
Q 3597 2675 3597 1894 
z
M 3022 2063 
Q 3016 2534 2758 2815 
Q 2500 3097 2075 3097 
Q 1594 3097 1305 2825 
Q 1016 2553 972 2059 
L 3022 2063 
z
" transform="scale(0.015625)"/>
       <path id="DejaVuSans-70" d="M 1159 525 
L 1159 -1331 
L 581 -1331 
L 581 3500 
L 1159 3500 
L 1159 2969 
Q 1341 3281 1617 3432 
Q 1894 3584 2278 3584 
Q 2916 3584 3314 3078 
Q 3713 2572 3713 1747 
Q 3713 922 3314 415 
Q 2916 -91 2278 -91 
Q 1894 -91 1617 61 
Q 1341 213 1159 525 
z
M 3116 1747 
Q 3116 2381 2855 2742 
Q 2594 3103 2138 3103 
Q 1681 3103 1420 2742 
Q 1159 2381 1159 1747 
Q 1159 1113 1420 752 
Q 1681 391 2138 391 
Q 2594 391 2855 752 
Q 3116 1113 3116 1747 
z
" transform="scale(0.015625)"/>
       <path id="DejaVuSans-72" d="M 2631 2963 
Q 2534 3019 2420 3045 
Q 2306 3072 2169 3072 
Q 1681 3072 1420 2755 
Q 1159 2438 1159 1844 
L 1159 0 
L 581 0 
L 581 3500 
L 1159 3500 
L 1159 2956 
Q 1341 3275 1631 3429 
Q 1922 3584 2338 3584 
Q 2397 3584 2469 3576 
Q 2541 3569 2628 3553 
L 2631 2963 
z
" transform="scale(0.015625)"/>
       <path id="DejaVuSans-62" d="M 3116 1747 
Q 3116 2381 2855 2742 
Q 2594 3103 2138 3103 
Q 1681 3103 1420 2742 
Q 1159 2381 1159 1747 
Q 1159 1113 1420 752 
Q 1681 391 2138 391 
Q 2594 391 2855 752 
Q 3116 1113 3116 1747 
z
M 1159 2969 
Q 1341 3281 1617 3432 
Q 1894 3584 2278 3584 
Q 2916 3584 3314 3078 
Q 3713 2572 3713 1747 
Q 3713 922 3314 415 
Q 2916 -91 2278 -91 
Q 1894 -91 1617 61 
Q 1341 213 1159 525 
L 1159 0 
L 581 0 
L 581 4863 
L 1159 4863 
L 1159 2969 
z
" transform="scale(0.015625)"/>
       <path id="DejaVuSans-6c" d="M 603 4863 
L 1178 4863 
L 1178 0 
L 603 0 
L 603 4863 
z
" transform="scale(0.015625)"/>
       <path id="DejaVuSans-74" d="M 1172 4494 
L 1172 3500 
L 2356 3500 
L 2356 3053 
L 1172 3053 
L 1172 1153 
Q 1172 725 1289 603 
Q 1406 481 1766 481 
L 2356 481 
L 2356 0 
L 1766 0 
Q 1100 0 847 248 
Q 594 497 594 1153 
L 594 3053 
L 172 3053 
L 172 3500 
L 594 3500 
L 594 4494 
L 1172 4494 
z
" transform="scale(0.015625)"/>
       <path id="DejaVuSans-79" d="M 2059 -325 
Q 1816 -950 1584 -1140 
Q 1353 -1331 966 -1331 
L 506 -1331 
L 506 -850 
L 844 -850 
Q 1081 -850 1212 -737 
Q 1344 -625 1503 -206 
L 1606 56 
L 191 3500 
L 800 3500 
L 1894 763 
L 2988 3500 
L 3597 3500 
L 2059 -325 
z
" transform="scale(0.015625)"/>
      </defs>
      <use xlink:href="#DejaVuSans-43"/>
      <use xlink:href="#DejaVuSans-6f" x="69.824219"/>
      <use xlink:href="#DejaVuSans-69" x="131.005859"/>
      <use xlink:href="#DejaVuSans-6e" x="158.789062"/>
      <use xlink:href="#DejaVuSans-63" x="222.167969"/>
      <use xlink:href="#DejaVuSans-69" x="277.148438"/>
      <use xlink:href="#DejaVuSans-64" x="304.931641"/>
      <use xlink:href="#DejaVuSans-65" x="368.408203"/>
      <use xlink:href="#DejaVuSans-6e" x="429.931641"/>
      <use xlink:href="#DejaVuSans-63" x="493.310547"/>
      <use xlink:href="#DejaVuSans-65" x="548.291016"/>
      <use xlink:href="#DejaVuSans-20" x="609.814453"/>
      <use xlink:href="#DejaVuSans-70" x="641.601562"/>
      <use xlink:href="#DejaVuSans-72" x="705.078125"/>
      <use xlink:href="#DejaVuSans-6f" x="743.941406"/>
      <use xlink:href="#DejaVuSans-62" x="805.123047"/>
      <use xlink:href="#DejaVuSans-61" x="868.599609"/>
      <use xlink:href="#DejaVuSans-62" x="929.878906"/>
      <use xlink:href="#DejaVuSans-69" x="993.355469"/>
      <use xlink:href="#DejaVuSans-6c" x="1021.138672"/>
      <use xlink:href="#DejaVuSans-69" x="1048.921875"/>
      <use xlink:href="#DejaVuSans-74" x="1076.705078"/>
      <use xlink:href="#DejaVuSans-79" x="1115.914062"/>
     </g>
    </g>
    <g id="text_17">
     <!-- $\times\mathdefault{10^{−4}}\mathdefault{}$ -->
     <g transform="translate(63 40.2) scale(0.11 -0.11)">
      <defs>
       <path id="DejaVuSans-d7" d="M 4488 3438 
L 3059 2003 
L 4488 575 
L 4116 197 
L 2681 1631 
L 1247 197 
L 878 575 
L 2303 2003 
L 878 3438 
L 1247 3816 
L 2681 2381 
L 4116 3816 
L 4488 3438 
z
" transform="scale(0.015625)"/>
       <path id="DejaVuSans-2212" d="M 678 2272 
L 4684 2272 
L 4684 1741 
L 678 1741 
L 678 2272 
z
" transform="scale(0.015625)"/>
      </defs>
      <use xlink:href="#DejaVuSans-d7" transform="translate(0 0.684375)"/>
      <use xlink:href="#DejaVuSans-31" transform="translate(83.789062 0.684375)"/>
      <use xlink:href="#DejaVuSans-30" transform="translate(147.412109 0.684375)"/>
      <use xlink:href="#DejaVuSans-2212" transform="translate(211.992188 38.965625) scale(0.7)"/>
      <use xlink:href="#DejaVuSans-34" transform="translate(270.644531 38.965625) scale(0.7)"/>
     </g>
    </g>
   </g>
   <g id="line2d_29">
    <path d="M 80.754545 306.898116 
L 89.859441 305.289947 
L 98.964336 300.507113 
L 108.069231 292.673471 
L 117.174126 281.991913 
L 126.279021 268.739086 
L 135.383916 253.258232 
L 144.488811 235.950296 
L 153.593706 217.263544 
L 162.698601 197.681954 
L 171.803497 177.712679 
L 180.908392 157.872912 
L 190.013287 138.676494 
L 199.118182 120.6206 
L 208.223077 104.17287 
L 217.327972 89.75929 
L 226.432867 77.753166 
L 235.537762 68.465448 
L 244.642657 62.136685 
L 253.747552 58.930789 
L 262.852448 58.930789 
L 271.957343 62.136685 
L 281.062238 68.465448 
L 290.167133 77.753166 
L 299.272028 89.75929 
L 308.376923 104.17287 
L 317.481818 120.6206 
L 326.586713 138.676494 
L 335.691608 157.872912 
L 344.796503 177.712679 
L 353.901399 197.681954 
L 363.006294 217.263544 
L 372.111189 235.950296 
L 381.216084 253.258232 
L 390.320979 268.739086 
L 399.425874 281.991913 
L 408.530769 292.673471 
L 417.635664 300.507113 
L 426.740559 305.289953 
L 435.845455 306.898116 
" clip-path="url(#p5e3e0a817b)" style="fill: none; stroke: #1f77b4; stroke-width: 1.5; stroke-linecap: square"/>
   </g>
   <g id="line2d_30">
    <path d="M 80.754545 303.750719 
L 89.859441 306.674776 
L 98.964336 306.387912 
L 108.069231 302.897552 
L 117.174126 296.294097 
L 126.279021 286.748573 
L 135.383916 274.508203 
L 144.488811 259.890006 
L 153.593706 243.272587 
L 162.698601 225.086328 
L 171.803497 205.802243 
L 180.908392 185.91978 
L 190.013287 165.953885 
L 199.118182 146.421663 
L 208.223077 127.828989 
L 217.327972 110.657403 
L 226.432867 95.35164 
L 235.537762 82.308112 
L 244.642657 71.864639 
L 253.747552 64.291702 
L 262.852448 59.785436 
L 271.957343 58.46255 
L 281.062238 60.357306 
L 290.167133 65.420632 
L 299.272028 73.521391 
L 308.376923 84.449775 
L 317.481818 97.922747 
L 326.586713 113.591363 
L 335.691608 131.049815 
L 344.796503 149.845937 
L 353.901399 169.49292 
L 363.006294 189.481917 
L 372.111189 209.295224 
L 381.216084 228.419687 
L 390.320979 246.359992 
L 399.425874 262.651495 
L 408.530769 276.872253 
L 417.635664 288.653958 
L 426.740559 297.691469 
L 435.845455 303.750719 
" clip-path="url(#p5e3e0a817b)" style="fill: none; stroke: #ff7f0e; stroke-width: 1.5; stroke-linecap: square"/>
   </g>
   <g id="line2d_31">
    <path d="M 80.754545 294.466433 
L 89.859441 301.776579 
L 98.964336 306.001253 
L 108.069231 307.031131 
L 117.174126 304.839508 
L 126.279021 299.483148 
L 135.383916 291.100775 
L 144.488811 279.90949 
L 153.593706 266.199141 
L 162.698601 250.324819 
L 171.803497 232.69766 
L 180.908392 213.774199 
L 190.013287 194.044542 
L 199.118182 174.019679 
L 208.223077 154.218242 
L 217.327972 135.153078 
L 226.432867 117.317966 
L 235.537762 101.174824 
L 244.642657 87.141752 
L 253.747552 75.582199 
L 262.852448 66.795551 
L 271.957343 61.009379 
L 281.062238 58.37354 
L 290.167133 58.956302 
L 299.272028 62.742571 
L 308.376923 69.634285 
L 317.481818 79.452953 
L 326.586713 91.944275 
L 335.691608 106.784734 
L 344.796503 123.589969 
L 353.901399 141.924733 
L 363.006294 161.314166 
L 372.111189 181.256091 
L 381.216084 201.234024 
L 390.320979 220.730545 
L 399.425874 239.240706 
L 408.530769 256.285103 
L 417.635664 271.422295 
L 426.740559 284.260237 
L 435.845455 294.466433 
" clip-path="url(#p5e3e0a817b)" style="fill: none; stroke: #2ca02c; stroke-width: 1.5; stroke-linecap: square"/>
   </g>
   <g id="line2d_32">
    <path d="M 80.754545 279.510751 
L 89.859441 290.84088 
L 98.964336 299.366567 
L 108.069231 304.867274 
L 117.174126 307.200444 
L 126.279021 306.305648 
L 135.383916 302.206062 
L 144.488811 295.007862 
L 153.593706 284.897479 
L 162.698601 272.136765 
L 171.803497 257.056217 
L 180.908392 240.046413 
L 190.013287 221.547898 
L 199.118182 202.039773 
L 208.223077 182.027289 
L 217.327972 162.028759 
L 226.432867 142.562134 
L 235.537762 124.13159 
L 244.642657 107.214467 
L 253.747552 92.248911 
L 262.852448 79.622521 
L 271.957343 69.662315 
L 281.062238 62.626257 
L 290.167133 58.696576 
L 299.272028 57.975049 
L 308.376923 60.480364 
L 317.481818 66.147634 
L 326.586713 74.83008 
L 335.691608 86.302831 
L 344.796503 100.268749 
L 353.901399 116.366124 
L 363.006294 134.178043 
L 372.111189 153.243185 
L 381.216084 173.067774 
L 390.320979 193.138364 
L 399.425874 212.935136 
L 408.530769 231.945365 
L 417.635664 249.676696 
L 426.740559 265.669896 
L 435.845455 279.510751 
" clip-path="url(#p5e3e0a817b)" style="fill: none; stroke: #d62728; stroke-width: 1.5; stroke-linecap: square"/>
   </g>
   <g id="line2d_33">
    <path d="M 80.754545 259.633633 
L 89.859441 274.416072 
L 98.964336 286.816532 
L 108.069231 296.514372 
L 117.174126 303.258245 
L 126.279021 306.87349 
L 135.383916 307.266474 
L 144.488811 304.427018 
L 153.593706 298.428663 
L 162.698601 289.426763 
L 171.803497 277.654462 
L 180.908392 263.416657 
L 190.013287 247.0821 
L 199.118182 229.073848 
L 208.223077 209.858303 
L 217.327972 189.933139 
L 226.432867 169.814408 
L 235.537762 150.023173 
L 244.642657 131.072017 
L 253.747552 113.451766 
L 262.852448 97.618774 
L 271.957343 83.983108 
L 281.062238 72.897925 
L 290.167133 64.650324 
L 299.272028 59.453914 
L 308.376923 57.44328 
L 317.481818 58.670495 
L 326.586713 63.103777 
L 335.691608 70.628304 
L 344.796503 81.049196 
L 353.901399 94.096557 
L 363.006294 109.432468 
L 372.111189 126.659735 
L 381.216084 145.332183 
L 390.320979 164.966204 
L 399.425874 185.053288 
L 408.530769 205.07319 
L 417.635664 224.507404 
L 426.740559 242.852595 
L 435.845455 259.633633 
" clip-path="url(#p5e3e0a817b)" style="fill: none; stroke: #9467bd; stroke-width: 1.5; stroke-linecap: square"/>
   </g>
   <g id="line2d_34">
    <path d="M 80.754545 235.8318 
L 89.859441 253.325763 
L 98.964336 268.980458 
L 108.069231 282.391272 
L 117.174126 293.210591 
L 126.279021 301.1582 
L 135.383916 306.028261 
L 144.488811 307.694642 
L 153.593706 306.114183 
L 162.698601 301.327819 
L 171.803497 293.459513 
L 180.908392 282.713051 
L 190.013287 269.36676 
L 199.118182 253.766302 
L 208.223077 236.31572 
L 217.327972 217.466977 
L 226.432867 197.708243 
L 235.537762 177.551261 
L 244.642657 157.518085 
L 253.747552 138.127564 
L 262.852448 119.881903 
L 271.957343 103.253654 
L 281.062238 88.67348 
L 290.167133 76.519 
L 299.272028 67.105009 
L 308.376923 60.675324 
L 317.481818 57.396471 
L 326.586713 57.353371 
L 335.691608 60.547138 
L 344.796503 66.895058 
L 353.901399 76.232721 
L 363.006294 88.318288 
L 372.111189 102.838748 
L 381.216084 119.418029 
L 390.320979 137.626736 
L 399.425874 156.993275 
L 408.530769 177.01606 
L 417.635664 197.176513 
L 426.740559 216.952489 
L 435.845455 235.8318 
" clip-path="url(#p5e3e0a817b)" style="fill: none; stroke: #8c564b; stroke-width: 1.5; stroke-linecap: square"/>
   </g>
   <g id="line2d_35">
    <path d="M 80.754545 209.298777 
L 89.859441 228.627509 
L 98.964336 246.75272 
L 108.069231 263.206167 
L 117.174126 277.561312 
L 126.279021 289.446367 
L 135.383916 298.553513 
L 144.488811 304.646881 
L 153.593706 307.568656 
L 162.698601 307.243165 
L 171.803497 303.678839 
L 180.908392 296.967991 
L 190.013287 287.284429 
L 199.118182 274.878952 
L 208.223077 260.072856 
L 217.327972 243.24961 
L 226.432867 224.844928 
L 235.537762 205.335481 
L 244.642657 185.226554 
L 253.747552 165.038958 
L 262.852448 145.29554 
L 271.957343 126.507645 
L 281.062238 109.16187 
L 290.167133 93.70746 
L 299.272028 80.544677 
L 308.376923 70.01443 
L 317.481818 62.389447 
L 326.586713 57.867212 
L 335.691608 56.564846 
L 344.796503 58.516082 
L 353.901399 63.670383 
L 363.006294 71.894256 
L 372.111189 82.974706 
L 381.216084 96.624755 
L 390.320979 112.490875 
L 399.425874 130.162142 
L 408.530769 149.180878 
L 417.635664 169.054509 
L 426.740559 189.268317 
L 435.845455 209.298777 
" clip-path="url(#p5e3e0a817b)" style="fill: none; stroke: #e377c2; stroke-width: 1.5; stroke-linecap: square"/>
   </g>
   <g id="line2d_36">
    <path d="M 80.754545 181.36504 
L 89.859441 201.559785 
L 98.964336 221.247911 
L 108.069231 239.921077 
L 117.174126 257.095129 
L 126.279021 272.325269 
L 135.383916 285.217044 
L 144.488811 295.436564 
L 153.593706 302.719148 
L 162.698601 306.876182 
L 171.803497 307.8 
L 180.908392 305.466676 
L 190.013287 299.936642 
L 199.118182 291.353123 
L 208.223077 279.938427 
L 217.327972 265.98819 
L 226.432867 249.863715 
L 235.537762 231.982616 
L 244.642657 212.808007 
L 253.747552 192.836498 
L 262.852448 172.585341 
L 271.957343 152.579032 
L 281.062238 133.335721 
L 290.167133 115.353802 
L 299.272028 99.098997 
L 308.376923 84.992295 
L 317.481818 73.399055 
L 326.586713 64.619534 
L 335.691608 58.881117 
L 344.796503 56.332426 
L 353.901399 57.039472 
L 363.006294 60.983941 
L 372.111189 68.063675 
L 381.216084 78.095312 
L 390.320979 90.819038 
L 399.425874 105.905314 
L 408.530769 122.963415 
L 417.635664 141.551545 
L 426.740559 161.18828 
L 435.845455 181.36504 
" clip-path="url(#p5e3e0a817b)" style="fill: none; stroke: #7f7f7f; stroke-width: 1.5; stroke-linecap: square"/>
   </g>
   <g id="line2d_37">
    <path d="M 80.754545 153.431302 
L 89.859441 173.479878 
L 98.964336 193.744947 
L 108.069231 213.703614 
L 117.174126 232.838302 
L 126.279021 250.653432 
L 135.383916 266.687601 
L 144.488811 280.525534 
L 153.593706 291.808834 
L 162.698601 300.24527 
L 171.803497 305.616344 
L 180.908392 307.782946 
L 190.013287 306.688964 
L 199.118182 302.36273 
L 208.223077 294.916293 
L 217.327972 284.54251 
L 226.432867 271.510057 
L 235.537762 256.156468 
L 244.642657 238.879393 
L 253.747552 220.126299 
L 262.852448 200.382881 
L 271.957343 180.160484 
L 281.062238 159.982856 
L 290.167133 140.372589 
L 299.272028 121.837577 
L 308.376923 104.857867 
L 317.481818 89.873226 
L 326.586713 77.271747 
L 335.691608 67.379802 
L 344.796503 60.453587 
L 353.901399 56.672488 
L 363.006294 56.134433 
L 372.111189 58.853358 
L 381.216084 64.758844 
L 390.320979 73.697941 
L 399.425874 85.439132 
L 408.530769 99.678326 
L 417.635664 116.046735 
L 426.740559 134.120427 
L 435.845455 153.431302 
" clip-path="url(#p5e3e0a817b)" style="fill: none; stroke: #bcbd22; stroke-width: 1.5; stroke-linecap: square"/>
   </g>
   <g id="line2d_38">
    <path d="M 80.754545 126.898279 
L 89.859441 145.795833 
L 98.964336 165.622942 
L 108.069231 185.868432 
L 117.174126 206.007169 
L 126.279021 225.517571 
L 135.383916 243.894328 
L 144.488811 260.661492 
L 153.593706 275.384802 
L 162.698601 287.682933 
L 171.803497 297.237368 
L 180.908392 303.800654 
L 190.013287 307.202805 
L 199.118182 307.355706 
L 208.223077 304.255398 
L 217.327972 297.982178 
L 226.432867 288.698517 
L 235.537762 276.644858 
L 244.642657 262.133385 
L 253.747552 245.539937 
L 262.852448 227.294275 
L 271.957343 207.868953 
L 281.062238 187.767076 
L 290.167133 167.509273 
L 299.272028 147.62021 
L 308.376923 128.615003 
L 317.481818 110.985876 
L 326.586713 95.189416 
L 335.691608 81.634742 
L 344.796503 70.672913 
L 353.901399 62.587835 
L 363.006294 57.588906 
L 372.111189 55.805598 
L 381.216084 57.284095 
L 390.320979 61.986107 
L 399.425874 69.789853 
L 408.530769 80.49322 
L 417.635664 93.818998 
L 426.740559 109.422054 
L 435.845455 126.898279 
" clip-path="url(#p5e3e0a817b)" style="fill: none; stroke: #17becf; stroke-width: 1.5; stroke-linecap: square"/>
   </g>
   <g id="line2d_39">
    <path d="M 80.754545 103.096447 
L 89.859441 119.895843 
L 98.964336 138.292052 
L 108.069231 157.811303 
L 117.174126 177.947156 
L 126.279021 198.178103 
L 135.383916 217.980174 
L 144.488811 236.840504 
L 153.593706 254.270622 
L 162.698601 269.819097 
L 171.803497 283.08323 
L 180.908392 293.719489 
L 190.013287 301.452399 
L 199.118182 306.081683 
L 208.223077 307.487443 
L 217.327972 305.633273 
L 226.432867 300.567193 
L 235.537762 292.420413 
L 244.642657 281.40393 
L 253.747552 267.803065 
L 262.852448 251.970073 
L 271.957343 234.315021 
L 281.062238 215.295165 
L 290.167133 195.403109 
L 299.272028 175.154047 
L 308.376923 155.07242 
L 317.481818 135.67833 
L 326.586713 117.474075 
L 335.691608 100.931135 
L 344.796503 86.477964 
L 353.901399 74.488891 
L 363.006294 65.274427 
L 372.111189 59.073221 
L 381.216084 56.045883 
L 390.320979 56.270817 
L 399.425874 59.742199 
L 408.530769 66.370121 
L 417.635664 75.982924 
L 426.740559 88.331641 
L 435.845455 103.096447 
" clip-path="url(#p5e3e0a817b)" style="fill: none; stroke: #1f77b4; stroke-width: 1.5; stroke-linecap: square"/>
   </g>
   <g id="line2d_40">
    <path d="M 80.754545 83.219329 
L 89.859441 97.078642 
L 98.964336 113.12276 
L 108.069231 130.939127 
L 117.174126 150.065308 
L 126.279021 170.005943 
L 135.383916 190.244582 
L 144.488811 210.257055 
L 153.593706 229.525047 
L 162.698601 247.549529 
L 171.803497 263.863677 
L 180.908392 278.044962 
L 190.013287 289.726096 
L 199.118182 298.604544 
L 208.223077 304.450359 
L 217.327972 307.112138 
L 226.432867 306.520941 
L 235.537762 302.692081 
L 244.642657 295.724723 
L 253.747552 285.799318 
L 262.852448 273.172928 
L 271.957343 258.172571 
L 281.062238 241.186748 
L 290.167133 222.655383 
L 299.272028 203.058428 
L 308.376923 182.903434 
L 317.481818 162.712405 
L 326.586713 143.008278 
L 335.691608 124.30138 
L 344.796503 107.076209 
L 353.901399 91.778889 
L 363.006294 78.805611 
L 372.111189 68.492377 
L 381.216084 61.106295 
L 390.320979 56.838659 
L 399.425874 55.8 
L 408.530769 58.017218 
L 417.635664 63.432888 
L 426.740559 71.906748 
L 435.845455 83.219329 
" clip-path="url(#p5e3e0a817b)" style="fill: none; stroke: #ff7f0e; stroke-width: 1.5; stroke-linecap: square"/>
   </g>
   <g id="line2d_41">
    <path d="M 80.754545 68.263646 
L 89.859441 78.488379 
L 98.964336 91.37716 
L 108.069231 106.599389 
L 117.174126 123.759738 
L 126.279021 142.413762 
L 135.383916 162.078333 
L 144.488811 182.244148 
L 153.593706 202.388924 
L 162.698601 221.990921 
L 171.803497 240.542457 
L 180.908392 257.563059 
L 190.013287 272.6119 
L 199.118182 285.299225 
L 208.223077 295.296437 
L 217.327972 302.344616 
L 226.432867 306.261215 
L 235.537762 306.944798 
L 244.642657 304.37766 
L 253.747552 298.626288 
L 262.852448 289.83964 
L 271.957343 278.245287 
L 281.062238 264.143514 
L 290.167133 247.899551 
L 299.272028 229.934108 
L 308.376923 210.712481 
L 317.481818 190.732499 
L 326.586713 170.511633 
L 335.691608 150.573594 
L 344.796503 131.434766 
L 353.901399 113.590835 
L 363.006294 97.503948 
L 372.111189 83.590749 
L 381.216084 72.211581 
L 390.320979 63.66116 
L 399.425874 58.160935 
L 408.530769 55.853362 
L 417.635664 56.798203 
L 426.740559 60.970989 
L 435.845455 68.263646 
" clip-path="url(#p5e3e0a817b)" style="fill: none; stroke: #2ca02c; stroke-width: 1.5; stroke-linecap: square"/>
   </g>
   <g id="line2d_42">
    <path d="M 80.754545 58.97934 
L 89.859441 65.057249 
L 98.964336 74.145668 
L 108.069231 86.012584 
L 117.174126 100.349516 
L 126.279021 116.785146 
L 135.383916 134.893798 
L 144.488811 154.206469 
L 153.593706 174.22297 
L 162.698601 194.424885 
L 171.803497 214.288995 
L 180.908392 233.300828 
L 190.013287 250.96799 
L 199.118182 266.83291 
L 208.223077 280.484695 
L 217.327972 291.56977 
L 226.432867 299.801038 
L 235.537762 304.965314 
L 244.642657 306.928845 
L 253.747552 305.640778 
L 262.852448 301.134471 
L 271.957343 293.526637 
L 281.062238 283.014315 
L 290.167133 269.869767 
L 299.272028 254.433431 
L 308.376923 237.105099 
L 317.481818 218.333567 
L 326.586713 198.605008 
L 335.691608 178.43038 
L 344.796503 158.332195 
L 353.901399 138.830987 
L 363.006294 120.431826 
L 372.111189 103.611242 
L 381.216084 88.804877 
L 390.320979 76.39621 
L 399.425874 66.706618 
L 408.530769 59.987056 
L 417.635664 56.411558 
L 426.740559 56.072728 
L 435.845455 58.97934 
" clip-path="url(#p5e3e0a817b)" style="fill: none; stroke: #d62728; stroke-width: 1.5; stroke-linecap: square"/>
   </g>
   <g id="line2d_43">
    <path d="M 80.754545 55.831964 
L 89.859441 57.458743 
L 98.964336 62.292342 
L 108.069231 70.211021 
L 117.174126 81.008531 
L 126.279021 94.405221 
L 135.383916 110.054125 
L 144.488811 127.549944 
L 153.593706 146.439546 
L 162.698601 166.2337 
L 171.803497 186.419747 
L 180.908392 206.47488 
L 190.013287 225.879682 
L 199.118182 244.131578 
L 208.223077 260.757853 
L 217.327972 275.327896 
L 226.432867 287.464351 
L 235.537762 296.852889 
L 244.642657 303.250353 
L 253.747552 306.491051 
L 262.852448 306.491051 
L 271.957343 303.250353 
L 281.062238 296.852889 
L 290.167133 287.464351 
L 299.272028 275.327896 
L 308.376923 260.757853 
L 317.481818 244.131578 
L 326.586713 225.879682 
L 335.691608 206.47488 
L 344.796503 186.419747 
L 353.901399 166.2337 
L 363.006294 146.439546 
L 372.111189 127.549944 
L 381.216084 110.054125 
L 390.320979 94.405221 
L 399.425874 81.008531 
L 408.530769 70.211021 
L 417.635664 62.292342 
L 426.740559 57.457584 
L 435.845455 55.831964 
" clip-path="url(#p5e3e0a817b)" style="fill: none; stroke: #9467bd; stroke-width: 1.5; stroke-linecap: square"/>
   </g>
   <g id="patch_3">
    <path d="M 63 320.4 
L 63 43.2 
" style="fill: none; stroke: #000000; stroke-width: 0.8; stroke-linejoin: miter; stroke-linecap: square"/>
   </g>
   <g id="patch_4">
    <path d="M 453.6 320.4 
L 453.6 43.2 
" style="fill: none; stroke: #000000; stroke-width: 0.8; stroke-linejoin: miter; stroke-linecap: square"/>
   </g>
   <g id="patch_5">
    <path d="M 63 320.4 
L 453.6 320.4 
" style="fill: none; stroke: #000000; stroke-width: 0.8; stroke-linejoin: miter; stroke-linecap: square"/>
   </g>
   <g id="patch_6">
    <path d="M 63 43.2 
L 453.6 43.2 
" style="fill: none; stroke: #000000; stroke-width: 0.8; stroke-linejoin: miter; stroke-linecap: square"/>
   </g>
   <g id="text_18">
    <!-- Swapping entanglement fringes - PNR det. -->
    <g transform="translate(130.416562 37.2) scale(0.12 -0.12)">
     <defs>
      <path id="DejaVuSans-53" d="M 3425 4513 
L 3425 3897 
Q 3066 4069 2747 4153 
Q 2428 4238 2131 4238 
Q 1616 4238 1336 4038 
Q 1056 3838 1056 3469 
Q 1056 3159 1242 3001 
Q 1428 2844 1947 2747 
L 2328 2669 
Q 3034 2534 3370 2195 
Q 3706 1856 3706 1288 
Q 3706 609 3251 259 
Q 2797 -91 1919 -91 
Q 1588 -91 1214 -16 
Q 841 59 441 206 
L 441 856 
Q 825 641 1194 531 
Q 1563 422 1919 422 
Q 2459 422 2753 634 
Q 3047 847 3047 1241 
Q 3047 1584 2836 1778 
Q 2625 1972 2144 2069 
L 1759 2144 
Q 1053 2284 737 2584 
Q 422 2884 422 3419 
Q 422 4038 858 4394 
Q 1294 4750 2059 4750 
Q 2388 4750 2728 4690 
Q 3069 4631 3425 4513 
z
" transform="scale(0.015625)"/>
      <path id="DejaVuSans-77" d="M 269 3500 
L 844 3500 
L 1563 769 
L 2278 3500 
L 2956 3500 
L 3675 769 
L 4391 3500 
L 4966 3500 
L 4050 0 
L 3372 0 
L 2619 2869 
L 1863 0 
L 1184 0 
L 269 3500 
z
" transform="scale(0.015625)"/>
      <path id="DejaVuSans-67" d="M 2906 1791 
Q 2906 2416 2648 2759 
Q 2391 3103 1925 3103 
Q 1463 3103 1205 2759 
Q 947 2416 947 1791 
Q 947 1169 1205 825 
Q 1463 481 1925 481 
Q 2391 481 2648 825 
Q 2906 1169 2906 1791 
z
M 3481 434 
Q 3481 -459 3084 -895 
Q 2688 -1331 1869 -1331 
Q 1566 -1331 1297 -1286 
Q 1028 -1241 775 -1147 
L 775 -588 
Q 1028 -725 1275 -790 
Q 1522 -856 1778 -856 
Q 2344 -856 2625 -561 
Q 2906 -266 2906 331 
L 2906 616 
Q 2728 306 2450 153 
Q 2172 0 1784 0 
Q 1141 0 747 490 
Q 353 981 353 1791 
Q 353 2603 747 3093 
Q 1141 3584 1784 3584 
Q 2172 3584 2450 3431 
Q 2728 3278 2906 2969 
L 2906 3500 
L 3481 3500 
L 3481 434 
z
" transform="scale(0.015625)"/>
      <path id="DejaVuSans-6d" d="M 3328 2828 
Q 3544 3216 3844 3400 
Q 4144 3584 4550 3584 
Q 5097 3584 5394 3201 
Q 5691 2819 5691 2113 
L 5691 0 
L 5113 0 
L 5113 2094 
Q 5113 2597 4934 2840 
Q 4756 3084 4391 3084 
Q 3944 3084 3684 2787 
Q 3425 2491 3425 1978 
L 3425 0 
L 2847 0 
L 2847 2094 
Q 2847 2600 2669 2842 
Q 2491 3084 2119 3084 
Q 1678 3084 1418 2786 
Q 1159 2488 1159 1978 
L 1159 0 
L 581 0 
L 581 3500 
L 1159 3500 
L 1159 2956 
Q 1356 3278 1631 3431 
Q 1906 3584 2284 3584 
Q 2666 3584 2933 3390 
Q 3200 3197 3328 2828 
z
" transform="scale(0.015625)"/>
      <path id="DejaVuSans-66" d="M 2375 4863 
L 2375 4384 
L 1825 4384 
Q 1516 4384 1395 4259 
Q 1275 4134 1275 3809 
L 1275 3500 
L 2222 3500 
L 2222 3053 
L 1275 3053 
L 1275 0 
L 697 0 
L 697 3053 
L 147 3053 
L 147 3500 
L 697 3500 
L 697 3744 
Q 697 4328 969 4595 
Q 1241 4863 1831 4863 
L 2375 4863 
z
" transform="scale(0.015625)"/>
      <path id="DejaVuSans-2d" d="M 313 2009 
L 1997 2009 
L 1997 1497 
L 313 1497 
L 313 2009 
z
" transform="scale(0.015625)"/>
      <path id="DejaVuSans-50" d="M 1259 4147 
L 1259 2394 
L 2053 2394 
Q 2494 2394 2734 2622 
Q 2975 2850 2975 3272 
Q 2975 3691 2734 3919 
Q 2494 4147 2053 4147 
L 1259 4147 
z
M 628 4666 
L 2053 4666 
Q 2838 4666 3239 4311 
Q 3641 3956 3641 3272 
Q 3641 2581 3239 2228 
Q 2838 1875 2053 1875 
L 1259 1875 
L 1259 0 
L 628 0 
L 628 4666 
z
" transform="scale(0.015625)"/>
      <path id="DejaVuSans-4e" d="M 628 4666 
L 1478 4666 
L 3547 763 
L 3547 4666 
L 4159 4666 
L 4159 0 
L 3309 0 
L 1241 3903 
L 1241 0 
L 628 0 
L 628 4666 
z
" transform="scale(0.015625)"/>
      <path id="DejaVuSans-2e" d="M 684 794 
L 1344 794 
L 1344 0 
L 684 0 
L 684 794 
z
" transform="scale(0.015625)"/>
     </defs>
     <use xlink:href="#DejaVuSans-53"/>
     <use xlink:href="#DejaVuSans-77" x="63.476562"/>
     <use xlink:href="#DejaVuSans-61" x="145.263672"/>
     <use xlink:href="#DejaVuSans-70" x="206.542969"/>
     <use xlink:href="#DejaVuSans-70" x="270.019531"/>
     <use xlink:href="#DejaVuSans-69" x="333.496094"/>
     <use xlink:href="#DejaVuSans-6e" x="361.279297"/>
     <use xlink:href="#DejaVuSans-67" x="424.658203"/>
     <use xlink:href="#DejaVuSans-20" x="488.134766"/>
     <use xlink:href="#DejaVuSans-65" x="519.921875"/>
     <use xlink:href="#DejaVuSans-6e" x="581.445312"/>
     <use xlink:href="#DejaVuSans-74" x="644.824219"/>
     <use xlink:href="#DejaVuSans-61" x="684.033203"/>
     <use xlink:href="#DejaVuSans-6e" x="745.3125"/>
     <use xlink:href="#DejaVuSans-67" x="808.691406"/>
     <use xlink:href="#DejaVuSans-6c" x="872.167969"/>
     <use xlink:href="#DejaVuSans-65" x="899.951172"/>
     <use xlink:href="#DejaVuSans-6d" x="961.474609"/>
     <use xlink:href="#DejaVuSans-65" x="1058.886719"/>
     <use xlink:href="#DejaVuSans-6e" x="1120.410156"/>
     <use xlink:href="#DejaVuSans-74" x="1183.789062"/>
     <use xlink:href="#DejaVuSans-20" x="1222.998047"/>
     <use xlink:href="#DejaVuSans-66" x="1254.785156"/>
     <use xlink:href="#DejaVuSans-72" x="1289.990234"/>
     <use xlink:href="#DejaVuSans-69" x="1331.103516"/>
     <use xlink:href="#DejaVuSans-6e" x="1358.886719"/>
     <use xlink:href="#DejaVuSans-67" x="1422.265625"/>
     <use xlink:href="#DejaVuSans-65" x="1485.742188"/>
     <use xlink:href="#DejaVuSans-73" x="1547.265625"/>
     <use xlink:href="#DejaVuSans-20" x="1599.365234"/>
     <use xlink:href="#DejaVuSans-2d" x="1631.152344"/>
     <use xlink:href="#DejaVuSans-20" x="1667.236328"/>
     <use xlink:href="#DejaVuSans-50" x="1699.023438"/>
     <use xlink:href="#DejaVuSans-4e" x="1759.326172"/>
     <use xlink:href="#DejaVuSans-52" x="1834.130859"/>
     <use xlink:href="#DejaVuSans-20" x="1903.613281"/>
     <use xlink:href="#DejaVuSans-64" x="1935.400391"/>
     <use xlink:href="#DejaVuSans-65" x="1998.876953"/>
     <use xlink:href="#DejaVuSans-74" x="2060.400391"/>
     <use xlink:href="#DejaVuSans-2e" x="2099.609375"/>
    </g>
   </g>
   <g id="legend_1">
    <g id="patch_7">
     <path d="M 70 286.05 
L 130.3 286.05 
Q 132.3 286.05 132.3 284.05 
L 132.3 50.2 
Q 132.3 48.2 130.3 48.2 
L 70 48.2 
Q 68 48.2 68 50.2 
L 68 284.05 
Q 68 286.05 70 286.05 
z
" style="fill: #f8f8f8; opacity: 0.8; stroke: #cccccc; stroke-linejoin: miter"/>
    </g>
    <g id="text_19">
     <!-- $\delta$ -->
     <g transform="translate(97.05 59.798437) scale(0.1 -0.1)">
      <defs>
       <path id="DejaVuSans-Oblique-3b4" d="M 3472 4053 
Q 3197 4272 2450 4272 
Q 1659 4272 1588 3906 
Q 1531 3619 2328 3469 
Q 2953 3353 3253 3003 
Q 3616 2581 3447 1716 
Q 3284 888 2763 400 
Q 2238 -91 1488 -91 
Q 741 -91 406 400 
Q 72 888 241 1747 
Q 363 2384 891 2900 
Q 1097 3100 1353 3213 
Q 913 3459 1000 3900 
Q 1166 4750 2544 4750 
Q 3234 4750 3566 4531 
L 3472 4053 
z
M 1753 3056 
Q 1525 2966 1306 2738 
Q 969 2384 847 1747 
Q 722 1113 919 756 
Q 1119 397 1584 397 
Q 2044 397 2381 759 
Q 2722 1122 2838 1716 
Q 2956 2338 2731 2638 
Q 2491 2959 2103 2994 
Q 1906 3013 1753 3056 
z
" transform="scale(0.015625)"/>
      </defs>
      <use xlink:href="#DejaVuSans-Oblique-3b4" transform="translate(0 0.78125)"/>
     </g>
    </g>
    <g id="line2d_44">
     <path d="M 72 70.976562 
L 82 70.976562 
L 92 70.976562 
" style="fill: none; stroke: #1f77b4; stroke-width: 1.5; stroke-linecap: square"/>
    </g>
    <g id="text_20">
     <!-- 0.00$\pi$ -->
     <g transform="translate(100 74.476562) scale(0.1 -0.1)">
      <defs>
       <path id="DejaVuSans-Oblique-3c0" d="M 584 3500 
L 3938 3500 
L 3825 2925 
L 3384 2925 
L 2966 775 
Q 2922 550 2981 450 
Q 3038 353 3209 353 
Q 3256 353 3325 363 
Q 3397 369 3419 372 
L 3338 -44 
Q 3222 -84 3103 -103 
Q 2981 -122 2866 -122 
Q 2491 -122 2388 81 
Q 2284 288 2391 838 
L 2797 2925 
L 1506 2925 
L 938 0 
L 350 0 
L 919 2925 
L 472 2925 
L 584 3500 
z
" transform="scale(0.015625)"/>
      </defs>
      <use xlink:href="#DejaVuSans-30" transform="translate(0 0.78125)"/>
      <use xlink:href="#DejaVuSans-2e" transform="translate(63.623047 0.78125)"/>
      <use xlink:href="#DejaVuSans-30" transform="translate(95.410156 0.78125)"/>
      <use xlink:href="#DejaVuSans-30" transform="translate(159.033203 0.78125)"/>
      <use xlink:href="#DejaVuSans-Oblique-3c0" transform="translate(222.65625 0.78125)"/>
     </g>
    </g>
    <g id="line2d_45">
     <path d="M 72 85.654688 
L 82 85.654688 
L 92 85.654688 
" style="fill: none; stroke: #ff7f0e; stroke-width: 1.5; stroke-linecap: square"/>
    </g>
    <g id="text_21">
     <!-- 0.07$\pi$ -->
     <g transform="translate(100 89.154688) scale(0.1 -0.1)">
      <defs>
       <path id="DejaVuSans-37" d="M 525 4666 
L 3525 4666 
L 3525 4397 
L 1831 0 
L 1172 0 
L 2766 4134 
L 525 4134 
L 525 4666 
z
" transform="scale(0.015625)"/>
      </defs>
      <use xlink:href="#DejaVuSans-30" transform="translate(0 0.78125)"/>
      <use xlink:href="#DejaVuSans-2e" transform="translate(63.623047 0.78125)"/>
      <use xlink:href="#DejaVuSans-30" transform="translate(95.410156 0.78125)"/>
      <use xlink:href="#DejaVuSans-37" transform="translate(159.033203 0.78125)"/>
      <use xlink:href="#DejaVuSans-Oblique-3c0" transform="translate(222.65625 0.78125)"/>
     </g>
    </g>
    <g id="line2d_46">
     <path d="M 72 100.332813 
L 82 100.332813 
L 92 100.332813 
" style="fill: none; stroke: #2ca02c; stroke-width: 1.5; stroke-linecap: square"/>
    </g>
    <g id="text_22">
     <!-- 0.14$\pi$ -->
     <g transform="translate(100 103.832813) scale(0.1 -0.1)">
      <use xlink:href="#DejaVuSans-30" transform="translate(0 0.78125)"/>
      <use xlink:href="#DejaVuSans-2e" transform="translate(63.623047 0.78125)"/>
      <use xlink:href="#DejaVuSans-31" transform="translate(95.410156 0.78125)"/>
      <use xlink:href="#DejaVuSans-34" transform="translate(159.033203 0.78125)"/>
      <use xlink:href="#DejaVuSans-Oblique-3c0" transform="translate(222.65625 0.78125)"/>
     </g>
    </g>
    <g id="line2d_47">
     <path d="M 72 115.010938 
L 82 115.010938 
L 92 115.010938 
" style="fill: none; stroke: #d62728; stroke-width: 1.5; stroke-linecap: square"/>
    </g>
    <g id="text_23">
     <!-- 0.21$\pi$ -->
     <g transform="translate(100 118.510938) scale(0.1 -0.1)">
      <use xlink:href="#DejaVuSans-30" transform="translate(0 0.78125)"/>
      <use xlink:href="#DejaVuSans-2e" transform="translate(63.623047 0.78125)"/>
      <use xlink:href="#DejaVuSans-32" transform="translate(89.910156 0.78125)"/>
      <use xlink:href="#DejaVuSans-31" transform="translate(153.533203 0.78125)"/>
      <use xlink:href="#DejaVuSans-Oblique-3c0" transform="translate(217.15625 0.78125)"/>
     </g>
    </g>
    <g id="line2d_48">
     <path d="M 72 129.689063 
L 82 129.689063 
L 92 129.689063 
" style="fill: none; stroke: #9467bd; stroke-width: 1.5; stroke-linecap: square"/>
    </g>
    <g id="text_24">
     <!-- 0.29$\pi$ -->
     <g transform="translate(100 133.189063) scale(0.1 -0.1)">
      <defs>
       <path id="DejaVuSans-39" d="M 703 97 
L 703 672 
Q 941 559 1184 500 
Q 1428 441 1663 441 
Q 2288 441 2617 861 
Q 2947 1281 2994 2138 
Q 2813 1869 2534 1725 
Q 2256 1581 1919 1581 
Q 1219 1581 811 2004 
Q 403 2428 403 3163 
Q 403 3881 828 4315 
Q 1253 4750 1959 4750 
Q 2769 4750 3195 4129 
Q 3622 3509 3622 2328 
Q 3622 1225 3098 567 
Q 2575 -91 1691 -91 
Q 1453 -91 1209 -44 
Q 966 3 703 97 
z
M 1959 2075 
Q 2384 2075 2632 2365 
Q 2881 2656 2881 3163 
Q 2881 3666 2632 3958 
Q 2384 4250 1959 4250 
Q 1534 4250 1286 3958 
Q 1038 3666 1038 3163 
Q 1038 2656 1286 2365 
Q 1534 2075 1959 2075 
z
" transform="scale(0.015625)"/>
      </defs>
      <use xlink:href="#DejaVuSans-30" transform="translate(0 0.78125)"/>
      <use xlink:href="#DejaVuSans-2e" transform="translate(63.623047 0.78125)"/>
      <use xlink:href="#DejaVuSans-32" transform="translate(89.910156 0.78125)"/>
      <use xlink:href="#DejaVuSans-39" transform="translate(151.783203 0.78125)"/>
      <use xlink:href="#DejaVuSans-Oblique-3c0" transform="translate(215.40625 0.78125)"/>
     </g>
    </g>
    <g id="line2d_49">
     <path d="M 72 144.367188 
L 82 144.367188 
L 92 144.367188 
" style="fill: none; stroke: #8c564b; stroke-width: 1.5; stroke-linecap: square"/>
    </g>
    <g id="text_25">
     <!-- 0.36$\pi$ -->
     <g transform="translate(100 147.867188) scale(0.1 -0.1)">
      <use xlink:href="#DejaVuSans-30" transform="translate(0 0.78125)"/>
      <use xlink:href="#DejaVuSans-2e" transform="translate(63.623047 0.78125)"/>
      <use xlink:href="#DejaVuSans-33" transform="translate(95.410156 0.78125)"/>
      <use xlink:href="#DejaVuSans-36" transform="translate(159.033203 0.78125)"/>
      <use xlink:href="#DejaVuSans-Oblique-3c0" transform="translate(222.65625 0.78125)"/>
     </g>
    </g>
    <g id="line2d_50">
     <path d="M 72 159.045313 
L 82 159.045313 
L 92 159.045313 
" style="fill: none; stroke: #e377c2; stroke-width: 1.5; stroke-linecap: square"/>
    </g>
    <g id="text_26">
     <!-- 0.43$\pi$ -->
     <g transform="translate(100 162.545313) scale(0.1 -0.1)">
      <use xlink:href="#DejaVuSans-30" transform="translate(0 0.78125)"/>
      <use xlink:href="#DejaVuSans-2e" transform="translate(63.623047 0.78125)"/>
      <use xlink:href="#DejaVuSans-34" transform="translate(95.410156 0.78125)"/>
      <use xlink:href="#DejaVuSans-33" transform="translate(159.033203 0.78125)"/>
      <use xlink:href="#DejaVuSans-Oblique-3c0" transform="translate(222.65625 0.78125)"/>
     </g>
    </g>
    <g id="line2d_51">
     <path d="M 72 173.723437 
L 82 173.723437 
L 92 173.723437 
" style="fill: none; stroke: #7f7f7f; stroke-width: 1.5; stroke-linecap: square"/>
    </g>
    <g id="text_27">
     <!-- 0.50$\pi$ -->
     <g transform="translate(100 177.223437) scale(0.1 -0.1)">
      <use xlink:href="#DejaVuSans-30" transform="translate(0 0.78125)"/>
      <use xlink:href="#DejaVuSans-2e" transform="translate(63.623047 0.78125)"/>
      <use xlink:href="#DejaVuSans-35" transform="translate(95.410156 0.78125)"/>
      <use xlink:href="#DejaVuSans-30" transform="translate(159.033203 0.78125)"/>
      <use xlink:href="#DejaVuSans-Oblique-3c0" transform="translate(222.65625 0.78125)"/>
     </g>
    </g>
    <g id="line2d_52">
     <path d="M 72 188.401563 
L 82 188.401563 
L 92 188.401563 
" style="fill: none; stroke: #bcbd22; stroke-width: 1.5; stroke-linecap: square"/>
    </g>
    <g id="text_28">
     <!-- 0.57$\pi$ -->
     <g transform="translate(100 191.901563) scale(0.1 -0.1)">
      <use xlink:href="#DejaVuSans-30" transform="translate(0 0.78125)"/>
      <use xlink:href="#DejaVuSans-2e" transform="translate(63.623047 0.78125)"/>
      <use xlink:href="#DejaVuSans-35" transform="translate(95.410156 0.78125)"/>
      <use xlink:href="#DejaVuSans-37" transform="translate(151.783203 0.78125)"/>
      <use xlink:href="#DejaVuSans-Oblique-3c0" transform="translate(215.40625 0.78125)"/>
     </g>
    </g>
    <g id="line2d_53">
     <path d="M 72 203.079687 
L 82 203.079687 
L 92 203.079687 
" style="fill: none; stroke: #17becf; stroke-width: 1.5; stroke-linecap: square"/>
    </g>
    <g id="text_29">
     <!-- 0.64$\pi$ -->
     <g transform="translate(100 206.579687) scale(0.1 -0.1)">
      <use xlink:href="#DejaVuSans-30" transform="translate(0 0.78125)"/>
      <use xlink:href="#DejaVuSans-2e" transform="translate(63.623047 0.78125)"/>
      <use xlink:href="#DejaVuSans-36" transform="translate(95.410156 0.78125)"/>
      <use xlink:href="#DejaVuSans-34" transform="translate(159.033203 0.78125)"/>
      <use xlink:href="#DejaVuSans-Oblique-3c0" transform="translate(222.65625 0.78125)"/>
     </g>
    </g>
    <g id="line2d_54">
     <path d="M 72 217.757812 
L 82 217.757812 
L 92 217.757812 
" style="fill: none; stroke: #1f77b4; stroke-width: 1.5; stroke-linecap: square"/>
    </g>
    <g id="text_30">
     <!-- 0.71$\pi$ -->
     <g transform="translate(100 221.257812) scale(0.1 -0.1)">
      <use xlink:href="#DejaVuSans-30" transform="translate(0 0.78125)"/>
      <use xlink:href="#DejaVuSans-2e" transform="translate(63.623047 0.78125)"/>
      <use xlink:href="#DejaVuSans-37" transform="translate(87.660156 0.78125)"/>
      <use xlink:href="#DejaVuSans-31" transform="translate(151.283203 0.78125)"/>
      <use xlink:href="#DejaVuSans-Oblique-3c0" transform="translate(214.90625 0.78125)"/>
     </g>
    </g>
    <g id="line2d_55">
     <path d="M 72 232.435937 
L 82 232.435937 
L 92 232.435937 
" style="fill: none; stroke: #ff7f0e; stroke-width: 1.5; stroke-linecap: square"/>
    </g>
    <g id="text_31">
     <!-- 0.79$\pi$ -->
     <g transform="translate(100 235.935937) scale(0.1 -0.1)">
      <use xlink:href="#DejaVuSans-30" transform="translate(0 0.78125)"/>
      <use xlink:href="#DejaVuSans-2e" transform="translate(63.623047 0.78125)"/>
      <use xlink:href="#DejaVuSans-37" transform="translate(87.660156 0.78125)"/>
      <use xlink:href="#DejaVuSans-39" transform="translate(151.283203 0.78125)"/>
      <use xlink:href="#DejaVuSans-Oblique-3c0" transform="translate(214.90625 0.78125)"/>
     </g>
    </g>
    <g id="line2d_56">
     <path d="M 72 247.114062 
L 82 247.114062 
L 92 247.114062 
" style="fill: none; stroke: #2ca02c; stroke-width: 1.5; stroke-linecap: square"/>
    </g>
    <g id="text_32">
     <!-- 0.86$\pi$ -->
     <g transform="translate(100 250.614062) scale(0.1 -0.1)">
      <defs>
       <path id="DejaVuSans-38" d="M 2034 2216 
Q 1584 2216 1326 1975 
Q 1069 1734 1069 1313 
Q 1069 891 1326 650 
Q 1584 409 2034 409 
Q 2484 409 2743 651 
Q 3003 894 3003 1313 
Q 3003 1734 2745 1975 
Q 2488 2216 2034 2216 
z
M 1403 2484 
Q 997 2584 770 2862 
Q 544 3141 544 3541 
Q 544 4100 942 4425 
Q 1341 4750 2034 4750 
Q 2731 4750 3128 4425 
Q 3525 4100 3525 3541 
Q 3525 3141 3298 2862 
Q 3072 2584 2669 2484 
Q 3125 2378 3379 2068 
Q 3634 1759 3634 1313 
Q 3634 634 3220 271 
Q 2806 -91 2034 -91 
Q 1263 -91 848 271 
Q 434 634 434 1313 
Q 434 1759 690 2068 
Q 947 2378 1403 2484 
z
M 1172 3481 
Q 1172 3119 1398 2916 
Q 1625 2713 2034 2713 
Q 2441 2713 2670 2916 
Q 2900 3119 2900 3481 
Q 2900 3844 2670 4047 
Q 2441 4250 2034 4250 
Q 1625 4250 1398 4047 
Q 1172 3844 1172 3481 
z
" transform="scale(0.015625)"/>
      </defs>
      <use xlink:href="#DejaVuSans-30" transform="translate(0 0.78125)"/>
      <use xlink:href="#DejaVuSans-2e" transform="translate(63.623047 0.78125)"/>
      <use xlink:href="#DejaVuSans-38" transform="translate(92.785156 0.78125)"/>
      <use xlink:href="#DejaVuSans-36" transform="translate(156.408203 0.78125)"/>
      <use xlink:href="#DejaVuSans-Oblique-3c0" transform="translate(220.03125 0.78125)"/>
     </g>
    </g>
    <g id="line2d_57">
     <path d="M 72 261.792187 
L 82 261.792187 
L 92 261.792187 
" style="fill: none; stroke: #d62728; stroke-width: 1.5; stroke-linecap: square"/>
    </g>
    <g id="text_33">
     <!-- 0.93$\pi$ -->
     <g transform="translate(100 265.292187) scale(0.1 -0.1)">
      <use xlink:href="#DejaVuSans-30" transform="translate(0 0.78125)"/>
      <use xlink:href="#DejaVuSans-2e" transform="translate(63.623047 0.78125)"/>
      <use xlink:href="#DejaVuSans-39" transform="translate(95.410156 0.78125)"/>
      <use xlink:href="#DejaVuSans-33" transform="translate(159.033203 0.78125)"/>
      <use xlink:href="#DejaVuSans-Oblique-3c0" transform="translate(222.65625 0.78125)"/>
     </g>
    </g>
    <g id="line2d_58">
     <path d="M 72 276.470312 
L 82 276.470312 
L 92 276.470312 
" style="fill: none; stroke: #9467bd; stroke-width: 1.5; stroke-linecap: square"/>
    </g>
    <g id="text_34">
     <!-- 1.00$\pi$ -->
     <g transform="translate(100 279.970312) scale(0.1 -0.1)">
      <use xlink:href="#DejaVuSans-31" transform="translate(0 0.78125)"/>
      <use xlink:href="#DejaVuSans-2e" transform="translate(63.623047 0.78125)"/>
      <use xlink:href="#DejaVuSans-30" transform="translate(95.410156 0.78125)"/>
      <use xlink:href="#DejaVuSans-30" transform="translate(159.033203 0.78125)"/>
      <use xlink:href="#DejaVuSans-Oblique-3c0" transform="translate(222.65625 0.78125)"/>
     </g>
    </g>
   </g>
  </g>
 </g>
 <defs>
  <clipPath id="p5e3e0a817b">
   <rect x="63" y="43.2" width="390.6" height="277.2"/>
  </clipPath>
 </defs>
</svg>
