<?xml version="1.0" encoding="utf-8" standalone="no"?>
<!DOCTYPE svg PUBLIC "-//W3C//DTD SVG 1.1//EN"
  "http://www.w3.org/Graphics/SVG/1.1/DTD/svg11.dtd">
<svg xmlns:xlink="http://www.w3.org/1999/xlink" width="504pt" height="360pt" viewBox="0 0 504 360" xmlns="http://www.w3.org/2000/svg" version="1.1">
 <metadata>
  <rdf:RDF xmlns:dc="http://purl.org/dc/elements/1.1/" xmlns:cc="http://creativecommons.org/ns#" xmlns:rdf="http://www.w3.org/1999/02/22-rdf-syntax-ns#">
   <cc:Work>
    <dc:type rdf:resource="http://purl.org/dc/dcmitype/StillImage"/>
    <dc:date>2025-02-28T11:45:22.896178</dc:date>
    <dc:format>image/svg+xml</dc:format>
    <dc:creator>
     <cc:Agent>
      <dc:title>Matplotlib v3.9.2, https://matplotlib.org/</dc:title>
     </cc:Agent>
    </dc:creator>
   </cc:Work>
  </rdf:RDF>
 </metadata>
 <defs>
  <style type="text/css">*{stroke-linejoin: round; stroke-linecap: butt}</style>
 </defs>
 <g id="figure_1">
  <g id="patch_1">
   <path d="M 0 360 
L 504 360 
L 504 0 
L 0 0 
z
" style="fill: #dcdcdc"/>
  </g>
  <g id="axes_1">
   <g id="patch_2">
    <path d="M 63 320.4 
L 453.6 320.4 
L 453.6 43.2 
L 63 43.2 
z
" style="fill: #f8f8f8"/>
   </g>
   <g id="matplotlib.axis_1">
    <g id="xtick_1">
     <g id="line2d_1">
      <path d="M 80.754545 320.4 
L 80.754545 43.2 
" clip-path="url(#p56d310538f)" style="fill: none; stroke: #b0b0b0; stroke-width: 0.8; stroke-linecap: square"/>
     </g>
     <g id="line2d_2">
      <defs>
       <path id="mdd214ce9af" d="M 0 0 
L 0 3.5 
" style="stroke: #000000; stroke-width: 0.8"/>
      </defs>
      <g>
       <use xlink:href="#mdd214ce9af" x="80.754545" y="320.4" style="stroke: #000000; stroke-width: 0.8"/>
      </g>
     </g>
     <g id="text_1">
      <!-- $\mathdefault{0}$ -->
      <g transform="translate(77.234545 335.758281) scale(0.11 -0.11)">
       <defs>
        <path id="DejaVuSans-30" d="M 2034 4250 
Q 1547 4250 1301 3770 
Q 1056 3291 1056 2328 
Q 1056 1369 1301 889 
Q 1547 409 2034 409 
Q 2525 409 2770 889 
Q 3016 1369 3016 2328 
Q 3016 3291 2770 3770 
Q 2525 4250 2034 4250 
z
M 2034 4750 
Q 2819 4750 3233 4129 
Q 3647 3509 3647 2328 
Q 3647 1150 3233 529 
Q 2819 -91 2034 -91 
Q 1250 -91 836 529 
Q 422 1150 422 2328 
Q 422 3509 836 4129 
Q 1250 4750 2034 4750 
z
" transform="scale(0.015625)"/>
       </defs>
       <use xlink:href="#DejaVuSans-30" transform="translate(0 0.78125)"/>
      </g>
     </g>
    </g>
    <g id="xtick_2">
     <g id="line2d_3">
      <path d="M 137.269019 320.4 
L 137.269019 43.2 
" clip-path="url(#p56d310538f)" style="fill: none; stroke: #b0b0b0; stroke-width: 0.8; stroke-linecap: square"/>
     </g>
     <g id="line2d_4">
      <g>
       <use xlink:href="#mdd214ce9af" x="137.269019" y="320.4" style="stroke: #000000; stroke-width: 0.8"/>
      </g>
     </g>
     <g id="text_2">
      <!-- $\mathdefault{1}$ -->
      <g transform="translate(133.749019 335.758281) scale(0.11 -0.11)">
       <defs>
        <path id="DejaVuSans-31" d="M 794 531 
L 1825 531 
L 1825 4091 
L 703 3866 
L 703 4441 
L 1819 4666 
L 2450 4666 
L 2450 531 
L 3481 531 
L 3481 0 
L 794 0 
L 794 531 
z
" transform="scale(0.015625)"/>
       </defs>
       <use xlink:href="#DejaVuSans-31" transform="translate(0 0.09375)"/>
      </g>
     </g>
    </g>
    <g id="xtick_3">
     <g id="line2d_5">
      <path d="M 193.783492 320.4 
L 193.783492 43.2 
" clip-path="url(#p56d310538f)" style="fill: none; stroke: #b0b0b0; stroke-width: 0.8; stroke-linecap: square"/>
     </g>
     <g id="line2d_6">
      <g>
       <use xlink:href="#mdd214ce9af" x="193.783492" y="320.4" style="stroke: #000000; stroke-width: 0.8"/>
      </g>
     </g>
     <g id="text_3">
      <!-- $\mathdefault{2}$ -->
      <g transform="translate(190.263492 335.758281) scale(0.11 -0.11)">
       <defs>
        <path id="DejaVuSans-32" d="M 1228 531 
L 3431 531 
L 3431 0 
L 469 0 
L 469 531 
Q 828 903 1448 1529 
Q 2069 2156 2228 2338 
Q 2531 2678 2651 2914 
Q 2772 3150 2772 3378 
Q 2772 3750 2511 3984 
Q 2250 4219 1831 4219 
Q 1534 4219 1204 4116 
Q 875 4013 500 3803 
L 500 4441 
Q 881 4594 1212 4672 
Q 1544 4750 1819 4750 
Q 2544 4750 2975 4387 
Q 3406 4025 3406 3419 
Q 3406 3131 3298 2873 
Q 3191 2616 2906 2266 
Q 2828 2175 2409 1742 
Q 1991 1309 1228 531 
z
" transform="scale(0.015625)"/>
       </defs>
       <use xlink:href="#DejaVuSans-32" transform="translate(0 0.78125)"/>
      </g>
     </g>
    </g>
    <g id="xtick_4">
     <g id="line2d_7">
      <path d="M 250.297966 320.4 
L 250.297966 43.2 
" clip-path="url(#p56d310538f)" style="fill: none; stroke: #b0b0b0; stroke-width: 0.8; stroke-linecap: square"/>
     </g>
     <g id="line2d_8">
      <g>
       <use xlink:href="#mdd214ce9af" x="250.297966" y="320.4" style="stroke: #000000; stroke-width: 0.8"/>
      </g>
     </g>
     <g id="text_4">
      <!-- $\mathdefault{3}$ -->
      <g transform="translate(246.777966 335.758281) scale(0.11 -0.11)">
       <defs>
        <path id="DejaVuSans-33" d="M 2597 2516 
Q 3050 2419 3304 2112 
Q 3559 1806 3559 1356 
Q 3559 666 3084 287 
Q 2609 -91 1734 -91 
Q 1441 -91 1130 -33 
Q 819 25 488 141 
L 488 750 
Q 750 597 1062 519 
Q 1375 441 1716 441 
Q 2309 441 2620 675 
Q 2931 909 2931 1356 
Q 2931 1769 2642 2001 
Q 2353 2234 1838 2234 
L 1294 2234 
L 1294 2753 
L 1863 2753 
Q 2328 2753 2575 2939 
Q 2822 3125 2822 3475 
Q 2822 3834 2567 4026 
Q 2313 4219 1838 4219 
Q 1578 4219 1281 4162 
Q 984 4106 628 3988 
L 628 4550 
Q 988 4650 1302 4700 
Q 1616 4750 1894 4750 
Q 2613 4750 3031 4423 
Q 3450 4097 3450 3541 
Q 3450 3153 3228 2886 
Q 3006 2619 2597 2516 
z
" transform="scale(0.015625)"/>
       </defs>
       <use xlink:href="#DejaVuSans-33" transform="translate(0 0.78125)"/>
      </g>
     </g>
    </g>
    <g id="xtick_5">
     <g id="line2d_9">
      <path d="M 306.812439 320.4 
L 306.812439 43.2 
" clip-path="url(#p56d310538f)" style="fill: none; stroke: #b0b0b0; stroke-width: 0.8; stroke-linecap: square"/>
     </g>
     <g id="line2d_10">
      <g>
       <use xlink:href="#mdd214ce9af" x="306.812439" y="320.4" style="stroke: #000000; stroke-width: 0.8"/>
      </g>
     </g>
     <g id="text_5">
      <!-- $\mathdefault{4}$ -->
      <g transform="translate(303.292439 335.758281) scale(0.11 -0.11)">
       <defs>
        <path id="DejaVuSans-34" d="M 2419 4116 
L 825 1625 
L 2419 1625 
L 2419 4116 
z
M 2253 4666 
L 3047 4666 
L 3047 1625 
L 3713 1625 
L 3713 1100 
L 3047 1100 
L 3047 0 
L 2419 0 
L 2419 1100 
L 313 1100 
L 313 1709 
L 2253 4666 
z
" transform="scale(0.015625)"/>
       </defs>
       <use xlink:href="#DejaVuSans-34" transform="translate(0 0.09375)"/>
      </g>
     </g>
    </g>
    <g id="xtick_6">
     <g id="line2d_11">
      <path d="M 363.326913 320.4 
L 363.326913 43.2 
" clip-path="url(#p56d310538f)" style="fill: none; stroke: #b0b0b0; stroke-width: 0.8; stroke-linecap: square"/>
     </g>
     <g id="line2d_12">
      <g>
       <use xlink:href="#mdd214ce9af" x="363.326913" y="320.4" style="stroke: #000000; stroke-width: 0.8"/>
      </g>
     </g>
     <g id="text_6">
      <!-- $\mathdefault{5}$ -->
      <g transform="translate(359.806913 335.758281) scale(0.11 -0.11)">
       <defs>
        <path id="DejaVuSans-35" d="M 691 4666 
L 3169 4666 
L 3169 4134 
L 1269 4134 
L 1269 2991 
Q 1406 3038 1543 3061 
Q 1681 3084 1819 3084 
Q 2600 3084 3056 2656 
Q 3513 2228 3513 1497 
Q 3513 744 3044 326 
Q 2575 -91 1722 -91 
Q 1428 -91 1123 -41 
Q 819 9 494 109 
L 494 744 
Q 775 591 1075 516 
Q 1375 441 1709 441 
Q 2250 441 2565 725 
Q 2881 1009 2881 1497 
Q 2881 1984 2565 2268 
Q 2250 2553 1709 2553 
Q 1456 2553 1204 2497 
Q 953 2441 691 2322 
L 691 4666 
z
" transform="scale(0.015625)"/>
       </defs>
       <use xlink:href="#DejaVuSans-35" transform="translate(0 0.09375)"/>
      </g>
     </g>
    </g>
    <g id="xtick_7">
     <g id="line2d_13">
      <path d="M 419.841386 320.4 
L 419.841386 43.2 
" clip-path="url(#p56d310538f)" style="fill: none; stroke: #b0b0b0; stroke-width: 0.8; stroke-linecap: square"/>
     </g>
     <g id="line2d_14">
      <g>
       <use xlink:href="#mdd214ce9af" x="419.841386" y="320.4" style="stroke: #000000; stroke-width: 0.8"/>
      </g>
     </g>
     <g id="text_7">
      <!-- $\mathdefault{6}$ -->
      <g transform="translate(416.321386 335.758281) scale(0.11 -0.11)">
       <defs>
        <path id="DejaVuSans-36" d="M 2113 2584 
Q 1688 2584 1439 2293 
Q 1191 2003 1191 1497 
Q 1191 994 1439 701 
Q 1688 409 2113 409 
Q 2538 409 2786 701 
Q 3034 994 3034 1497 
Q 3034 2003 2786 2293 
Q 2538 2584 2113 2584 
z
M 3366 4563 
L 3366 3988 
Q 3128 4100 2886 4159 
Q 2644 4219 2406 4219 
Q 1781 4219 1451 3797 
Q 1122 3375 1075 2522 
Q 1259 2794 1537 2939 
Q 1816 3084 2150 3084 
Q 2853 3084 3261 2657 
Q 3669 2231 3669 1497 
Q 3669 778 3244 343 
Q 2819 -91 2113 -91 
Q 1303 -91 875 529 
Q 447 1150 447 2328 
Q 447 3434 972 4092 
Q 1497 4750 2381 4750 
Q 2619 4750 2861 4703 
Q 3103 4656 3366 4563 
z
" transform="scale(0.015625)"/>
       </defs>
       <use xlink:href="#DejaVuSans-36" transform="translate(0 0.78125)"/>
      </g>
     </g>
    </g>
    <g id="text_8">
     <!-- $\alpha$ (Radians) -->
     <g transform="translate(229.55 349.644375) scale(0.1 -0.1)">
      <defs>
       <path id="DejaVuSans-Oblique-3b1" d="M 2619 1628 
L 2622 2350 
Q 2625 3088 2069 3091 
Q 1653 3094 1394 2747 
Q 1069 2319 959 1747 
Q 825 1059 994 731 
Q 1169 397 1547 397 
Q 1966 397 2319 1063 
L 2619 1628 
z
M 2166 3578 
Q 3141 3594 3128 2584 
Q 3128 2584 3616 3500 
L 4128 3500 
L 3119 1603 
L 3109 919 
Q 3109 766 3194 638 
Q 3291 488 3391 488 
L 3669 488 
L 3575 0 
L 3228 0 
Q 2934 0 2722 263 
Q 2622 394 2619 669 
Q 2416 334 2066 50 
Q 1900 -81 1453 -78 
Q 722 -72 456 397 
Q 184 884 353 1747 
Q 534 2675 1009 3097 
Q 1544 3569 2166 3578 
z
" transform="scale(0.015625)"/>
       <path id="DejaVuSans-20" transform="scale(0.015625)"/>
       <path id="DejaVuSans-28" d="M 1984 4856 
Q 1566 4138 1362 3434 
Q 1159 2731 1159 2009 
Q 1159 1288 1364 580 
Q 1569 -128 1984 -844 
L 1484 -844 
Q 1016 -109 783 600 
Q 550 1309 550 2009 
Q 550 2706 781 3412 
Q 1013 4119 1484 4856 
L 1984 4856 
z
" transform="scale(0.015625)"/>
       <path id="DejaVuSans-52" d="M 2841 2188 
Q 3044 2119 3236 1894 
Q 3428 1669 3622 1275 
L 4263 0 
L 3584 0 
L 2988 1197 
Q 2756 1666 2539 1819 
Q 2322 1972 1947 1972 
L 1259 1972 
L 1259 0 
L 628 0 
L 628 4666 
L 2053 4666 
Q 2853 4666 3247 4331 
Q 3641 3997 3641 3322 
Q 3641 2881 3436 2590 
Q 3231 2300 2841 2188 
z
M 1259 4147 
L 1259 2491 
L 2053 2491 
Q 2509 2491 2742 2702 
Q 2975 2913 2975 3322 
Q 2975 3731 2742 3939 
Q 2509 4147 2053 4147 
L 1259 4147 
z
" transform="scale(0.015625)"/>
       <path id="DejaVuSans-61" d="M 2194 1759 
Q 1497 1759 1228 1600 
Q 959 1441 959 1056 
Q 959 750 1161 570 
Q 1363 391 1709 391 
Q 2188 391 2477 730 
Q 2766 1069 2766 1631 
L 2766 1759 
L 2194 1759 
z
M 3341 1997 
L 3341 0 
L 2766 0 
L 2766 531 
Q 2569 213 2275 61 
Q 1981 -91 1556 -91 
Q 1019 -91 701 211 
Q 384 513 384 1019 
Q 384 1609 779 1909 
Q 1175 2209 1959 2209 
L 2766 2209 
L 2766 2266 
Q 2766 2663 2505 2880 
Q 2244 3097 1772 3097 
Q 1472 3097 1187 3025 
Q 903 2953 641 2809 
L 641 3341 
Q 956 3463 1253 3523 
Q 1550 3584 1831 3584 
Q 2591 3584 2966 3190 
Q 3341 2797 3341 1997 
z
" transform="scale(0.015625)"/>
       <path id="DejaVuSans-64" d="M 2906 2969 
L 2906 4863 
L 3481 4863 
L 3481 0 
L 2906 0 
L 2906 525 
Q 2725 213 2448 61 
Q 2172 -91 1784 -91 
Q 1150 -91 751 415 
Q 353 922 353 1747 
Q 353 2572 751 3078 
Q 1150 3584 1784 3584 
Q 2172 3584 2448 3432 
Q 2725 3281 2906 2969 
z
M 947 1747 
Q 947 1113 1208 752 
Q 1469 391 1925 391 
Q 2381 391 2643 752 
Q 2906 1113 2906 1747 
Q 2906 2381 2643 2742 
Q 2381 3103 1925 3103 
Q 1469 3103 1208 2742 
Q 947 2381 947 1747 
z
" transform="scale(0.015625)"/>
       <path id="DejaVuSans-69" d="M 603 3500 
L 1178 3500 
L 1178 0 
L 603 0 
L 603 3500 
z
M 603 4863 
L 1178 4863 
L 1178 4134 
L 603 4134 
L 603 4863 
z
" transform="scale(0.015625)"/>
       <path id="DejaVuSans-6e" d="M 3513 2113 
L 3513 0 
L 2938 0 
L 2938 2094 
Q 2938 2591 2744 2837 
Q 2550 3084 2163 3084 
Q 1697 3084 1428 2787 
Q 1159 2491 1159 1978 
L 1159 0 
L 581 0 
L 581 3500 
L 1159 3500 
L 1159 2956 
Q 1366 3272 1645 3428 
Q 1925 3584 2291 3584 
Q 2894 3584 3203 3211 
Q 3513 2838 3513 2113 
z
" transform="scale(0.015625)"/>
       <path id="DejaVuSans-73" d="M 2834 3397 
L 2834 2853 
Q 2591 2978 2328 3040 
Q 2066 3103 1784 3103 
Q 1356 3103 1142 2972 
Q 928 2841 928 2578 
Q 928 2378 1081 2264 
Q 1234 2150 1697 2047 
L 1894 2003 
Q 2506 1872 2764 1633 
Q 3022 1394 3022 966 
Q 3022 478 2636 193 
Q 2250 -91 1575 -91 
Q 1294 -91 989 -36 
Q 684 19 347 128 
L 347 722 
Q 666 556 975 473 
Q 1284 391 1588 391 
Q 1994 391 2212 530 
Q 2431 669 2431 922 
Q 2431 1156 2273 1281 
Q 2116 1406 1581 1522 
L 1381 1569 
Q 847 1681 609 1914 
Q 372 2147 372 2553 
Q 372 3047 722 3315 
Q 1072 3584 1716 3584 
Q 2034 3584 2315 3537 
Q 2597 3491 2834 3397 
z
" transform="scale(0.015625)"/>
       <path id="DejaVuSans-29" d="M 513 4856 
L 1013 4856 
Q 1481 4119 1714 3412 
Q 1947 2706 1947 2009 
Q 1947 1309 1714 600 
Q 1481 -109 1013 -844 
L 513 -844 
Q 928 -128 1133 580 
Q 1338 1288 1338 2009 
Q 1338 2731 1133 3434 
Q 928 4138 513 4856 
z
" transform="scale(0.015625)"/>
      </defs>
      <use xlink:href="#DejaVuSans-Oblique-3b1" transform="translate(0 0.015625)"/>
      <use xlink:href="#DejaVuSans-20" transform="translate(65.917969 0.015625)"/>
      <use xlink:href="#DejaVuSans-28" transform="translate(97.705078 0.015625)"/>
      <use xlink:href="#DejaVuSans-52" transform="translate(136.71875 0.015625)"/>
      <use xlink:href="#DejaVuSans-61" transform="translate(206.201172 0.015625)"/>
      <use xlink:href="#DejaVuSans-64" transform="translate(267.480469 0.015625)"/>
      <use xlink:href="#DejaVuSans-69" transform="translate(330.957031 0.015625)"/>
      <use xlink:href="#DejaVuSans-61" transform="translate(358.740234 0.015625)"/>
      <use xlink:href="#DejaVuSans-6e" transform="translate(420.019531 0.015625)"/>
      <use xlink:href="#DejaVuSans-73" transform="translate(483.398438 0.015625)"/>
      <use xlink:href="#DejaVuSans-29" transform="translate(535.498047 0.015625)"/>
     </g>
    </g>
   </g>
   <g id="matplotlib.axis_2">
    <g id="ytick_1">
     <g id="line2d_15">
      <path d="M 63 317.183937 
L 453.6 317.183937 
" clip-path="url(#p56d310538f)" style="fill: none; stroke: #b0b0b0; stroke-width: 0.8; stroke-linecap: square"/>
     </g>
     <g id="line2d_16">
      <defs>
       <path id="m8b6f55e9e9" d="M 0 0 
L -3.5 0 
" style="stroke: #000000; stroke-width: 0.8"/>
      </defs>
      <g>
       <use xlink:href="#m8b6f55e9e9" x="63" y="317.183937" style="stroke: #000000; stroke-width: 0.8"/>
      </g>
     </g>
     <g id="text_9">
      <!-- $\mathdefault{0}$ -->
      <g transform="translate(48.96 321.363078) scale(0.11 -0.11)">
       <use xlink:href="#DejaVuSans-30" transform="translate(0 0.78125)"/>
      </g>
     </g>
    </g>
    <g id="ytick_2">
     <g id="line2d_17">
      <path d="M 63 268.045484 
L 453.6 268.045484 
" clip-path="url(#p56d310538f)" style="fill: none; stroke: #b0b0b0; stroke-width: 0.8; stroke-linecap: square"/>
     </g>
     <g id="line2d_18">
      <g>
       <use xlink:href="#m8b6f55e9e9" x="63" y="268.045484" style="stroke: #000000; stroke-width: 0.8"/>
      </g>
     </g>
     <g id="text_10">
      <!-- $\mathdefault{1}$ -->
      <g transform="translate(48.96 272.224624) scale(0.11 -0.11)">
       <use xlink:href="#DejaVuSans-31" transform="translate(0 0.09375)"/>
      </g>
     </g>
    </g>
    <g id="ytick_3">
     <g id="line2d_19">
      <path d="M 63 218.90703 
L 453.6 218.90703 
" clip-path="url(#p56d310538f)" style="fill: none; stroke: #b0b0b0; stroke-width: 0.8; stroke-linecap: square"/>
     </g>
     <g id="line2d_20">
      <g>
       <use xlink:href="#m8b6f55e9e9" x="63" y="218.90703" style="stroke: #000000; stroke-width: 0.8"/>
      </g>
     </g>
     <g id="text_11">
      <!-- $\mathdefault{2}$ -->
      <g transform="translate(48.96 223.086171) scale(0.11 -0.11)">
       <use xlink:href="#DejaVuSans-32" transform="translate(0 0.78125)"/>
      </g>
     </g>
    </g>
    <g id="ytick_4">
     <g id="line2d_21">
      <path d="M 63 169.768577 
L 453.6 169.768577 
" clip-path="url(#p56d310538f)" style="fill: none; stroke: #b0b0b0; stroke-width: 0.8; stroke-linecap: square"/>
     </g>
     <g id="line2d_22">
      <g>
       <use xlink:href="#m8b6f55e9e9" x="63" y="169.768577" style="stroke: #000000; stroke-width: 0.8"/>
      </g>
     </g>
     <g id="text_12">
      <!-- $\mathdefault{3}$ -->
      <g transform="translate(48.96 173.947718) scale(0.11 -0.11)">
       <use xlink:href="#DejaVuSans-33" transform="translate(0 0.78125)"/>
      </g>
     </g>
    </g>
    <g id="ytick_5">
     <g id="line2d_23">
      <path d="M 63 120.630124 
L 453.6 120.630124 
" clip-path="url(#p56d310538f)" style="fill: none; stroke: #b0b0b0; stroke-width: 0.8; stroke-linecap: square"/>
     </g>
     <g id="line2d_24">
      <g>
       <use xlink:href="#m8b6f55e9e9" x="63" y="120.630124" style="stroke: #000000; stroke-width: 0.8"/>
      </g>
     </g>
     <g id="text_13">
      <!-- $\mathdefault{4}$ -->
      <g transform="translate(48.96 124.809265) scale(0.11 -0.11)">
       <use xlink:href="#DejaVuSans-34" transform="translate(0 0.09375)"/>
      </g>
     </g>
    </g>
    <g id="ytick_6">
     <g id="line2d_25">
      <path d="M 63 71.491671 
L 453.6 71.491671 
" clip-path="url(#p56d310538f)" style="fill: none; stroke: #b0b0b0; stroke-width: 0.8; stroke-linecap: square"/>
     </g>
     <g id="line2d_26">
      <g>
       <use xlink:href="#m8b6f55e9e9" x="63" y="71.491671" style="stroke: #000000; stroke-width: 0.8"/>
      </g>
     </g>
     <g id="text_14">
      <!-- $\mathdefault{5}$ -->
      <g transform="translate(48.96 75.670811) scale(0.11 -0.11)">
       <use xlink:href="#DejaVuSans-35" transform="translate(0 0.09375)"/>
      </g>
     </g>
    </g>
    <g id="text_15">
     <!-- Coincidence probability -->
     <g transform="translate(42.880312 240.557031) rotate(-90) scale(0.1 -0.1)">
      <defs>
       <path id="DejaVuSans-43" d="M 4122 4306 
L 4122 3641 
Q 3803 3938 3442 4084 
Q 3081 4231 2675 4231 
Q 1875 4231 1450 3742 
Q 1025 3253 1025 2328 
Q 1025 1406 1450 917 
Q 1875 428 2675 428 
Q 3081 428 3442 575 
Q 3803 722 4122 1019 
L 4122 359 
Q 3791 134 3420 21 
Q 3050 -91 2638 -91 
Q 1578 -91 968 557 
Q 359 1206 359 2328 
Q 359 3453 968 4101 
Q 1578 4750 2638 4750 
Q 3056 4750 3426 4639 
Q 3797 4528 4122 4306 
z
" transform="scale(0.015625)"/>
       <path id="DejaVuSans-6f" d="M 1959 3097 
Q 1497 3097 1228 2736 
Q 959 2375 959 1747 
Q 959 1119 1226 758 
Q 1494 397 1959 397 
Q 2419 397 2687 759 
Q 2956 1122 2956 1747 
Q 2956 2369 2687 2733 
Q 2419 3097 1959 3097 
z
M 1959 3584 
Q 2709 3584 3137 3096 
Q 3566 2609 3566 1747 
Q 3566 888 3137 398 
Q 2709 -91 1959 -91 
Q 1206 -91 779 398 
Q 353 888 353 1747 
Q 353 2609 779 3096 
Q 1206 3584 1959 3584 
z
" transform="scale(0.015625)"/>
       <path id="DejaVuSans-63" d="M 3122 3366 
L 3122 2828 
Q 2878 2963 2633 3030 
Q 2388 3097 2138 3097 
Q 1578 3097 1268 2742 
Q 959 2388 959 1747 
Q 959 1106 1268 751 
Q 1578 397 2138 397 
Q 2388 397 2633 464 
Q 2878 531 3122 666 
L 3122 134 
Q 2881 22 2623 -34 
Q 2366 -91 2075 -91 
Q 1284 -91 818 406 
Q 353 903 353 1747 
Q 353 2603 823 3093 
Q 1294 3584 2113 3584 
Q 2378 3584 2631 3529 
Q 2884 3475 3122 3366 
z
" transform="scale(0.015625)"/>
       <path id="DejaVuSans-65" d="M 3597 1894 
L 3597 1613 
L 953 1613 
Q 991 1019 1311 708 
Q 1631 397 2203 397 
Q 2534 397 2845 478 
Q 3156 559 3463 722 
L 3463 178 
Q 3153 47 2828 -22 
Q 2503 -91 2169 -91 
Q 1331 -91 842 396 
Q 353 884 353 1716 
Q 353 2575 817 3079 
Q 1281 3584 2069 3584 
Q 2775 3584 3186 3129 
Q 3597 2675 3597 1894 
z
M 3022 2063 
Q 3016 2534 2758 2815 
Q 2500 3097 2075 3097 
Q 1594 3097 1305 2825 
Q 1016 2553 972 2059 
L 3022 2063 
z
" transform="scale(0.015625)"/>
       <path id="DejaVuSans-70" d="M 1159 525 
L 1159 -1331 
L 581 -1331 
L 581 3500 
L 1159 3500 
L 1159 2969 
Q 1341 3281 1617 3432 
Q 1894 3584 2278 3584 
Q 2916 3584 3314 3078 
Q 3713 2572 3713 1747 
Q 3713 922 3314 415 
Q 2916 -91 2278 -91 
Q 1894 -91 1617 61 
Q 1341 213 1159 525 
z
M 3116 1747 
Q 3116 2381 2855 2742 
Q 2594 3103 2138 3103 
Q 1681 3103 1420 2742 
Q 1159 2381 1159 1747 
Q 1159 1113 1420 752 
Q 1681 391 2138 391 
Q 2594 391 2855 752 
Q 3116 1113 3116 1747 
z
" transform="scale(0.015625)"/>
       <path id="DejaVuSans-72" d="M 2631 2963 
Q 2534 3019 2420 3045 
Q 2306 3072 2169 3072 
Q 1681 3072 1420 2755 
Q 1159 2438 1159 1844 
L 1159 0 
L 581 0 
L 581 3500 
L 1159 3500 
L 1159 2956 
Q 1341 3275 1631 3429 
Q 1922 3584 2338 3584 
Q 2397 3584 2469 3576 
Q 2541 3569 2628 3553 
L 2631 2963 
z
" transform="scale(0.015625)"/>
       <path id="DejaVuSans-62" d="M 3116 1747 
Q 3116 2381 2855 2742 
Q 2594 3103 2138 3103 
Q 1681 3103 1420 2742 
Q 1159 2381 1159 1747 
Q 1159 1113 1420 752 
Q 1681 391 2138 391 
Q 2594 391 2855 752 
Q 3116 1113 3116 1747 
z
M 1159 2969 
Q 1341 3281 1617 3432 
Q 1894 3584 2278 3584 
Q 2916 3584 3314 3078 
Q 3713 2572 3713 1747 
Q 3713 922 3314 415 
Q 2916 -91 2278 -91 
Q 1894 -91 1617 61 
Q 1341 213 1159 525 
L 1159 0 
L 581 0 
L 581 4863 
L 1159 4863 
L 1159 2969 
z
" transform="scale(0.015625)"/>
       <path id="DejaVuSans-6c" d="M 603 4863 
L 1178 4863 
L 1178 0 
L 603 0 
L 603 4863 
z
" transform="scale(0.015625)"/>
       <path id="DejaVuSans-74" d="M 1172 4494 
L 1172 3500 
L 2356 3500 
L 2356 3053 
L 1172 3053 
L 1172 1153 
Q 1172 725 1289 603 
Q 1406 481 1766 481 
L 2356 481 
L 2356 0 
L 1766 0 
Q 1100 0 847 248 
Q 594 497 594 1153 
L 594 3053 
L 172 3053 
L 172 3500 
L 594 3500 
L 594 4494 
L 1172 4494 
z
" transform="scale(0.015625)"/>
       <path id="DejaVuSans-79" d="M 2059 -325 
Q 1816 -950 1584 -1140 
Q 1353 -1331 966 -1331 
L 506 -1331 
L 506 -850 
L 844 -850 
Q 1081 -850 1212 -737 
Q 1344 -625 1503 -206 
L 1606 56 
L 191 3500 
L 800 3500 
L 1894 763 
L 2988 3500 
L 3597 3500 
L 2059 -325 
z
" transform="scale(0.015625)"/>
      </defs>
      <use xlink:href="#DejaVuSans-43"/>
      <use xlink:href="#DejaVuSans-6f" x="69.824219"/>
      <use xlink:href="#DejaVuSans-69" x="131.005859"/>
      <use xlink:href="#DejaVuSans-6e" x="158.789062"/>
      <use xlink:href="#DejaVuSans-63" x="222.167969"/>
      <use xlink:href="#DejaVuSans-69" x="277.148438"/>
      <use xlink:href="#DejaVuSans-64" x="304.931641"/>
      <use xlink:href="#DejaVuSans-65" x="368.408203"/>
      <use xlink:href="#DejaVuSans-6e" x="429.931641"/>
      <use xlink:href="#DejaVuSans-63" x="493.310547"/>
      <use xlink:href="#DejaVuSans-65" x="548.291016"/>
      <use xlink:href="#DejaVuSans-20" x="609.814453"/>
      <use xlink:href="#DejaVuSans-70" x="641.601562"/>
      <use xlink:href="#DejaVuSans-72" x="705.078125"/>
      <use xlink:href="#DejaVuSans-6f" x="743.941406"/>
      <use xlink:href="#DejaVuSans-62" x="805.123047"/>
      <use xlink:href="#DejaVuSans-61" x="868.599609"/>
      <use xlink:href="#DejaVuSans-62" x="929.878906"/>
      <use xlink:href="#DejaVuSans-69" x="993.355469"/>
      <use xlink:href="#DejaVuSans-6c" x="1021.138672"/>
      <use xlink:href="#DejaVuSans-69" x="1048.921875"/>
      <use xlink:href="#DejaVuSans-74" x="1076.705078"/>
      <use xlink:href="#DejaVuSans-79" x="1115.914062"/>
     </g>
    </g>
    <g id="text_16">
     <!-- $\times\mathdefault{10^{−3}}\mathdefault{}$ -->
     <g transform="translate(63 40.2) scale(0.11 -0.11)">
      <defs>
       <path id="DejaVuSans-d7" d="M 4488 3438 
L 3059 2003 
L 4488 575 
L 4116 197 
L 2681 1631 
L 1247 197 
L 878 575 
L 2303 2003 
L 878 3438 
L 1247 3816 
L 2681 2381 
L 4116 3816 
L 4488 3438 
z
" transform="scale(0.015625)"/>
       <path id="DejaVuSans-2212" d="M 678 2272 
L 4684 2272 
L 4684 1741 
L 678 1741 
L 678 2272 
z
" transform="scale(0.015625)"/>
      </defs>
      <use xlink:href="#DejaVuSans-d7" transform="translate(0 0.765625)"/>
      <use xlink:href="#DejaVuSans-31" transform="translate(83.789062 0.765625)"/>
      <use xlink:href="#DejaVuSans-30" transform="translate(147.412109 0.765625)"/>
      <use xlink:href="#DejaVuSans-2212" transform="translate(211.992188 39.046875) scale(0.7)"/>
      <use xlink:href="#DejaVuSans-33" transform="translate(270.644531 39.046875) scale(0.7)"/>
     </g>
    </g>
   </g>
   <g id="line2d_27">
    <path d="M 80.754545 307.8 
L 89.859441 306.115628 
L 98.964336 301.139754 
L 108.069231 293.098082 
L 117.174126 282.348205 
L 126.279021 269.353588 
L 135.383916 254.651144 
L 144.488811 238.815557 
L 153.593706 222.423787 
L 162.698601 206.022957 
L 171.803497 190.104218 
L 180.908392 175.084343 
L 190.013287 161.295866 
L 199.118182 148.985589 
L 208.223077 138.32047 
L 217.327972 129.399268 
L 226.432867 122.267916 
L 235.537762 116.936455 
L 244.642657 113.395444 
L 253.747552 111.629999 
L 262.852448 111.629999 
L 271.957343 113.395444 
L 281.062238 116.936455 
L 290.167133 122.267916 
L 299.272028 129.399268 
L 308.376923 138.32047 
L 317.481818 148.985589 
L 326.586713 161.295866 
L 335.691608 175.084343 
L 344.796503 190.104218 
L 353.901399 206.022957 
L 363.006294 222.423787 
L 372.111189 238.815557 
L 381.216084 254.651144 
L 390.320979 269.353588 
L 399.425874 282.348205 
L 408.530769 293.098082 
L 417.635664 301.139754 
L 426.740559 306.115644 
L 435.845455 307.8 
" clip-path="url(#p56d310538f)" style="fill: none; stroke: #1f77b4; stroke-width: 1.5; stroke-linecap: square"/>
   </g>
   <g id="line2d_28">
    <path d="M 80.754545 304.532233 
L 89.859441 307.227172 
L 98.964336 306.580796 
L 108.069231 302.706787 
L 117.174126 295.855001 
L 126.279021 286.388278 
L 135.383916 274.752635 
L 144.488811 261.443886 
L 153.593706 246.974109 
L 162.698601 231.841086 
L 171.803497 216.503329 
L 180.908392 201.362425 
L 190.013287 186.753532 
L 199.118182 172.943848 
L 208.223077 160.138077 
L 217.327972 148.489257 
L 226.432867 138.112916 
L 235.537762 129.102393 
L 244.642657 121.543225 
L 253.747552 115.5248 
L 262.852448 111.147839 
L 271.957343 108.526784 
L 281.062238 107.786656 
L 290.167133 109.054513 
L 299.272028 112.446135 
L 308.376923 118.049064 
L 317.481818 125.903575 
L 326.586713 135.983494 
L 335.691608 148.179018 
L 344.796503 162.283725 
L 353.901399 177.987805 
L 363.006294 194.879125 
L 372.111189 212.453111 
L 381.216084 230.131572 
L 390.320979 247.289651 
L 399.425874 263.289138 
L 408.530769 277.515522 
L 417.635664 289.415586 
L 426.740559 298.532088 
L 435.845455 304.532233 
" clip-path="url(#p56d310538f)" style="fill: none; stroke: #ff7f0e; stroke-width: 1.5; stroke-linecap: square"/>
   </g>
   <g id="line2d_29">
    <path d="M 80.754545 295.018278 
L 89.859441 301.936909 
L 98.964336 305.591933 
L 108.069231 305.985681 
L 117.174126 303.257526 
L 126.279021 297.663806 
L 135.383916 289.550838 
L 144.488811 279.324145 
L 153.593706 267.417171 
L 162.698601 254.262592 
L 171.803497 240.268787 
L 180.908392 225.803241 
L 190.013287 211.183709 
L 199.118182 196.677026 
L 208.223077 182.504601 
L 217.327972 168.852967 
L 226.432867 155.887345 
L 235.537762 143.766021 
L 244.642657 132.653418 
L 253.747552 122.729989 
L 262.852448 114.197529 
L 271.957343 107.278958 
L 281.062238 102.212242 
L 290.167133 99.238646 
L 299.272028 98.586105 
L 308.376923 100.44899 
L 317.481818 104.965992 
L 326.586713 112.198185 
L 335.691608 122.109519 
L 344.796503 134.551997 
L 353.901399 149.257596 
L 363.006294 165.838517 
L 372.111189 183.796717 
L 381.216084 202.542792 
L 390.320979 221.423374 
L 399.425874 239.755214 
L 408.530769 256.863342 
L 417.635664 272.1201 
L 426.740559 284.981594 
L 435.845455 295.018278 
" clip-path="url(#p56d310538f)" style="fill: none; stroke: #2ca02c; stroke-width: 1.5; stroke-linecap: square"/>
   </g>
   <g id="line2d_30">
    <path d="M 80.754545 280.083624 
L 89.859441 290.859032 
L 98.964336 298.572127 
L 108.069231 303.120054 
L 117.174126 304.534388 
L 126.279021 302.964289 
L 135.383916 298.652432 
L 144.488811 291.906999 
L 153.593706 283.072875 
L 162.698601 272.505054 
L 171.803497 260.546807 
L 180.908392 247.514397 
L 190.013287 233.689216 
L 199.118182 219.317279 
L 208.223077 204.615181 
L 217.327972 189.78088 
L 226.432867 175.007285 
L 235.537762 160.49637 
L 244.642657 146.471633 
L 253.747552 133.186946 
L 262.852448 120.930313 
L 271.957343 110.021581 
L 281.062238 100.803763 
L 290.167133 93.628284 
L 299.272028 88.835041 
L 308.376923 86.728747 
L 317.481818 87.553465 
L 326.586713 91.467561 
L 335.691608 98.521494 
L 344.796503 108.640769 
L 353.901399 121.616156 
L 363.006294 137.102761 
L 372.111189 154.628834 
L 381.216084 173.614329 
L 390.320979 193.398313 
L 399.425874 213.273357 
L 408.530769 232.524283 
L 417.635664 250.468081 
L 426.740559 266.491581 
L 435.845455 280.083624 
" clip-path="url(#p56d310538f)" style="fill: none; stroke: #d62728; stroke-width: 1.5; stroke-linecap: square"/>
   </g>
   <g id="line2d_31">
    <path d="M 80.754545 260.974436 
L 89.859441 275.046919 
L 98.964336 286.371766 
L 108.069231 294.752265 
L 117.174126 300.120155 
L 126.279021 302.521975 
L 135.383916 302.097846 
L 144.488811 299.056295 
L 153.593706 293.648025 
L 162.698601 286.141578 
L 171.803497 276.803382 
L 180.908392 265.883995 
L 190.013287 253.611476 
L 199.118182 240.191892 
L 208.223077 225.816118 
L 217.327972 210.671351 
L 226.432867 194.955277 
L 235.537762 178.890573 
L 244.642657 162.737439 
L 253.747552 146.802113 
L 262.852448 131.439753 
L 271.957343 117.050666 
L 281.062238 104.069545 
L 290.167133 92.948048 
L 299.272028 84.131779 
L 308.376923 78.03328 
L 317.481818 75.00317 
L 326.586713 75.301861 
L 335.691608 79.074422 
L 344.796503 86.331049 
L 353.901399 96.935295 
L 363.006294 110.60163 
L 372.111189 126.90316 
L 381.216084 145.289472 
L 390.320979 165.113585 
L 399.425874 185.666137 
L 408.530769 206.214155 
L 417.635664 226.041241 
L 426.740559 244.48585 
L 435.845455 260.974436 
" clip-path="url(#p56d310538f)" style="fill: none; stroke: #9467bd; stroke-width: 1.5; stroke-linecap: square"/>
   </g>
   <g id="line2d_32">
    <path d="M 80.754545 239.189502 
L 89.859441 255.834688 
L 98.964336 270.144772 
L 108.069231 281.845079 
L 117.174126 290.780324 
L 126.279021 296.903934 
L 135.383916 300.259517 
L 144.488811 300.958431 
L 153.593706 299.156125 
L 162.698601 295.030113 
L 171.803497 288.76201 
L 180.908392 280.525473 
L 190.013287 270.481016 
L 199.118182 258.777815 
L 208.223077 245.561701 
L 217.327972 230.987838 
L 226.432867 215.235977 
L 235.537762 198.52593 
L 244.642657 181.130818 
L 253.747552 163.385915 
L 262.852448 145.691332 
L 271.957343 128.507415 
L 281.062238 112.342463 
L 290.167133 97.733164 
L 299.272028 85.218879 
L 308.376923 75.311584 
L 317.481818 68.463798 
L 326.586713 65.037133 
L 335.691608 65.274232 
L 344.796503 69.276654 
L 353.901399 76.990941 
L 363.006294 88.204409 
L 372.111189 102.551467 
L 381.216084 119.530331 
L 390.320979 138.529054 
L 399.425874 158.858961 
L 408.530769 179.792825 
L 417.635664 200.604696 
L 426.740559 220.608096 
L 435.845455 239.189502 
" clip-path="url(#p56d310538f)" style="fill: none; stroke: #8c564b; stroke-width: 1.5; stroke-linecap: square"/>
   </g>
   <g id="line2d_33">
    <path d="M 80.754545 216.293272 
L 89.859441 234.658318 
L 98.964336 251.17862 
L 108.069231 265.521217 
L 117.174126 277.460798 
L 126.279021 286.871657 
L 135.383916 293.711558 
L 144.488811 298.001833 
L 153.593706 299.806184 
L 162.698601 299.210912 
L 171.803497 296.308972 
L 180.908392 291.18969 
L 190.013287 283.935195 
L 199.118182 274.623732 
L 208.223077 263.339165 
L 217.327972 250.185172 
L 226.432867 235.302047 
L 235.537762 218.883643 
L 244.642657 201.191917 
L 253.747552 182.566718 
L 262.852448 163.428914 
L 271.957343 144.275606 
L 281.062238 125.666977 
L 290.167133 108.205165 
L 299.272028 92.506407 
L 308.376923 79.1684 
L 317.481818 68.735398 
L 326.586713 61.663901 
L 335.691608 58.291831 
L 344.796503 58.813926 
L 353.901399 63.265595 
L 363.006294 71.516807 
L 372.111189 83.276744 
L 381.216084 98.109017 
L 390.320979 115.456314 
L 399.425874 134.672536 
L 408.530769 155.059764 
L 417.635664 175.907058 
L 426.740559 196.527891 
L 435.845455 216.293272 
" clip-path="url(#p56d310538f)" style="fill: none; stroke: #e377c2; stroke-width: 1.5; stroke-linecap: square"/>
   </g>
   <g id="line2d_34">
    <path d="M 80.754545 193.74315 
L 89.859441 212.889119 
L 98.964336 230.734908 
L 108.069231 246.911773 
L 117.174126 261.144749 
L 126.279021 273.246767 
L 135.383916 283.104513 
L 144.488811 290.66075 
L 153.593706 295.895341 
L 162.698601 298.807578 
L 171.803497 299.402185 
L 180.908392 297.680822 
L 190.013287 293.640205 
L 199.118182 287.2771 
L 208.223077 278.599554 
L 217.327972 267.642921 
L 226.432867 254.488573 
L 235.537762 239.282758 
L 244.642657 222.252929 
L 253.747552 203.719028 
L 262.852448 184.097657 
L 271.957343 163.897739 
L 281.062238 143.707138 
L 290.167133 124.170646 
L 299.272028 105.960608 
L 308.376923 89.742313 
L 317.481818 76.136806 
L 326.586713 65.684161 
L 335.691608 58.810276 
L 344.796503 55.8 
L 353.901399 56.778894 
L 363.006294 61.705187 
L 372.111189 70.372598 
L 381.216084 82.423764 
L 390.320979 97.373103 
L 399.425874 114.637116 
L 408.530769 133.56958 
L 417.635664 153.498645 
L 426.740559 173.762842 
L 435.845455 193.74315 
" clip-path="url(#p56d310538f)" style="fill: none; stroke: #7f7f7f; stroke-width: 1.5; stroke-linecap: square"/>
   </g>
   <g id="line2d_35">
    <path d="M 80.754545 172.758771 
L 89.859441 191.707105 
L 98.964336 209.927725 
L 108.069231 227.040398 
L 117.174126 242.743297 
L 126.279021 256.808723 
L 135.383916 269.07048 
L 144.488811 279.408001 
L 153.593706 287.729259 
L 162.698601 293.954942 
L 171.803497 298.006232 
L 180.908392 299.798015 
L 190.013287 299.238686 
L 199.118182 296.236903 
L 208.223077 290.714695 
L 217.327972 282.625544 
L 226.432867 271.975289 
L 235.537762 258.843253 
L 244.642657 243.400776 
L 253.747552 225.924475 
L 262.852448 206.801993 
L 271.957343 186.528704 
L 281.062238 165.694757 
L 290.167133 144.962832 
L 299.272028 125.037959 
L 308.376923 106.631604 
L 317.481818 90.422847 
L 326.586713 77.019826 
L 335.691608 66.924627 
L 344.796503 60.504529 
L 353.901399 57.971911 
L 363.006294 59.374369 
L 372.111189 64.595663 
L 381.216084 73.36717 
L 390.320979 85.288625 
L 399.425874 99.856196 
L 408.530769 116.495343 
L 417.635664 134.595656 
L 426.740559 153.544779 
L 435.845455 172.758771 
" clip-path="url(#p56d310538f)" style="fill: none; stroke: #bcbd22; stroke-width: 1.5; stroke-linecap: square"/>
   </g>
   <g id="line2d_36">
    <path d="M 80.754545 154.249659 
L 89.859441 172.030578 
L 98.964336 189.656127 
L 108.069231 206.759538 
L 117.174126 223.036306 
L 126.279021 238.240884 
L 135.383916 252.175009 
L 144.488811 264.673144 
L 153.593706 275.586841 
L 162.698601 284.770429 
L 171.803497 292.070305 
L 180.908392 297.319675 
L 190.013287 300.339965 
L 199.118182 300.949309 
L 208.223077 298.97761 
L 217.327972 294.286796 
L 226.432867 286.79412 
L 235.537762 276.495816 
L 244.642657 263.488163 
L 253.747552 247.983126 
L 262.852448 230.316153 
L 271.957343 210.944476 
L 281.062238 190.435187 
L 290.167133 169.443436 
L 299.272028 148.682139 
L 308.376923 128.885477 
L 317.481818 110.769136 
L 326.586713 94.990562 
L 335.691608 82.112529 
L 344.796503 72.572952 
L 353.901399 66.663299 
L 363.006294 64.517074 
L 372.111189 66.108962 
L 381.216084 71.264244 
L 390.320979 79.677243 
L 399.425874 90.936842 
L 408.530769 104.556638 
L 417.635664 120.007021 
L 426.740559 136.746483 
L 435.845455 154.249659 
" clip-path="url(#p56d310538f)" style="fill: none; stroke: #17becf; stroke-width: 1.5; stroke-linecap: square"/>
   </g>
   <g id="line2d_37">
    <path d="M 80.754545 138.804293 
L 89.859441 154.504956 
L 98.964336 170.593801 
L 108.069231 186.741987 
L 117.174126 202.666825 
L 126.279021 218.128738 
L 135.383916 232.919937 
L 144.488811 246.850607 
L 153.593706 259.734218 
L 162.698601 271.374309 
L 171.803497 281.554952 
L 180.908392 290.036775 
L 190.013287 296.559805 
L 199.118182 300.853596 
L 208.223077 302.654204 
L 217.327972 301.726653 
L 226.432867 297.890718 
L 235.537762 291.047275 
L 244.642657 281.202119 
L 253.747552 268.484299 
L 262.852448 253.156368 
L 271.957343 235.614752 
L 281.062238 216.379426 
L 290.167133 196.073193 
L 299.272028 175.391961 
L 308.376923 155.068368 
L 317.481818 135.831775 
L 326.586713 118.368005 
L 335.691608 103.282187 
L 344.796503 91.067658 
L 353.901399 82.083284 
L 363.006294 76.540617 
L 372.111189 74.501424 
L 381.216084 75.885139 
L 390.320979 80.484965 
L 399.425874 87.990719 
L 408.530769 98.016024 
L 417.635664 110.127317 
L 426.740559 123.87212 
L 435.845455 138.804293 
" clip-path="url(#p56d310538f)" style="fill: none; stroke: #1f77b4; stroke-width: 1.5; stroke-linecap: square"/>
   </g>
   <g id="line2d_38">
    <path d="M 80.754545 126.731496 
L 89.859441 139.541703 
L 98.964336 153.226865 
L 108.069231 167.518868 
L 117.174126 182.180497 
L 126.279021 197.001941 
L 135.383916 211.789165 
L 144.488811 226.350201 
L 153.593706 240.480863 
L 162.698601 253.952126 
L 171.803497 266.501375 
L 180.908392 277.829392 
L 190.013287 287.604382 
L 199.118182 295.473568 
L 208.223077 301.081956 
L 217.327972 304.096938 
L 226.432867 304.236551 
L 235.537762 301.298548 
L 244.642657 295.187107 
L 253.747552 285.93405 
L 262.852448 273.711846 
L 271.957343 258.836461 
L 281.062238 241.75912 
L 290.167133 223.047254 
L 299.272028 203.355979 
L 308.376923 183.392524 
L 317.481818 163.876655 
L 326.586713 145.500543 
L 335.691608 128.891475 
L 344.796503 114.580377 
L 353.901399 102.978486 
L 363.006294 94.363543 
L 372.111189 88.875988 
L 381.216084 86.524638 
L 390.320979 87.200583 
L 399.425874 90.697378 
L 408.530769 96.735244 
L 417.635664 104.98686 
L 426.740559 115.102369 
L 435.845455 126.731496 
" clip-path="url(#p56d310538f)" style="fill: none; stroke: #ff7f0e; stroke-width: 1.5; stroke-linecap: square"/>
   </g>
   <g id="line2d_39">
    <path d="M 80.754545 118.13641 
L 89.859441 127.389676 
L 98.964336 137.922136 
L 108.069231 149.546381 
L 117.174126 162.092348 
L 126.279021 175.402644 
L 135.383916 189.319925 
L 144.488811 203.672645 
L 153.593706 218.26055 
L 162.698601 232.842136 
L 171.803497 247.126225 
L 180.908392 260.769548 
L 190.013287 273.381661 
L 199.118182 284.537757 
L 208.223077 293.799021 
L 217.327972 300.739209 
L 226.432867 304.975245 
L 235.537762 306.19895 
L 244.642657 304.206626 
L 253.747552 298.923248 
L 262.852448 290.418397 
L 271.957343 278.911883 
L 281.062238 264.768011 
L 290.167133 248.478676 
L 299.272028 230.636648 
L 308.376923 211.901393 
L 317.481818 192.960567 
L 326.586713 174.490618 
L 335.691608 157.119921 
L 344.796503 141.397438 
L 353.901399 127.769182 
L 363.006294 116.563847 
L 372.111189 107.987998 
L 381.216084 102.130301 
L 390.320979 98.973451 
L 399.425874 98.411935 
L 408.530769 100.273395 
L 417.635664 104.341273 
L 426.740559 110.376515 
L 435.845455 118.13641 
" clip-path="url(#p56d310538f)" style="fill: none; stroke: #2ca02c; stroke-width: 1.5; stroke-linecap: square"/>
   </g>
   <g id="line2d_40">
    <path d="M 80.754545 113.009505 
L 89.859441 118.217349 
L 98.964336 125.004245 
L 108.069231 133.279572 
L 117.174126 142.958983 
L 126.279021 153.95785 
L 135.383916 166.176989 
L 144.488811 179.48719 
L 153.593706 193.713871 
L 162.698601 208.624032 
L 171.803497 223.917698 
L 180.908392 239.225679 
L 190.013287 254.115042 
L 199.118182 268.10284 
L 208.223077 280.677786 
L 217.327972 291.328563 
L 226.432867 299.576532 
L 235.537762 305.009927 
L 244.642657 307.316173 
L 253.747552 306.308993 
L 262.852448 301.947329 
L 271.957343 294.343894 
L 281.062238 283.762233 
L 290.167133 270.602381 
L 299.272028 255.376405 
L 308.376923 238.676195 
L 317.481818 221.136563 
L 326.586713 203.397133 
L 335.691608 186.066425 
L 344.796503 169.691112 
L 353.901399 154.732714 
L 363.006294 141.553062 
L 372.111189 130.408873 
L 381.216084 121.45489 
L 390.320979 114.754233 
L 399.425874 110.294086 
L 408.530769 108.004553 
L 417.635664 107.778425 
L 426.740559 109.489766 
L 435.845455 113.009505 
" clip-path="url(#p56d310538f)" style="fill: none; stroke: #d62728; stroke-width: 1.5; stroke-linecap: square"/>
   </g>
   <g id="line2d_41">
    <path d="M 80.754545 111.307549 
L 89.859441 112.185047 
L 98.964336 114.820722 
L 108.069231 119.232004 
L 117.174126 125.434657 
L 126.279021 133.433737 
L 135.383916 143.207057 
L 144.488811 154.687849 
L 153.593706 167.747952 
L 162.698601 182.183715 
L 171.803497 197.706781 
L 180.908392 213.941627 
L 190.013287 230.431192 
L 199.118182 246.651205 
L 208.223077 262.032852 
L 217.327972 275.992493 
L 226.432867 287.966169 
L 235.537762 297.445958 
L 244.642657 304.014768 
L 253.747552 307.37616 
L 262.852448 307.37616 
L 271.957343 304.014768 
L 281.062238 297.445958 
L 290.167133 287.966169 
L 299.272028 275.992493 
L 308.376923 262.032852 
L 317.481818 246.651205 
L 326.586713 230.431192 
L 335.691608 213.941627 
L 344.796503 197.706781 
L 353.901399 182.183715 
L 363.006294 167.747952 
L 372.111189 154.687849 
L 381.216084 143.207057 
L 390.320979 133.433737 
L 399.425874 125.434657 
L 408.530769 119.232004 
L 417.635664 114.820722 
L 426.740559 112.184336 
L 435.845455 111.307549 
" clip-path="url(#p56d310538f)" style="fill: none; stroke: #9467bd; stroke-width: 1.5; stroke-linecap: square"/>
   </g>
   <g id="patch_3">
    <path d="M 63 320.4 
L 63 43.2 
" style="fill: none; stroke: #000000; stroke-width: 0.8; stroke-linejoin: miter; stroke-linecap: square"/>
   </g>
   <g id="patch_4">
    <path d="M 453.6 320.4 
L 453.6 43.2 
" style="fill: none; stroke: #000000; stroke-width: 0.8; stroke-linejoin: miter; stroke-linecap: square"/>
   </g>
   <g id="patch_5">
    <path d="M 63 320.4 
L 453.6 320.4 
" style="fill: none; stroke: #000000; stroke-width: 0.8; stroke-linejoin: miter; stroke-linecap: square"/>
   </g>
   <g id="patch_6">
    <path d="M 63 43.2 
L 453.6 43.2 
" style="fill: none; stroke: #000000; stroke-width: 0.8; stroke-linejoin: miter; stroke-linecap: square"/>
   </g>
   <g id="text_17">
    <!-- Swapping entanglement fringes - Threshold det. -->
    <g transform="translate(113.12625 37.2) scale(0.12 -0.12)">
     <defs>
      <path id="DejaVuSans-53" d="M 3425 4513 
L 3425 3897 
Q 3066 4069 2747 4153 
Q 2428 4238 2131 4238 
Q 1616 4238 1336 4038 
Q 1056 3838 1056 3469 
Q 1056 3159 1242 3001 
Q 1428 2844 1947 2747 
L 2328 2669 
Q 3034 2534 3370 2195 
Q 3706 1856 3706 1288 
Q 3706 609 3251 259 
Q 2797 -91 1919 -91 
Q 1588 -91 1214 -16 
Q 841 59 441 206 
L 441 856 
Q 825 641 1194 531 
Q 1563 422 1919 422 
Q 2459 422 2753 634 
Q 3047 847 3047 1241 
Q 3047 1584 2836 1778 
Q 2625 1972 2144 2069 
L 1759 2144 
Q 1053 2284 737 2584 
Q 422 2884 422 3419 
Q 422 4038 858 4394 
Q 1294 4750 2059 4750 
Q 2388 4750 2728 4690 
Q 3069 4631 3425 4513 
z
" transform="scale(0.015625)"/>
      <path id="DejaVuSans-77" d="M 269 3500 
L 844 3500 
L 1563 769 
L 2278 3500 
L 2956 3500 
L 3675 769 
L 4391 3500 
L 4966 3500 
L 4050 0 
L 3372 0 
L 2619 2869 
L 1863 0 
L 1184 0 
L 269 3500 
z
" transform="scale(0.015625)"/>
      <path id="DejaVuSans-67" d="M 2906 1791 
Q 2906 2416 2648 2759 
Q 2391 3103 1925 3103 
Q 1463 3103 1205 2759 
Q 947 2416 947 1791 
Q 947 1169 1205 825 
Q 1463 481 1925 481 
Q 2391 481 2648 825 
Q 2906 1169 2906 1791 
z
M 3481 434 
Q 3481 -459 3084 -895 
Q 2688 -1331 1869 -1331 
Q 1566 -1331 1297 -1286 
Q 1028 -1241 775 -1147 
L 775 -588 
Q 1028 -725 1275 -790 
Q 1522 -856 1778 -856 
Q 2344 -856 2625 -561 
Q 2906 -266 2906 331 
L 2906 616 
Q 2728 306 2450 153 
Q 2172 0 1784 0 
Q 1141 0 747 490 
Q 353 981 353 1791 
Q 353 2603 747 3093 
Q 1141 3584 1784 3584 
Q 2172 3584 2450 3431 
Q 2728 3278 2906 2969 
L 2906 3500 
L 3481 3500 
L 3481 434 
z
" transform="scale(0.015625)"/>
      <path id="DejaVuSans-6d" d="M 3328 2828 
Q 3544 3216 3844 3400 
Q 4144 3584 4550 3584 
Q 5097 3584 5394 3201 
Q 5691 2819 5691 2113 
L 5691 0 
L 5113 0 
L 5113 2094 
Q 5113 2597 4934 2840 
Q 4756 3084 4391 3084 
Q 3944 3084 3684 2787 
Q 3425 2491 3425 1978 
L 3425 0 
L 2847 0 
L 2847 2094 
Q 2847 2600 2669 2842 
Q 2491 3084 2119 3084 
Q 1678 3084 1418 2786 
Q 1159 2488 1159 1978 
L 1159 0 
L 581 0 
L 581 3500 
L 1159 3500 
L 1159 2956 
Q 1356 3278 1631 3431 
Q 1906 3584 2284 3584 
Q 2666 3584 2933 3390 
Q 3200 3197 3328 2828 
z
" transform="scale(0.015625)"/>
      <path id="DejaVuSans-66" d="M 2375 4863 
L 2375 4384 
L 1825 4384 
Q 1516 4384 1395 4259 
Q 1275 4134 1275 3809 
L 1275 3500 
L 2222 3500 
L 2222 3053 
L 1275 3053 
L 1275 0 
L 697 0 
L 697 3053 
L 147 3053 
L 147 3500 
L 697 3500 
L 697 3744 
Q 697 4328 969 4595 
Q 1241 4863 1831 4863 
L 2375 4863 
z
" transform="scale(0.015625)"/>
      <path id="DejaVuSans-2d" d="M 313 2009 
L 1997 2009 
L 1997 1497 
L 313 1497 
L 313 2009 
z
" transform="scale(0.015625)"/>
      <path id="DejaVuSans-54" d="M -19 4666 
L 3928 4666 
L 3928 4134 
L 2272 4134 
L 2272 0 
L 1638 0 
L 1638 4134 
L -19 4134 
L -19 4666 
z
" transform="scale(0.015625)"/>
      <path id="DejaVuSans-68" d="M 3513 2113 
L 3513 0 
L 2938 0 
L 2938 2094 
Q 2938 2591 2744 2837 
Q 2550 3084 2163 3084 
Q 1697 3084 1428 2787 
Q 1159 2491 1159 1978 
L 1159 0 
L 581 0 
L 581 4863 
L 1159 4863 
L 1159 2956 
Q 1366 3272 1645 3428 
Q 1925 3584 2291 3584 
Q 2894 3584 3203 3211 
Q 3513 2838 3513 2113 
z
" transform="scale(0.015625)"/>
      <path id="DejaVuSans-2e" d="M 684 794 
L 1344 794 
L 1344 0 
L 684 0 
L 684 794 
z
" transform="scale(0.015625)"/>
     </defs>
     <use xlink:href="#DejaVuSans-53"/>
     <use xlink:href="#DejaVuSans-77" x="63.476562"/>
     <use xlink:href="#DejaVuSans-61" x="145.263672"/>
     <use xlink:href="#DejaVuSans-70" x="206.542969"/>
     <use xlink:href="#DejaVuSans-70" x="270.019531"/>
     <use xlink:href="#DejaVuSans-69" x="333.496094"/>
     <use xlink:href="#DejaVuSans-6e" x="361.279297"/>
     <use xlink:href="#DejaVuSans-67" x="424.658203"/>
     <use xlink:href="#DejaVuSans-20" x="488.134766"/>
     <use xlink:href="#DejaVuSans-65" x="519.921875"/>
     <use xlink:href="#DejaVuSans-6e" x="581.445312"/>
     <use xlink:href="#DejaVuSans-74" x="644.824219"/>
     <use xlink:href="#DejaVuSans-61" x="684.033203"/>
     <use xlink:href="#DejaVuSans-6e" x="745.3125"/>
     <use xlink:href="#DejaVuSans-67" x="808.691406"/>
     <use xlink:href="#DejaVuSans-6c" x="872.167969"/>
     <use xlink:href="#DejaVuSans-65" x="899.951172"/>
     <use xlink:href="#DejaVuSans-6d" x="961.474609"/>
     <use xlink:href="#DejaVuSans-65" x="1058.886719"/>
     <use xlink:href="#DejaVuSans-6e" x="1120.410156"/>
     <use xlink:href="#DejaVuSans-74" x="1183.789062"/>
     <use xlink:href="#DejaVuSans-20" x="1222.998047"/>
     <use xlink:href="#DejaVuSans-66" x="1254.785156"/>
     <use xlink:href="#DejaVuSans-72" x="1289.990234"/>
     <use xlink:href="#DejaVuSans-69" x="1331.103516"/>
     <use xlink:href="#DejaVuSans-6e" x="1358.886719"/>
     <use xlink:href="#DejaVuSans-67" x="1422.265625"/>
     <use xlink:href="#DejaVuSans-65" x="1485.742188"/>
     <use xlink:href="#DejaVuSans-73" x="1547.265625"/>
     <use xlink:href="#DejaVuSans-20" x="1599.365234"/>
     <use xlink:href="#DejaVuSans-2d" x="1631.152344"/>
     <use xlink:href="#DejaVuSans-20" x="1667.236328"/>
     <use xlink:href="#DejaVuSans-54" x="1699.023438"/>
     <use xlink:href="#DejaVuSans-68" x="1760.107422"/>
     <use xlink:href="#DejaVuSans-72" x="1823.486328"/>
     <use xlink:href="#DejaVuSans-65" x="1862.349609"/>
     <use xlink:href="#DejaVuSans-73" x="1923.873047"/>
     <use xlink:href="#DejaVuSans-68" x="1975.972656"/>
     <use xlink:href="#DejaVuSans-6f" x="2039.351562"/>
     <use xlink:href="#DejaVuSans-6c" x="2100.533203"/>
     <use xlink:href="#DejaVuSans-64" x="2128.316406"/>
     <use xlink:href="#DejaVuSans-20" x="2191.792969"/>
     <use xlink:href="#DejaVuSans-64" x="2223.580078"/>
     <use xlink:href="#DejaVuSans-65" x="2287.056641"/>
     <use xlink:href="#DejaVuSans-74" x="2348.580078"/>
     <use xlink:href="#DejaVuSans-2e" x="2387.789062"/>
    </g>
   </g>
   <g id="legend_1">
    <g id="patch_7">
     <path d="M 70 286.05 
L 130.3 286.05 
Q 132.3 286.05 132.3 284.05 
L 132.3 50.2 
Q 132.3 48.2 130.3 48.2 
L 70 48.2 
Q 68 48.2 68 50.2 
L 68 284.05 
Q 68 286.05 70 286.05 
z
" style="fill: #f8f8f8; opacity: 0.8; stroke: #cccccc; stroke-linejoin: miter"/>
    </g>
    <g id="text_18">
     <!-- $\delta$ -->
     <g transform="translate(97.05 59.798437) scale(0.1 -0.1)">
      <defs>
       <path id="DejaVuSans-Oblique-3b4" d="M 3472 4053 
Q 3197 4272 2450 4272 
Q 1659 4272 1588 3906 
Q 1531 3619 2328 3469 
Q 2953 3353 3253 3003 
Q 3616 2581 3447 1716 
Q 3284 888 2763 400 
Q 2238 -91 1488 -91 
Q 741 -91 406 400 
Q 72 888 241 1747 
Q 363 2384 891 2900 
Q 1097 3100 1353 3213 
Q 913 3459 1000 3900 
Q 1166 4750 2544 4750 
Q 3234 4750 3566 4531 
L 3472 4053 
z
M 1753 3056 
Q 1525 2966 1306 2738 
Q 969 2384 847 1747 
Q 722 1113 919 756 
Q 1119 397 1584 397 
Q 2044 397 2381 759 
Q 2722 1122 2838 1716 
Q 2956 2338 2731 2638 
Q 2491 2959 2103 2994 
Q 1906 3013 1753 3056 
z
" transform="scale(0.015625)"/>
      </defs>
      <use xlink:href="#DejaVuSans-Oblique-3b4" transform="translate(0 0.78125)"/>
     </g>
    </g>
    <g id="line2d_42">
     <path d="M 72 70.976562 
L 82 70.976562 
L 92 70.976562 
" style="fill: none; stroke: #1f77b4; stroke-width: 1.5; stroke-linecap: square"/>
    </g>
    <g id="text_19">
     <!-- 0.00$\pi$ -->
     <g transform="translate(100 74.476562) scale(0.1 -0.1)">
      <defs>
       <path id="DejaVuSans-Oblique-3c0" d="M 584 3500 
L 3938 3500 
L 3825 2925 
L 3384 2925 
L 2966 775 
Q 2922 550 2981 450 
Q 3038 353 3209 353 
Q 3256 353 3325 363 
Q 3397 369 3419 372 
L 3338 -44 
Q 3222 -84 3103 -103 
Q 2981 -122 2866 -122 
Q 2491 -122 2388 81 
Q 2284 288 2391 838 
L 2797 2925 
L 1506 2925 
L 938 0 
L 350 0 
L 919 2925 
L 472 2925 
L 584 3500 
z
" transform="scale(0.015625)"/>
      </defs>
      <use xlink:href="#DejaVuSans-30" transform="translate(0 0.78125)"/>
      <use xlink:href="#DejaVuSans-2e" transform="translate(63.623047 0.78125)"/>
      <use xlink:href="#DejaVuSans-30" transform="translate(95.410156 0.78125)"/>
      <use xlink:href="#DejaVuSans-30" transform="translate(159.033203 0.78125)"/>
      <use xlink:href="#DejaVuSans-Oblique-3c0" transform="translate(222.65625 0.78125)"/>
     </g>
    </g>
    <g id="line2d_43">
     <path d="M 72 85.654688 
L 82 85.654688 
L 92 85.654688 
" style="fill: none; stroke: #ff7f0e; stroke-width: 1.5; stroke-linecap: square"/>
    </g>
    <g id="text_20">
     <!-- 0.07$\pi$ -->
     <g transform="translate(100 89.154688) scale(0.1 -0.1)">
      <defs>
       <path id="DejaVuSans-37" d="M 525 4666 
L 3525 4666 
L 3525 4397 
L 1831 0 
L 1172 0 
L 2766 4134 
L 525 4134 
L 525 4666 
z
" transform="scale(0.015625)"/>
      </defs>
      <use xlink:href="#DejaVuSans-30" transform="translate(0 0.78125)"/>
      <use xlink:href="#DejaVuSans-2e" transform="translate(63.623047 0.78125)"/>
      <use xlink:href="#DejaVuSans-30" transform="translate(95.410156 0.78125)"/>
      <use xlink:href="#DejaVuSans-37" transform="translate(159.033203 0.78125)"/>
      <use xlink:href="#DejaVuSans-Oblique-3c0" transform="translate(222.65625 0.78125)"/>
     </g>
    </g>
    <g id="line2d_44">
     <path d="M 72 100.332813 
L 82 100.332813 
L 92 100.332813 
" style="fill: none; stroke: #2ca02c; stroke-width: 1.5; stroke-linecap: square"/>
    </g>
    <g id="text_21">
     <!-- 0.14$\pi$ -->
     <g transform="translate(100 103.832813) scale(0.1 -0.1)">
      <use xlink:href="#DejaVuSans-30" transform="translate(0 0.78125)"/>
      <use xlink:href="#DejaVuSans-2e" transform="translate(63.623047 0.78125)"/>
      <use xlink:href="#DejaVuSans-31" transform="translate(95.410156 0.78125)"/>
      <use xlink:href="#DejaVuSans-34" transform="translate(159.033203 0.78125)"/>
      <use xlink:href="#DejaVuSans-Oblique-3c0" transform="translate(222.65625 0.78125)"/>
     </g>
    </g>
    <g id="line2d_45">
     <path d="M 72 115.010938 
L 82 115.010938 
L 92 115.010938 
" style="fill: none; stroke: #d62728; stroke-width: 1.5; stroke-linecap: square"/>
    </g>
    <g id="text_22">
     <!-- 0.21$\pi$ -->
     <g transform="translate(100 118.510938) scale(0.1 -0.1)">
      <use xlink:href="#DejaVuSans-30" transform="translate(0 0.78125)"/>
      <use xlink:href="#DejaVuSans-2e" transform="translate(63.623047 0.78125)"/>
      <use xlink:href="#DejaVuSans-32" transform="translate(89.910156 0.78125)"/>
      <use xlink:href="#DejaVuSans-31" transform="translate(153.533203 0.78125)"/>
      <use xlink:href="#DejaVuSans-Oblique-3c0" transform="translate(217.15625 0.78125)"/>
     </g>
    </g>
    <g id="line2d_46">
     <path d="M 72 129.689063 
L 82 129.689063 
L 92 129.689063 
" style="fill: none; stroke: #9467bd; stroke-width: 1.5; stroke-linecap: square"/>
    </g>
    <g id="text_23">
     <!-- 0.29$\pi$ -->
     <g transform="translate(100 133.189063) scale(0.1 -0.1)">
      <defs>
       <path id="DejaVuSans-39" d="M 703 97 
L 703 672 
Q 941 559 1184 500 
Q 1428 441 1663 441 
Q 2288 441 2617 861 
Q 2947 1281 2994 2138 
Q 2813 1869 2534 1725 
Q 2256 1581 1919 1581 
Q 1219 1581 811 2004 
Q 403 2428 403 3163 
Q 403 3881 828 4315 
Q 1253 4750 1959 4750 
Q 2769 4750 3195 4129 
Q 3622 3509 3622 2328 
Q 3622 1225 3098 567 
Q 2575 -91 1691 -91 
Q 1453 -91 1209 -44 
Q 966 3 703 97 
z
M 1959 2075 
Q 2384 2075 2632 2365 
Q 2881 2656 2881 3163 
Q 2881 3666 2632 3958 
Q 2384 4250 1959 4250 
Q 1534 4250 1286 3958 
Q 1038 3666 1038 3163 
Q 1038 2656 1286 2365 
Q 1534 2075 1959 2075 
z
" transform="scale(0.015625)"/>
      </defs>
      <use xlink:href="#DejaVuSans-30" transform="translate(0 0.78125)"/>
      <use xlink:href="#DejaVuSans-2e" transform="translate(63.623047 0.78125)"/>
      <use xlink:href="#DejaVuSans-32" transform="translate(89.910156 0.78125)"/>
      <use xlink:href="#DejaVuSans-39" transform="translate(151.783203 0.78125)"/>
      <use xlink:href="#DejaVuSans-Oblique-3c0" transform="translate(215.40625 0.78125)"/>
     </g>
    </g>
    <g id="line2d_47">
     <path d="M 72 144.367188 
L 82 144.367188 
L 92 144.367188 
" style="fill: none; stroke: #8c564b; stroke-width: 1.5; stroke-linecap: square"/>
    </g>
    <g id="text_24">
     <!-- 0.36$\pi$ -->
     <g transform="translate(100 147.867188) scale(0.1 -0.1)">
      <use xlink:href="#DejaVuSans-30" transform="translate(0 0.78125)"/>
      <use xlink:href="#DejaVuSans-2e" transform="translate(63.623047 0.78125)"/>
      <use xlink:href="#DejaVuSans-33" transform="translate(95.410156 0.78125)"/>
      <use xlink:href="#DejaVuSans-36" transform="translate(159.033203 0.78125)"/>
      <use xlink:href="#DejaVuSans-Oblique-3c0" transform="translate(222.65625 0.78125)"/>
     </g>
    </g>
    <g id="line2d_48">
     <path d="M 72 159.045313 
L 82 159.045313 
L 92 159.045313 
" style="fill: none; stroke: #e377c2; stroke-width: 1.5; stroke-linecap: square"/>
    </g>
    <g id="text_25">
     <!-- 0.43$\pi$ -->
     <g transform="translate(100 162.545313) scale(0.1 -0.1)">
      <use xlink:href="#DejaVuSans-30" transform="translate(0 0.78125)"/>
      <use xlink:href="#DejaVuSans-2e" transform="translate(63.623047 0.78125)"/>
      <use xlink:href="#DejaVuSans-34" transform="translate(95.410156 0.78125)"/>
      <use xlink:href="#DejaVuSans-33" transform="translate(159.033203 0.78125)"/>
      <use xlink:href="#DejaVuSans-Oblique-3c0" transform="translate(222.65625 0.78125)"/>
     </g>
    </g>
    <g id="line2d_49">
     <path d="M 72 173.723437 
L 82 173.723437 
L 92 173.723437 
" style="fill: none; stroke: #7f7f7f; stroke-width: 1.5; stroke-linecap: square"/>
    </g>
    <g id="text_26">
     <!-- 0.50$\pi$ -->
     <g transform="translate(100 177.223437) scale(0.1 -0.1)">
      <use xlink:href="#DejaVuSans-30" transform="translate(0 0.78125)"/>
      <use xlink:href="#DejaVuSans-2e" transform="translate(63.623047 0.78125)"/>
      <use xlink:href="#DejaVuSans-35" transform="translate(95.410156 0.78125)"/>
      <use xlink:href="#DejaVuSans-30" transform="translate(159.033203 0.78125)"/>
      <use xlink:href="#DejaVuSans-Oblique-3c0" transform="translate(222.65625 0.78125)"/>
     </g>
    </g>
    <g id="line2d_50">
     <path d="M 72 188.401563 
L 82 188.401563 
L 92 188.401563 
" style="fill: none; stroke: #bcbd22; stroke-width: 1.5; stroke-linecap: square"/>
    </g>
    <g id="text_27">
     <!-- 0.57$\pi$ -->
     <g transform="translate(100 191.901563) scale(0.1 -0.1)">
      <use xlink:href="#DejaVuSans-30" transform="translate(0 0.78125)"/>
      <use xlink:href="#DejaVuSans-2e" transform="translate(63.623047 0.78125)"/>
      <use xlink:href="#DejaVuSans-35" transform="translate(95.410156 0.78125)"/>
      <use xlink:href="#DejaVuSans-37" transform="translate(151.783203 0.78125)"/>
      <use xlink:href="#DejaVuSans-Oblique-3c0" transform="translate(215.40625 0.78125)"/>
     </g>
    </g>
    <g id="line2d_51">
     <path d="M 72 203.079687 
L 82 203.079687 
L 92 203.079687 
" style="fill: none; stroke: #17becf; stroke-width: 1.5; stroke-linecap: square"/>
    </g>
    <g id="text_28">
     <!-- 0.64$\pi$ -->
     <g transform="translate(100 206.579687) scale(0.1 -0.1)">
      <use xlink:href="#DejaVuSans-30" transform="translate(0 0.78125)"/>
      <use xlink:href="#DejaVuSans-2e" transform="translate(63.623047 0.78125)"/>
      <use xlink:href="#DejaVuSans-36" transform="translate(95.410156 0.78125)"/>
      <use xlink:href="#DejaVuSans-34" transform="translate(159.033203 0.78125)"/>
      <use xlink:href="#DejaVuSans-Oblique-3c0" transform="translate(222.65625 0.78125)"/>
     </g>
    </g>
    <g id="line2d_52">
     <path d="M 72 217.757812 
L 82 217.757812 
L 92 217.757812 
" style="fill: none; stroke: #1f77b4; stroke-width: 1.5; stroke-linecap: square"/>
    </g>
    <g id="text_29">
     <!-- 0.71$\pi$ -->
     <g transform="translate(100 221.257812) scale(0.1 -0.1)">
      <use xlink:href="#DejaVuSans-30" transform="translate(0 0.78125)"/>
      <use xlink:href="#DejaVuSans-2e" transform="translate(63.623047 0.78125)"/>
      <use xlink:href="#DejaVuSans-37" transform="translate(87.660156 0.78125)"/>
      <use xlink:href="#DejaVuSans-31" transform="translate(151.283203 0.78125)"/>
      <use xlink:href="#DejaVuSans-Oblique-3c0" transform="translate(214.90625 0.78125)"/>
     </g>
    </g>
    <g id="line2d_53">
     <path d="M 72 232.435937 
L 82 232.435937 
L 92 232.435937 
" style="fill: none; stroke: #ff7f0e; stroke-width: 1.5; stroke-linecap: square"/>
    </g>
    <g id="text_30">
     <!-- 0.79$\pi$ -->
     <g transform="translate(100 235.935937) scale(0.1 -0.1)">
      <use xlink:href="#DejaVuSans-30" transform="translate(0 0.78125)"/>
      <use xlink:href="#DejaVuSans-2e" transform="translate(63.623047 0.78125)"/>
      <use xlink:href="#DejaVuSans-37" transform="translate(87.660156 0.78125)"/>
      <use xlink:href="#DejaVuSans-39" transform="translate(151.283203 0.78125)"/>
      <use xlink:href="#DejaVuSans-Oblique-3c0" transform="translate(214.90625 0.78125)"/>
     </g>
    </g>
    <g id="line2d_54">
     <path d="M 72 247.114062 
L 82 247.114062 
L 92 247.114062 
" style="fill: none; stroke: #2ca02c; stroke-width: 1.5; stroke-linecap: square"/>
    </g>
    <g id="text_31">
     <!-- 0.86$\pi$ -->
     <g transform="translate(100 250.614062) scale(0.1 -0.1)">
      <defs>
       <path id="DejaVuSans-38" d="M 2034 2216 
Q 1584 2216 1326 1975 
Q 1069 1734 1069 1313 
Q 1069 891 1326 650 
Q 1584 409 2034 409 
Q 2484 409 2743 651 
Q 3003 894 3003 1313 
Q 3003 1734 2745 1975 
Q 2488 2216 2034 2216 
z
M 1403 2484 
Q 997 2584 770 2862 
Q 544 3141 544 3541 
Q 544 4100 942 4425 
Q 1341 4750 2034 4750 
Q 2731 4750 3128 4425 
Q 3525 4100 3525 3541 
Q 3525 3141 3298 2862 
Q 3072 2584 2669 2484 
Q 3125 2378 3379 2068 
Q 3634 1759 3634 1313 
Q 3634 634 3220 271 
Q 2806 -91 2034 -91 
Q 1263 -91 848 271 
Q 434 634 434 1313 
Q 434 1759 690 2068 
Q 947 2378 1403 2484 
z
M 1172 3481 
Q 1172 3119 1398 2916 
Q 1625 2713 2034 2713 
Q 2441 2713 2670 2916 
Q 2900 3119 2900 3481 
Q 2900 3844 2670 4047 
Q 2441 4250 2034 4250 
Q 1625 4250 1398 4047 
Q 1172 3844 1172 3481 
z
" transform="scale(0.015625)"/>
      </defs>
      <use xlink:href="#DejaVuSans-30" transform="translate(0 0.78125)"/>
      <use xlink:href="#DejaVuSans-2e" transform="translate(63.623047 0.78125)"/>
      <use xlink:href="#DejaVuSans-38" transform="translate(92.785156 0.78125)"/>
      <use xlink:href="#DejaVuSans-36" transform="translate(156.408203 0.78125)"/>
      <use xlink:href="#DejaVuSans-Oblique-3c0" transform="translate(220.03125 0.78125)"/>
     </g>
    </g>
    <g id="line2d_55">
     <path d="M 72 261.792187 
L 82 261.792187 
L 92 261.792187 
" style="fill: none; stroke: #d62728; stroke-width: 1.5; stroke-linecap: square"/>
    </g>
    <g id="text_32">
     <!-- 0.93$\pi$ -->
     <g transform="translate(100 265.292187) scale(0.1 -0.1)">
      <use xlink:href="#DejaVuSans-30" transform="translate(0 0.78125)"/>
      <use xlink:href="#DejaVuSans-2e" transform="translate(63.623047 0.78125)"/>
      <use xlink:href="#DejaVuSans-39" transform="translate(95.410156 0.78125)"/>
      <use xlink:href="#DejaVuSans-33" transform="translate(159.033203 0.78125)"/>
      <use xlink:href="#DejaVuSans-Oblique-3c0" transform="translate(222.65625 0.78125)"/>
     </g>
    </g>
    <g id="line2d_56">
     <path d="M 72 276.470312 
L 82 276.470312 
L 92 276.470312 
" style="fill: none; stroke: #9467bd; stroke-width: 1.5; stroke-linecap: square"/>
    </g>
    <g id="text_33">
     <!-- 1.00$\pi$ -->
     <g transform="translate(100 279.970312) scale(0.1 -0.1)">
      <use xlink:href="#DejaVuSans-31" transform="translate(0 0.78125)"/>
      <use xlink:href="#DejaVuSans-2e" transform="translate(63.623047 0.78125)"/>
      <use xlink:href="#DejaVuSans-30" transform="translate(95.410156 0.78125)"/>
      <use xlink:href="#DejaVuSans-30" transform="translate(159.033203 0.78125)"/>
      <use xlink:href="#DejaVuSans-Oblique-3c0" transform="translate(222.65625 0.78125)"/>
     </g>
    </g>
   </g>
  </g>
 </g>
 <defs>
  <clipPath id="p56d310538f">
   <rect x="63" y="43.2" width="390.6" height="277.2"/>
  </clipPath>
 </defs>
</svg>
