<?xml version="1.0" encoding="utf-8" standalone="no"?>
<!DOCTYPE svg PUBLIC "-//W3C//DTD SVG 1.1//EN"
  "http://www.w3.org/Graphics/SVG/1.1/DTD/svg11.dtd">
<svg xmlns:xlink="http://www.w3.org/1999/xlink" width="432pt" height="360pt" viewBox="0 0 432 360" xmlns="http://www.w3.org/2000/svg" version="1.1">
 <metadata>
  <rdf:RDF xmlns:dc="http://purl.org/dc/elements/1.1/" xmlns:cc="http://creativecommons.org/ns#" xmlns:rdf="http://www.w3.org/1999/02/22-rdf-syntax-ns#">
   <cc:Work>
    <dc:type rdf:resource="http://purl.org/dc/dcmitype/StillImage"/>
    <dc:date>2025-02-28T11:45:20.774345</dc:date>
    <dc:format>image/svg+xml</dc:format>
    <dc:creator>
     <cc:Agent>
      <dc:title>Matplotlib v3.9.2, https://matplotlib.org/</dc:title>
     </cc:Agent>
    </dc:creator>
   </cc:Work>
  </rdf:RDF>
 </metadata>
 <defs>
  <style type="text/css">*{stroke-linejoin: round; stroke-linecap: butt}</style>
 </defs>
 <g id="figure_1">
  <g id="patch_1">
   <path d="M 0 360 
L 432 360 
L 432 0 
L 0 0 
z
" style="fill: #dcdcdc"/>
  </g>
  <g id="axes_1">
   <g id="patch_2">
    <path d="M 51.815021 316.6 
L 421.2 316.6 
L 421.2 26.88 
L 51.815021 26.88 
z
" style="fill: #f8f8f8"/>
   </g>
   <g id="matplotlib.axis_1">
    <g id="xtick_1">
     <g id="line2d_1">
      <path d="M 68.605247 316.6 
L 68.605247 26.88 
" clip-path="url(#pe5142c5f0f)" style="fill: none; stroke: #b0b0b0; stroke-width: 0.8; stroke-linecap: square"/>
     </g>
     <g id="line2d_2">
      <defs>
       <path id="md04a759ec6" d="M 0 0 
L 0 3.5 
" style="stroke: #000000; stroke-width: 0.8"/>
      </defs>
      <g>
       <use xlink:href="#md04a759ec6" x="68.605247" y="316.6" style="stroke: #000000; stroke-width: 0.8"/>
      </g>
     </g>
     <g id="text_1">
      <!-- $\mathdefault{1}$ -->
      <g transform="translate(65.085247 331.958281) scale(0.11 -0.11)">
       <defs>
        <path id="DejaVuSans-31" d="M 794 531 
L 1825 531 
L 1825 4091 
L 703 3866 
L 703 4441 
L 1819 4666 
L 2450 4666 
L 2450 531 
L 3481 531 
L 3481 0 
L 794 0 
L 794 531 
z
" transform="scale(0.015625)"/>
       </defs>
       <use xlink:href="#DejaVuSans-31" transform="translate(0 0.09375)"/>
      </g>
     </g>
    </g>
    <g id="xtick_2">
     <g id="line2d_3">
      <path d="M 135.766153 316.6 
L 135.766153 26.88 
" clip-path="url(#pe5142c5f0f)" style="fill: none; stroke: #b0b0b0; stroke-width: 0.8; stroke-linecap: square"/>
     </g>
     <g id="line2d_4">
      <g>
       <use xlink:href="#md04a759ec6" x="135.766153" y="316.6" style="stroke: #000000; stroke-width: 0.8"/>
      </g>
     </g>
     <g id="text_2">
      <!-- $\mathdefault{2}$ -->
      <g transform="translate(132.246153 331.958281) scale(0.11 -0.11)">
       <defs>
        <path id="DejaVuSans-32" d="M 1228 531 
L 3431 531 
L 3431 0 
L 469 0 
L 469 531 
Q 828 903 1448 1529 
Q 2069 2156 2228 2338 
Q 2531 2678 2651 2914 
Q 2772 3150 2772 3378 
Q 2772 3750 2511 3984 
Q 2250 4219 1831 4219 
Q 1534 4219 1204 4116 
Q 875 4013 500 3803 
L 500 4441 
Q 881 4594 1212 4672 
Q 1544 4750 1819 4750 
Q 2544 4750 2975 4387 
Q 3406 4025 3406 3419 
Q 3406 3131 3298 2873 
Q 3191 2616 2906 2266 
Q 2828 2175 2409 1742 
Q 1991 1309 1228 531 
z
" transform="scale(0.015625)"/>
       </defs>
       <use xlink:href="#DejaVuSans-32" transform="translate(0 0.78125)"/>
      </g>
     </g>
    </g>
    <g id="xtick_3">
     <g id="line2d_5">
      <path d="M 202.927058 316.6 
L 202.927058 26.88 
" clip-path="url(#pe5142c5f0f)" style="fill: none; stroke: #b0b0b0; stroke-width: 0.8; stroke-linecap: square"/>
     </g>
     <g id="line2d_6">
      <g>
       <use xlink:href="#md04a759ec6" x="202.927058" y="316.6" style="stroke: #000000; stroke-width: 0.8"/>
      </g>
     </g>
     <g id="text_3">
      <!-- $\mathdefault{3}$ -->
      <g transform="translate(199.407058 331.958281) scale(0.11 -0.11)">
       <defs>
        <path id="DejaVuSans-33" d="M 2597 2516 
Q 3050 2419 3304 2112 
Q 3559 1806 3559 1356 
Q 3559 666 3084 287 
Q 2609 -91 1734 -91 
Q 1441 -91 1130 -33 
Q 819 25 488 141 
L 488 750 
Q 750 597 1062 519 
Q 1375 441 1716 441 
Q 2309 441 2620 675 
Q 2931 909 2931 1356 
Q 2931 1769 2642 2001 
Q 2353 2234 1838 2234 
L 1294 2234 
L 1294 2753 
L 1863 2753 
Q 2328 2753 2575 2939 
Q 2822 3125 2822 3475 
Q 2822 3834 2567 4026 
Q 2313 4219 1838 4219 
Q 1578 4219 1281 4162 
Q 984 4106 628 3988 
L 628 4550 
Q 988 4650 1302 4700 
Q 1616 4750 1894 4750 
Q 2613 4750 3031 4423 
Q 3450 4097 3450 3541 
Q 3450 3153 3228 2886 
Q 3006 2619 2597 2516 
z
" transform="scale(0.015625)"/>
       </defs>
       <use xlink:href="#DejaVuSans-33" transform="translate(0 0.78125)"/>
      </g>
     </g>
    </g>
    <g id="xtick_4">
     <g id="line2d_7">
      <path d="M 270.087963 316.6 
L 270.087963 26.88 
" clip-path="url(#pe5142c5f0f)" style="fill: none; stroke: #b0b0b0; stroke-width: 0.8; stroke-linecap: square"/>
     </g>
     <g id="line2d_8">
      <g>
       <use xlink:href="#md04a759ec6" x="270.087963" y="316.6" style="stroke: #000000; stroke-width: 0.8"/>
      </g>
     </g>
     <g id="text_4">
      <!-- $\mathdefault{4}$ -->
      <g transform="translate(266.567963 331.958281) scale(0.11 -0.11)">
       <defs>
        <path id="DejaVuSans-34" d="M 2419 4116 
L 825 1625 
L 2419 1625 
L 2419 4116 
z
M 2253 4666 
L 3047 4666 
L 3047 1625 
L 3713 1625 
L 3713 1100 
L 3047 1100 
L 3047 0 
L 2419 0 
L 2419 1100 
L 313 1100 
L 313 1709 
L 2253 4666 
z
" transform="scale(0.015625)"/>
       </defs>
       <use xlink:href="#DejaVuSans-34" transform="translate(0 0.09375)"/>
      </g>
     </g>
    </g>
    <g id="xtick_5">
     <g id="line2d_9">
      <path d="M 337.248868 316.6 
L 337.248868 26.88 
" clip-path="url(#pe5142c5f0f)" style="fill: none; stroke: #b0b0b0; stroke-width: 0.8; stroke-linecap: square"/>
     </g>
     <g id="line2d_10">
      <g>
       <use xlink:href="#md04a759ec6" x="337.248868" y="316.6" style="stroke: #000000; stroke-width: 0.8"/>
      </g>
     </g>
     <g id="text_5">
      <!-- $\mathdefault{5}$ -->
      <g transform="translate(333.728868 331.958281) scale(0.11 -0.11)">
       <defs>
        <path id="DejaVuSans-35" d="M 691 4666 
L 3169 4666 
L 3169 4134 
L 1269 4134 
L 1269 2991 
Q 1406 3038 1543 3061 
Q 1681 3084 1819 3084 
Q 2600 3084 3056 2656 
Q 3513 2228 3513 1497 
Q 3513 744 3044 326 
Q 2575 -91 1722 -91 
Q 1428 -91 1123 -41 
Q 819 9 494 109 
L 494 744 
Q 775 591 1075 516 
Q 1375 441 1709 441 
Q 2250 441 2565 725 
Q 2881 1009 2881 1497 
Q 2881 1984 2565 2268 
Q 2250 2553 1709 2553 
Q 1456 2553 1204 2497 
Q 953 2441 691 2322 
L 691 4666 
z
" transform="scale(0.015625)"/>
       </defs>
       <use xlink:href="#DejaVuSans-35" transform="translate(0 0.09375)"/>
      </g>
     </g>
    </g>
    <g id="xtick_6">
     <g id="line2d_11">
      <path d="M 404.409774 316.6 
L 404.409774 26.88 
" clip-path="url(#pe5142c5f0f)" style="fill: none; stroke: #b0b0b0; stroke-width: 0.8; stroke-linecap: square"/>
     </g>
     <g id="line2d_12">
      <g>
       <use xlink:href="#md04a759ec6" x="404.409774" y="316.6" style="stroke: #000000; stroke-width: 0.8"/>
      </g>
     </g>
     <g id="text_6">
      <!-- $\mathdefault{6}$ -->
      <g transform="translate(400.889774 331.958281) scale(0.11 -0.11)">
       <defs>
        <path id="DejaVuSans-36" d="M 2113 2584 
Q 1688 2584 1439 2293 
Q 1191 2003 1191 1497 
Q 1191 994 1439 701 
Q 1688 409 2113 409 
Q 2538 409 2786 701 
Q 3034 994 3034 1497 
Q 3034 2003 2786 2293 
Q 2538 2584 2113 2584 
z
M 3366 4563 
L 3366 3988 
Q 3128 4100 2886 4159 
Q 2644 4219 2406 4219 
Q 1781 4219 1451 3797 
Q 1122 3375 1075 2522 
Q 1259 2794 1537 2939 
Q 1816 3084 2150 3084 
Q 2853 3084 3261 2657 
Q 3669 2231 3669 1497 
Q 3669 778 3244 343 
Q 2819 -91 2113 -91 
Q 1303 -91 875 529 
Q 447 1150 447 2328 
Q 447 3434 972 4092 
Q 1497 4750 2381 4750 
Q 2619 4750 2861 4703 
Q 3103 4656 3366 4563 
z
" transform="scale(0.015625)"/>
       </defs>
       <use xlink:href="#DejaVuSans-36" transform="translate(0 0.78125)"/>
      </g>
     </g>
    </g>
    <g id="text_7">
     <!-- Local Hilbert space dimension -->
     <g transform="translate(161.405948 345.844375) scale(0.1 -0.1)">
      <defs>
       <path id="DejaVuSans-4c" d="M 628 4666 
L 1259 4666 
L 1259 531 
L 3531 531 
L 3531 0 
L 628 0 
L 628 4666 
z
" transform="scale(0.015625)"/>
       <path id="DejaVuSans-6f" d="M 1959 3097 
Q 1497 3097 1228 2736 
Q 959 2375 959 1747 
Q 959 1119 1226 758 
Q 1494 397 1959 397 
Q 2419 397 2687 759 
Q 2956 1122 2956 1747 
Q 2956 2369 2687 2733 
Q 2419 3097 1959 3097 
z
M 1959 3584 
Q 2709 3584 3137 3096 
Q 3566 2609 3566 1747 
Q 3566 888 3137 398 
Q 2709 -91 1959 -91 
Q 1206 -91 779 398 
Q 353 888 353 1747 
Q 353 2609 779 3096 
Q 1206 3584 1959 3584 
z
" transform="scale(0.015625)"/>
       <path id="DejaVuSans-63" d="M 3122 3366 
L 3122 2828 
Q 2878 2963 2633 3030 
Q 2388 3097 2138 3097 
Q 1578 3097 1268 2742 
Q 959 2388 959 1747 
Q 959 1106 1268 751 
Q 1578 397 2138 397 
Q 2388 397 2633 464 
Q 2878 531 3122 666 
L 3122 134 
Q 2881 22 2623 -34 
Q 2366 -91 2075 -91 
Q 1284 -91 818 406 
Q 353 903 353 1747 
Q 353 2603 823 3093 
Q 1294 3584 2113 3584 
Q 2378 3584 2631 3529 
Q 2884 3475 3122 3366 
z
" transform="scale(0.015625)"/>
       <path id="DejaVuSans-61" d="M 2194 1759 
Q 1497 1759 1228 1600 
Q 959 1441 959 1056 
Q 959 750 1161 570 
Q 1363 391 1709 391 
Q 2188 391 2477 730 
Q 2766 1069 2766 1631 
L 2766 1759 
L 2194 1759 
z
M 3341 1997 
L 3341 0 
L 2766 0 
L 2766 531 
Q 2569 213 2275 61 
Q 1981 -91 1556 -91 
Q 1019 -91 701 211 
Q 384 513 384 1019 
Q 384 1609 779 1909 
Q 1175 2209 1959 2209 
L 2766 2209 
L 2766 2266 
Q 2766 2663 2505 2880 
Q 2244 3097 1772 3097 
Q 1472 3097 1187 3025 
Q 903 2953 641 2809 
L 641 3341 
Q 956 3463 1253 3523 
Q 1550 3584 1831 3584 
Q 2591 3584 2966 3190 
Q 3341 2797 3341 1997 
z
" transform="scale(0.015625)"/>
       <path id="DejaVuSans-6c" d="M 603 4863 
L 1178 4863 
L 1178 0 
L 603 0 
L 603 4863 
z
" transform="scale(0.015625)"/>
       <path id="DejaVuSans-20" transform="scale(0.015625)"/>
       <path id="DejaVuSans-48" d="M 628 4666 
L 1259 4666 
L 1259 2753 
L 3553 2753 
L 3553 4666 
L 4184 4666 
L 4184 0 
L 3553 0 
L 3553 2222 
L 1259 2222 
L 1259 0 
L 628 0 
L 628 4666 
z
" transform="scale(0.015625)"/>
       <path id="DejaVuSans-69" d="M 603 3500 
L 1178 3500 
L 1178 0 
L 603 0 
L 603 3500 
z
M 603 4863 
L 1178 4863 
L 1178 4134 
L 603 4134 
L 603 4863 
z
" transform="scale(0.015625)"/>
       <path id="DejaVuSans-62" d="M 3116 1747 
Q 3116 2381 2855 2742 
Q 2594 3103 2138 3103 
Q 1681 3103 1420 2742 
Q 1159 2381 1159 1747 
Q 1159 1113 1420 752 
Q 1681 391 2138 391 
Q 2594 391 2855 752 
Q 3116 1113 3116 1747 
z
M 1159 2969 
Q 1341 3281 1617 3432 
Q 1894 3584 2278 3584 
Q 2916 3584 3314 3078 
Q 3713 2572 3713 1747 
Q 3713 922 3314 415 
Q 2916 -91 2278 -91 
Q 1894 -91 1617 61 
Q 1341 213 1159 525 
L 1159 0 
L 581 0 
L 581 4863 
L 1159 4863 
L 1159 2969 
z
" transform="scale(0.015625)"/>
       <path id="DejaVuSans-65" d="M 3597 1894 
L 3597 1613 
L 953 1613 
Q 991 1019 1311 708 
Q 1631 397 2203 397 
Q 2534 397 2845 478 
Q 3156 559 3463 722 
L 3463 178 
Q 3153 47 2828 -22 
Q 2503 -91 2169 -91 
Q 1331 -91 842 396 
Q 353 884 353 1716 
Q 353 2575 817 3079 
Q 1281 3584 2069 3584 
Q 2775 3584 3186 3129 
Q 3597 2675 3597 1894 
z
M 3022 2063 
Q 3016 2534 2758 2815 
Q 2500 3097 2075 3097 
Q 1594 3097 1305 2825 
Q 1016 2553 972 2059 
L 3022 2063 
z
" transform="scale(0.015625)"/>
       <path id="DejaVuSans-72" d="M 2631 2963 
Q 2534 3019 2420 3045 
Q 2306 3072 2169 3072 
Q 1681 3072 1420 2755 
Q 1159 2438 1159 1844 
L 1159 0 
L 581 0 
L 581 3500 
L 1159 3500 
L 1159 2956 
Q 1341 3275 1631 3429 
Q 1922 3584 2338 3584 
Q 2397 3584 2469 3576 
Q 2541 3569 2628 3553 
L 2631 2963 
z
" transform="scale(0.015625)"/>
       <path id="DejaVuSans-74" d="M 1172 4494 
L 1172 3500 
L 2356 3500 
L 2356 3053 
L 1172 3053 
L 1172 1153 
Q 1172 725 1289 603 
Q 1406 481 1766 481 
L 2356 481 
L 2356 0 
L 1766 0 
Q 1100 0 847 248 
Q 594 497 594 1153 
L 594 3053 
L 172 3053 
L 172 3500 
L 594 3500 
L 594 4494 
L 1172 4494 
z
" transform="scale(0.015625)"/>
       <path id="DejaVuSans-73" d="M 2834 3397 
L 2834 2853 
Q 2591 2978 2328 3040 
Q 2066 3103 1784 3103 
Q 1356 3103 1142 2972 
Q 928 2841 928 2578 
Q 928 2378 1081 2264 
Q 1234 2150 1697 2047 
L 1894 2003 
Q 2506 1872 2764 1633 
Q 3022 1394 3022 966 
Q 3022 478 2636 193 
Q 2250 -91 1575 -91 
Q 1294 -91 989 -36 
Q 684 19 347 128 
L 347 722 
Q 666 556 975 473 
Q 1284 391 1588 391 
Q 1994 391 2212 530 
Q 2431 669 2431 922 
Q 2431 1156 2273 1281 
Q 2116 1406 1581 1522 
L 1381 1569 
Q 847 1681 609 1914 
Q 372 2147 372 2553 
Q 372 3047 722 3315 
Q 1072 3584 1716 3584 
Q 2034 3584 2315 3537 
Q 2597 3491 2834 3397 
z
" transform="scale(0.015625)"/>
       <path id="DejaVuSans-70" d="M 1159 525 
L 1159 -1331 
L 581 -1331 
L 581 3500 
L 1159 3500 
L 1159 2969 
Q 1341 3281 1617 3432 
Q 1894 3584 2278 3584 
Q 2916 3584 3314 3078 
Q 3713 2572 3713 1747 
Q 3713 922 3314 415 
Q 2916 -91 2278 -91 
Q 1894 -91 1617 61 
Q 1341 213 1159 525 
z
M 3116 1747 
Q 3116 2381 2855 2742 
Q 2594 3103 2138 3103 
Q 1681 3103 1420 2742 
Q 1159 2381 1159 1747 
Q 1159 1113 1420 752 
Q 1681 391 2138 391 
Q 2594 391 2855 752 
Q 3116 1113 3116 1747 
z
" transform="scale(0.015625)"/>
       <path id="DejaVuSans-64" d="M 2906 2969 
L 2906 4863 
L 3481 4863 
L 3481 0 
L 2906 0 
L 2906 525 
Q 2725 213 2448 61 
Q 2172 -91 1784 -91 
Q 1150 -91 751 415 
Q 353 922 353 1747 
Q 353 2572 751 3078 
Q 1150 3584 1784 3584 
Q 2172 3584 2448 3432 
Q 2725 3281 2906 2969 
z
M 947 1747 
Q 947 1113 1208 752 
Q 1469 391 1925 391 
Q 2381 391 2643 752 
Q 2906 1113 2906 1747 
Q 2906 2381 2643 2742 
Q 2381 3103 1925 3103 
Q 1469 3103 1208 2742 
Q 947 2381 947 1747 
z
" transform="scale(0.015625)"/>
       <path id="DejaVuSans-6d" d="M 3328 2828 
Q 3544 3216 3844 3400 
Q 4144 3584 4550 3584 
Q 5097 3584 5394 3201 
Q 5691 2819 5691 2113 
L 5691 0 
L 5113 0 
L 5113 2094 
Q 5113 2597 4934 2840 
Q 4756 3084 4391 3084 
Q 3944 3084 3684 2787 
Q 3425 2491 3425 1978 
L 3425 0 
L 2847 0 
L 2847 2094 
Q 2847 2600 2669 2842 
Q 2491 3084 2119 3084 
Q 1678 3084 1418 2786 
Q 1159 2488 1159 1978 
L 1159 0 
L 581 0 
L 581 3500 
L 1159 3500 
L 1159 2956 
Q 1356 3278 1631 3431 
Q 1906 3584 2284 3584 
Q 2666 3584 2933 3390 
Q 3200 3197 3328 2828 
z
" transform="scale(0.015625)"/>
       <path id="DejaVuSans-6e" d="M 3513 2113 
L 3513 0 
L 2938 0 
L 2938 2094 
Q 2938 2591 2744 2837 
Q 2550 3084 2163 3084 
Q 1697 3084 1428 2787 
Q 1159 2491 1159 1978 
L 1159 0 
L 581 0 
L 581 3500 
L 1159 3500 
L 1159 2956 
Q 1366 3272 1645 3428 
Q 1925 3584 2291 3584 
Q 2894 3584 3203 3211 
Q 3513 2838 3513 2113 
z
" transform="scale(0.015625)"/>
      </defs>
      <use xlink:href="#DejaVuSans-4c"/>
      <use xlink:href="#DejaVuSans-6f" x="53.962891"/>
      <use xlink:href="#DejaVuSans-63" x="115.144531"/>
      <use xlink:href="#DejaVuSans-61" x="170.125"/>
      <use xlink:href="#DejaVuSans-6c" x="231.404297"/>
      <use xlink:href="#DejaVuSans-20" x="259.1875"/>
      <use xlink:href="#DejaVuSans-48" x="290.974609"/>
      <use xlink:href="#DejaVuSans-69" x="366.169922"/>
      <use xlink:href="#DejaVuSans-6c" x="393.953125"/>
      <use xlink:href="#DejaVuSans-62" x="421.736328"/>
      <use xlink:href="#DejaVuSans-65" x="485.212891"/>
      <use xlink:href="#DejaVuSans-72" x="546.736328"/>
      <use xlink:href="#DejaVuSans-74" x="587.849609"/>
      <use xlink:href="#DejaVuSans-20" x="627.058594"/>
      <use xlink:href="#DejaVuSans-73" x="658.845703"/>
      <use xlink:href="#DejaVuSans-70" x="710.945312"/>
      <use xlink:href="#DejaVuSans-61" x="774.421875"/>
      <use xlink:href="#DejaVuSans-63" x="835.701172"/>
      <use xlink:href="#DejaVuSans-65" x="890.681641"/>
      <use xlink:href="#DejaVuSans-20" x="952.205078"/>
      <use xlink:href="#DejaVuSans-64" x="983.992188"/>
      <use xlink:href="#DejaVuSans-69" x="1047.46875"/>
      <use xlink:href="#DejaVuSans-6d" x="1075.251953"/>
      <use xlink:href="#DejaVuSans-65" x="1172.664062"/>
      <use xlink:href="#DejaVuSans-6e" x="1234.1875"/>
      <use xlink:href="#DejaVuSans-73" x="1297.566406"/>
      <use xlink:href="#DejaVuSans-69" x="1349.666016"/>
      <use xlink:href="#DejaVuSans-6f" x="1377.449219"/>
      <use xlink:href="#DejaVuSans-6e" x="1438.630859"/>
     </g>
    </g>
   </g>
   <g id="matplotlib.axis_2">
    <g id="ytick_1">
     <g id="line2d_13">
      <path d="M 51.815021 264.453233 
L 421.2 264.453233 
" clip-path="url(#pe5142c5f0f)" style="fill: none; stroke: #b0b0b0; stroke-width: 0.8; stroke-linecap: square"/>
     </g>
     <g id="line2d_14">
      <defs>
       <path id="m6309aa0a9a" d="M 0 0 
L -3.5 0 
" style="stroke: #000000; stroke-width: 0.8"/>
      </defs>
      <g>
       <use xlink:href="#m6309aa0a9a" x="51.815021" y="264.453233" style="stroke: #000000; stroke-width: 0.8"/>
      </g>
     </g>
     <g id="text_8">
      <!-- $\mathdefault{10^{6}}$ -->
      <g transform="translate(25.455021 268.632373) scale(0.11 -0.11)">
       <defs>
        <path id="DejaVuSans-30" d="M 2034 4250 
Q 1547 4250 1301 3770 
Q 1056 3291 1056 2328 
Q 1056 1369 1301 889 
Q 1547 409 2034 409 
Q 2525 409 2770 889 
Q 3016 1369 3016 2328 
Q 3016 3291 2770 3770 
Q 2525 4250 2034 4250 
z
M 2034 4750 
Q 2819 4750 3233 4129 
Q 3647 3509 3647 2328 
Q 3647 1150 3233 529 
Q 2819 -91 2034 -91 
Q 1250 -91 836 529 
Q 422 1150 422 2328 
Q 422 3509 836 4129 
Q 1250 4750 2034 4750 
z
" transform="scale(0.015625)"/>
       </defs>
       <use xlink:href="#DejaVuSans-31" transform="translate(0 0.765625)"/>
       <use xlink:href="#DejaVuSans-30" transform="translate(63.623047 0.765625)"/>
       <use xlink:href="#DejaVuSans-36" transform="translate(128.203125 39.046875) scale(0.7)"/>
      </g>
     </g>
    </g>
    <g id="ytick_2">
     <g id="line2d_15">
      <path d="M 51.815021 204.168966 
L 421.2 204.168966 
" clip-path="url(#pe5142c5f0f)" style="fill: none; stroke: #b0b0b0; stroke-width: 0.8; stroke-linecap: square"/>
     </g>
     <g id="line2d_16">
      <g>
       <use xlink:href="#m6309aa0a9a" x="51.815021" y="204.168966" style="stroke: #000000; stroke-width: 0.8"/>
      </g>
     </g>
     <g id="text_9">
      <!-- $\mathdefault{10^{7}}$ -->
      <g transform="translate(25.455021 208.348107) scale(0.11 -0.11)">
       <defs>
        <path id="DejaVuSans-37" d="M 525 4666 
L 3525 4666 
L 3525 4397 
L 1831 0 
L 1172 0 
L 2766 4134 
L 525 4134 
L 525 4666 
z
" transform="scale(0.015625)"/>
       </defs>
       <use xlink:href="#DejaVuSans-31" transform="translate(0 0.684375)"/>
       <use xlink:href="#DejaVuSans-30" transform="translate(63.623047 0.684375)"/>
       <use xlink:href="#DejaVuSans-37" transform="translate(128.203125 38.965625) scale(0.7)"/>
      </g>
     </g>
    </g>
    <g id="ytick_3">
     <g id="line2d_17">
      <path d="M 51.815021 143.8847 
L 421.2 143.8847 
" clip-path="url(#pe5142c5f0f)" style="fill: none; stroke: #b0b0b0; stroke-width: 0.8; stroke-linecap: square"/>
     </g>
     <g id="line2d_18">
      <g>
       <use xlink:href="#m6309aa0a9a" x="51.815021" y="143.8847" style="stroke: #000000; stroke-width: 0.8"/>
      </g>
     </g>
     <g id="text_10">
      <!-- $\mathdefault{10^{8}}$ -->
      <g transform="translate(25.455021 148.063841) scale(0.11 -0.11)">
       <defs>
        <path id="DejaVuSans-38" d="M 2034 2216 
Q 1584 2216 1326 1975 
Q 1069 1734 1069 1313 
Q 1069 891 1326 650 
Q 1584 409 2034 409 
Q 2484 409 2743 651 
Q 3003 894 3003 1313 
Q 3003 1734 2745 1975 
Q 2488 2216 2034 2216 
z
M 1403 2484 
Q 997 2584 770 2862 
Q 544 3141 544 3541 
Q 544 4100 942 4425 
Q 1341 4750 2034 4750 
Q 2731 4750 3128 4425 
Q 3525 4100 3525 3541 
Q 3525 3141 3298 2862 
Q 3072 2584 2669 2484 
Q 3125 2378 3379 2068 
Q 3634 1759 3634 1313 
Q 3634 634 3220 271 
Q 2806 -91 2034 -91 
Q 1263 -91 848 271 
Q 434 634 434 1313 
Q 434 1759 690 2068 
Q 947 2378 1403 2484 
z
M 1172 3481 
Q 1172 3119 1398 2916 
Q 1625 2713 2034 2713 
Q 2441 2713 2670 2916 
Q 2900 3119 2900 3481 
Q 2900 3844 2670 4047 
Q 2441 4250 2034 4250 
Q 1625 4250 1398 4047 
Q 1172 3844 1172 3481 
z
" transform="scale(0.015625)"/>
       </defs>
       <use xlink:href="#DejaVuSans-31" transform="translate(0 0.765625)"/>
       <use xlink:href="#DejaVuSans-30" transform="translate(63.623047 0.765625)"/>
       <use xlink:href="#DejaVuSans-38" transform="translate(128.203125 39.046875) scale(0.7)"/>
      </g>
     </g>
    </g>
    <g id="ytick_4">
     <g id="line2d_19">
      <path d="M 51.815021 83.600433 
L 421.2 83.600433 
" clip-path="url(#pe5142c5f0f)" style="fill: none; stroke: #b0b0b0; stroke-width: 0.8; stroke-linecap: square"/>
     </g>
     <g id="line2d_20">
      <g>
       <use xlink:href="#m6309aa0a9a" x="51.815021" y="83.600433" style="stroke: #000000; stroke-width: 0.8"/>
      </g>
     </g>
     <g id="text_11">
      <!-- $\mathdefault{10^{9}}$ -->
      <g transform="translate(25.455021 87.779574) scale(0.11 -0.11)">
       <defs>
        <path id="DejaVuSans-39" d="M 703 97 
L 703 672 
Q 941 559 1184 500 
Q 1428 441 1663 441 
Q 2288 441 2617 861 
Q 2947 1281 2994 2138 
Q 2813 1869 2534 1725 
Q 2256 1581 1919 1581 
Q 1219 1581 811 2004 
Q 403 2428 403 3163 
Q 403 3881 828 4315 
Q 1253 4750 1959 4750 
Q 2769 4750 3195 4129 
Q 3622 3509 3622 2328 
Q 3622 1225 3098 567 
Q 2575 -91 1691 -91 
Q 1453 -91 1209 -44 
Q 966 3 703 97 
z
M 1959 2075 
Q 2384 2075 2632 2365 
Q 2881 2656 2881 3163 
Q 2881 3666 2632 3958 
Q 2384 4250 1959 4250 
Q 1534 4250 1286 3958 
Q 1038 3666 1038 3163 
Q 1038 2656 1286 2365 
Q 1534 2075 1959 2075 
z
" transform="scale(0.015625)"/>
       </defs>
       <use xlink:href="#DejaVuSans-31" transform="translate(0 0.765625)"/>
       <use xlink:href="#DejaVuSans-30" transform="translate(63.623047 0.765625)"/>
       <use xlink:href="#DejaVuSans-39" transform="translate(128.203125 39.046875) scale(0.7)"/>
      </g>
     </g>
    </g>
    <g id="ytick_5">
     <g id="line2d_21">
      <defs>
       <path id="m78b14e3463" d="M 0 0 
L -2 0 
" style="stroke: #000000; stroke-width: 0.6"/>
      </defs>
      <g>
       <use xlink:href="#m78b14e3463" x="51.815021" y="306.590127" style="stroke: #000000; stroke-width: 0.6"/>
      </g>
     </g>
    </g>
    <g id="ytick_6">
     <g id="line2d_22">
      <g>
       <use xlink:href="#m78b14e3463" x="51.815021" y="295.974594" style="stroke: #000000; stroke-width: 0.6"/>
      </g>
     </g>
    </g>
    <g id="ytick_7">
     <g id="line2d_23">
      <g>
       <use xlink:href="#m78b14e3463" x="51.815021" y="288.442754" style="stroke: #000000; stroke-width: 0.6"/>
      </g>
     </g>
    </g>
    <g id="ytick_8">
     <g id="line2d_24">
      <g>
       <use xlink:href="#m78b14e3463" x="51.815021" y="282.600605" style="stroke: #000000; stroke-width: 0.6"/>
      </g>
     </g>
    </g>
    <g id="ytick_9">
     <g id="line2d_25">
      <g>
       <use xlink:href="#m78b14e3463" x="51.815021" y="277.827222" style="stroke: #000000; stroke-width: 0.6"/>
      </g>
     </g>
    </g>
    <g id="ytick_10">
     <g id="line2d_26">
      <g>
       <use xlink:href="#m78b14e3463" x="51.815021" y="273.791384" style="stroke: #000000; stroke-width: 0.6"/>
      </g>
     </g>
    </g>
    <g id="ytick_11">
     <g id="line2d_27">
      <g>
       <use xlink:href="#m78b14e3463" x="51.815021" y="270.295382" style="stroke: #000000; stroke-width: 0.6"/>
      </g>
     </g>
    </g>
    <g id="ytick_12">
     <g id="line2d_28">
      <g>
       <use xlink:href="#m78b14e3463" x="51.815021" y="267.211689" style="stroke: #000000; stroke-width: 0.6"/>
      </g>
     </g>
    </g>
    <g id="ytick_13">
     <g id="line2d_29">
      <g>
       <use xlink:href="#m78b14e3463" x="51.815021" y="246.30586" style="stroke: #000000; stroke-width: 0.6"/>
      </g>
     </g>
    </g>
    <g id="ytick_14">
     <g id="line2d_30">
      <g>
       <use xlink:href="#m78b14e3463" x="51.815021" y="235.690328" style="stroke: #000000; stroke-width: 0.6"/>
      </g>
     </g>
    </g>
    <g id="ytick_15">
     <g id="line2d_31">
      <g>
       <use xlink:href="#m78b14e3463" x="51.815021" y="228.158488" style="stroke: #000000; stroke-width: 0.6"/>
      </g>
     </g>
    </g>
    <g id="ytick_16">
     <g id="line2d_32">
      <g>
       <use xlink:href="#m78b14e3463" x="51.815021" y="222.316339" style="stroke: #000000; stroke-width: 0.6"/>
      </g>
     </g>
    </g>
    <g id="ytick_17">
     <g id="line2d_33">
      <g>
       <use xlink:href="#m78b14e3463" x="51.815021" y="217.542955" style="stroke: #000000; stroke-width: 0.6"/>
      </g>
     </g>
    </g>
    <g id="ytick_18">
     <g id="line2d_34">
      <g>
       <use xlink:href="#m78b14e3463" x="51.815021" y="213.507117" style="stroke: #000000; stroke-width: 0.6"/>
      </g>
     </g>
    </g>
    <g id="ytick_19">
     <g id="line2d_35">
      <g>
       <use xlink:href="#m78b14e3463" x="51.815021" y="210.011115" style="stroke: #000000; stroke-width: 0.6"/>
      </g>
     </g>
    </g>
    <g id="ytick_20">
     <g id="line2d_36">
      <g>
       <use xlink:href="#m78b14e3463" x="51.815021" y="206.927423" style="stroke: #000000; stroke-width: 0.6"/>
      </g>
     </g>
    </g>
    <g id="ytick_21">
     <g id="line2d_37">
      <g>
       <use xlink:href="#m78b14e3463" x="51.815021" y="186.021594" style="stroke: #000000; stroke-width: 0.6"/>
      </g>
     </g>
    </g>
    <g id="ytick_22">
     <g id="line2d_38">
      <g>
       <use xlink:href="#m78b14e3463" x="51.815021" y="175.406061" style="stroke: #000000; stroke-width: 0.6"/>
      </g>
     </g>
    </g>
    <g id="ytick_23">
     <g id="line2d_39">
      <g>
       <use xlink:href="#m78b14e3463" x="51.815021" y="167.874221" style="stroke: #000000; stroke-width: 0.6"/>
      </g>
     </g>
    </g>
    <g id="ytick_24">
     <g id="line2d_40">
      <g>
       <use xlink:href="#m78b14e3463" x="51.815021" y="162.032072" style="stroke: #000000; stroke-width: 0.6"/>
      </g>
     </g>
    </g>
    <g id="ytick_25">
     <g id="line2d_41">
      <g>
       <use xlink:href="#m78b14e3463" x="51.815021" y="157.258689" style="stroke: #000000; stroke-width: 0.6"/>
      </g>
     </g>
    </g>
    <g id="ytick_26">
     <g id="line2d_42">
      <g>
       <use xlink:href="#m78b14e3463" x="51.815021" y="153.222851" style="stroke: #000000; stroke-width: 0.6"/>
      </g>
     </g>
    </g>
    <g id="ytick_27">
     <g id="line2d_43">
      <g>
       <use xlink:href="#m78b14e3463" x="51.815021" y="149.726849" style="stroke: #000000; stroke-width: 0.6"/>
      </g>
     </g>
    </g>
    <g id="ytick_28">
     <g id="line2d_44">
      <g>
       <use xlink:href="#m78b14e3463" x="51.815021" y="146.643157" style="stroke: #000000; stroke-width: 0.6"/>
      </g>
     </g>
    </g>
    <g id="ytick_29">
     <g id="line2d_45">
      <g>
       <use xlink:href="#m78b14e3463" x="51.815021" y="125.737327" style="stroke: #000000; stroke-width: 0.6"/>
      </g>
     </g>
    </g>
    <g id="ytick_30">
     <g id="line2d_46">
      <g>
       <use xlink:href="#m78b14e3463" x="51.815021" y="115.121795" style="stroke: #000000; stroke-width: 0.6"/>
      </g>
     </g>
    </g>
    <g id="ytick_31">
     <g id="line2d_47">
      <g>
       <use xlink:href="#m78b14e3463" x="51.815021" y="107.589955" style="stroke: #000000; stroke-width: 0.6"/>
      </g>
     </g>
    </g>
    <g id="ytick_32">
     <g id="line2d_48">
      <g>
       <use xlink:href="#m78b14e3463" x="51.815021" y="101.747806" style="stroke: #000000; stroke-width: 0.6"/>
      </g>
     </g>
    </g>
    <g id="ytick_33">
     <g id="line2d_49">
      <g>
       <use xlink:href="#m78b14e3463" x="51.815021" y="96.974423" style="stroke: #000000; stroke-width: 0.6"/>
      </g>
     </g>
    </g>
    <g id="ytick_34">
     <g id="line2d_50">
      <g>
       <use xlink:href="#m78b14e3463" x="51.815021" y="92.938585" style="stroke: #000000; stroke-width: 0.6"/>
      </g>
     </g>
    </g>
    <g id="ytick_35">
     <g id="line2d_51">
      <g>
       <use xlink:href="#m78b14e3463" x="51.815021" y="89.442583" style="stroke: #000000; stroke-width: 0.6"/>
      </g>
     </g>
    </g>
    <g id="ytick_36">
     <g id="line2d_52">
      <g>
       <use xlink:href="#m78b14e3463" x="51.815021" y="86.35889" style="stroke: #000000; stroke-width: 0.6"/>
      </g>
     </g>
    </g>
    <g id="ytick_37">
     <g id="line2d_53">
      <g>
       <use xlink:href="#m78b14e3463" x="51.815021" y="65.453061" style="stroke: #000000; stroke-width: 0.6"/>
      </g>
     </g>
    </g>
    <g id="ytick_38">
     <g id="line2d_54">
      <g>
       <use xlink:href="#m78b14e3463" x="51.815021" y="54.837529" style="stroke: #000000; stroke-width: 0.6"/>
      </g>
     </g>
    </g>
    <g id="ytick_39">
     <g id="line2d_55">
      <g>
       <use xlink:href="#m78b14e3463" x="51.815021" y="47.305689" style="stroke: #000000; stroke-width: 0.6"/>
      </g>
     </g>
    </g>
    <g id="ytick_40">
     <g id="line2d_56">
      <g>
       <use xlink:href="#m78b14e3463" x="51.815021" y="41.46354" style="stroke: #000000; stroke-width: 0.6"/>
      </g>
     </g>
    </g>
    <g id="ytick_41">
     <g id="line2d_57">
      <g>
       <use xlink:href="#m78b14e3463" x="51.815021" y="36.690156" style="stroke: #000000; stroke-width: 0.6"/>
      </g>
     </g>
    </g>
    <g id="ytick_42">
     <g id="line2d_58">
      <g>
       <use xlink:href="#m78b14e3463" x="51.815021" y="32.654318" style="stroke: #000000; stroke-width: 0.6"/>
      </g>
     </g>
    </g>
    <g id="ytick_43">
     <g id="line2d_59">
      <g>
       <use xlink:href="#m78b14e3463" x="51.815021" y="29.158316" style="stroke: #000000; stroke-width: 0.6"/>
      </g>
     </g>
    </g>
    <g id="text_12">
     <!-- Max size of memory allocated (bytes) -->
     <g transform="translate(19.375334 266.030625) rotate(-90) scale(0.1 -0.1)">
      <defs>
       <path id="DejaVuSans-4d" d="M 628 4666 
L 1569 4666 
L 2759 1491 
L 3956 4666 
L 4897 4666 
L 4897 0 
L 4281 0 
L 4281 4097 
L 3078 897 
L 2444 897 
L 1241 4097 
L 1241 0 
L 628 0 
L 628 4666 
z
" transform="scale(0.015625)"/>
       <path id="DejaVuSans-78" d="M 3513 3500 
L 2247 1797 
L 3578 0 
L 2900 0 
L 1881 1375 
L 863 0 
L 184 0 
L 1544 1831 
L 300 3500 
L 978 3500 
L 1906 2253 
L 2834 3500 
L 3513 3500 
z
" transform="scale(0.015625)"/>
       <path id="DejaVuSans-7a" d="M 353 3500 
L 3084 3500 
L 3084 2975 
L 922 459 
L 3084 459 
L 3084 0 
L 275 0 
L 275 525 
L 2438 3041 
L 353 3041 
L 353 3500 
z
" transform="scale(0.015625)"/>
       <path id="DejaVuSans-66" d="M 2375 4863 
L 2375 4384 
L 1825 4384 
Q 1516 4384 1395 4259 
Q 1275 4134 1275 3809 
L 1275 3500 
L 2222 3500 
L 2222 3053 
L 1275 3053 
L 1275 0 
L 697 0 
L 697 3053 
L 147 3053 
L 147 3500 
L 697 3500 
L 697 3744 
Q 697 4328 969 4595 
Q 1241 4863 1831 4863 
L 2375 4863 
z
" transform="scale(0.015625)"/>
       <path id="DejaVuSans-79" d="M 2059 -325 
Q 1816 -950 1584 -1140 
Q 1353 -1331 966 -1331 
L 506 -1331 
L 506 -850 
L 844 -850 
Q 1081 -850 1212 -737 
Q 1344 -625 1503 -206 
L 1606 56 
L 191 3500 
L 800 3500 
L 1894 763 
L 2988 3500 
L 3597 3500 
L 2059 -325 
z
" transform="scale(0.015625)"/>
       <path id="DejaVuSans-28" d="M 1984 4856 
Q 1566 4138 1362 3434 
Q 1159 2731 1159 2009 
Q 1159 1288 1364 580 
Q 1569 -128 1984 -844 
L 1484 -844 
Q 1016 -109 783 600 
Q 550 1309 550 2009 
Q 550 2706 781 3412 
Q 1013 4119 1484 4856 
L 1984 4856 
z
" transform="scale(0.015625)"/>
       <path id="DejaVuSans-29" d="M 513 4856 
L 1013 4856 
Q 1481 4119 1714 3412 
Q 1947 2706 1947 2009 
Q 1947 1309 1714 600 
Q 1481 -109 1013 -844 
L 513 -844 
Q 928 -128 1133 580 
Q 1338 1288 1338 2009 
Q 1338 2731 1133 3434 
Q 928 4138 513 4856 
z
" transform="scale(0.015625)"/>
      </defs>
      <use xlink:href="#DejaVuSans-4d"/>
      <use xlink:href="#DejaVuSans-61" x="86.279297"/>
      <use xlink:href="#DejaVuSans-78" x="147.558594"/>
      <use xlink:href="#DejaVuSans-20" x="206.738281"/>
      <use xlink:href="#DejaVuSans-73" x="238.525391"/>
      <use xlink:href="#DejaVuSans-69" x="290.625"/>
      <use xlink:href="#DejaVuSans-7a" x="318.408203"/>
      <use xlink:href="#DejaVuSans-65" x="370.898438"/>
      <use xlink:href="#DejaVuSans-20" x="432.421875"/>
      <use xlink:href="#DejaVuSans-6f" x="464.208984"/>
      <use xlink:href="#DejaVuSans-66" x="525.390625"/>
      <use xlink:href="#DejaVuSans-20" x="560.595703"/>
      <use xlink:href="#DejaVuSans-6d" x="592.382812"/>
      <use xlink:href="#DejaVuSans-65" x="689.794922"/>
      <use xlink:href="#DejaVuSans-6d" x="751.318359"/>
      <use xlink:href="#DejaVuSans-6f" x="848.730469"/>
      <use xlink:href="#DejaVuSans-72" x="909.912109"/>
      <use xlink:href="#DejaVuSans-79" x="951.025391"/>
      <use xlink:href="#DejaVuSans-20" x="1010.205078"/>
      <use xlink:href="#DejaVuSans-61" x="1041.992188"/>
      <use xlink:href="#DejaVuSans-6c" x="1103.271484"/>
      <use xlink:href="#DejaVuSans-6c" x="1131.054688"/>
      <use xlink:href="#DejaVuSans-6f" x="1158.837891"/>
      <use xlink:href="#DejaVuSans-63" x="1220.019531"/>
      <use xlink:href="#DejaVuSans-61" x="1275"/>
      <use xlink:href="#DejaVuSans-74" x="1336.279297"/>
      <use xlink:href="#DejaVuSans-65" x="1375.488281"/>
      <use xlink:href="#DejaVuSans-64" x="1437.011719"/>
      <use xlink:href="#DejaVuSans-20" x="1500.488281"/>
      <use xlink:href="#DejaVuSans-28" x="1532.275391"/>
      <use xlink:href="#DejaVuSans-62" x="1571.289062"/>
      <use xlink:href="#DejaVuSans-79" x="1634.765625"/>
      <use xlink:href="#DejaVuSans-74" x="1693.945312"/>
      <use xlink:href="#DejaVuSans-65" x="1733.154297"/>
      <use xlink:href="#DejaVuSans-73" x="1794.677734"/>
      <use xlink:href="#DejaVuSans-29" x="1846.777344"/>
     </g>
    </g>
   </g>
   <g id="line2d_60">
    <path d="M 68.605247 278.140072 
L 135.766153 269.198366 
L 202.927058 248.968742 
L 270.087963 223.61386 
L 337.248868 201.592104 
L 404.409774 182.473247 
" clip-path="url(#pe5142c5f0f)" style="fill: none; stroke: #008000; stroke-width: 1.5; stroke-linecap: square"/>
    <defs>
     <path id="m4326bf6fe8" d="M -3 3 
L 3 -3 
M -3 -3 
L 3 3 
" style="stroke: #008000"/>
    </defs>
    <g clip-path="url(#pe5142c5f0f)">
     <use xlink:href="#m4326bf6fe8" x="68.605247" y="278.140072" style="fill: #008000; stroke: #008000"/>
     <use xlink:href="#m4326bf6fe8" x="135.766153" y="269.198366" style="fill: #008000; stroke: #008000"/>
     <use xlink:href="#m4326bf6fe8" x="202.927058" y="248.968742" style="fill: #008000; stroke: #008000"/>
     <use xlink:href="#m4326bf6fe8" x="270.087963" y="223.61386" style="fill: #008000; stroke: #008000"/>
     <use xlink:href="#m4326bf6fe8" x="337.248868" y="201.592104" style="fill: #008000; stroke: #008000"/>
     <use xlink:href="#m4326bf6fe8" x="404.409774" y="182.473247" style="fill: #008000; stroke: #008000"/>
    </g>
   </g>
   <g id="line2d_61">
    <path d="M 68.605247 279.301787 
L 135.766153 270.785803 
L 202.927058 237.538646 
L 270.087963 216.027061 
L 337.248868 194.017588 
L 404.409774 174.781621 
" clip-path="url(#pe5142c5f0f)" style="fill: none; stroke: #ff0000; stroke-width: 1.5; stroke-linecap: square"/>
    <defs>
     <path id="mc9f4102043" d="M -3 3 
L 3 -3 
M -3 -3 
L 3 3 
" style="stroke: #ff0000"/>
    </defs>
    <g clip-path="url(#pe5142c5f0f)">
     <use xlink:href="#mc9f4102043" x="68.605247" y="279.301787" style="fill: #ff0000; stroke: #ff0000"/>
     <use xlink:href="#mc9f4102043" x="135.766153" y="270.785803" style="fill: #ff0000; stroke: #ff0000"/>
     <use xlink:href="#mc9f4102043" x="202.927058" y="237.538646" style="fill: #ff0000; stroke: #ff0000"/>
     <use xlink:href="#mc9f4102043" x="270.087963" y="216.027061" style="fill: #ff0000; stroke: #ff0000"/>
     <use xlink:href="#mc9f4102043" x="337.248868" y="194.017588" style="fill: #ff0000; stroke: #ff0000"/>
     <use xlink:href="#mc9f4102043" x="404.409774" y="174.781621" style="fill: #ff0000; stroke: #ff0000"/>
    </g>
   </g>
   <g id="line2d_62">
    <path d="M 68.605247 279.445797 
L 135.766153 256.693071 
L 202.927058 228.488245 
L 270.087963 202.357617 
L 337.248868 180.15458 
L 404.409774 161.019683 
" clip-path="url(#pe5142c5f0f)" style="fill: none; stroke: #00bfbf; stroke-width: 1.5; stroke-linecap: square"/>
    <defs>
     <path id="m60b2d8fc31" d="M -3 3 
L 3 -3 
M -3 -3 
L 3 3 
" style="stroke: #00bfbf"/>
    </defs>
    <g clip-path="url(#pe5142c5f0f)">
     <use xlink:href="#m60b2d8fc31" x="68.605247" y="279.445797" style="fill: #00bfbf; stroke: #00bfbf"/>
     <use xlink:href="#m60b2d8fc31" x="135.766153" y="256.693071" style="fill: #00bfbf; stroke: #00bfbf"/>
     <use xlink:href="#m60b2d8fc31" x="202.927058" y="228.488245" style="fill: #00bfbf; stroke: #00bfbf"/>
     <use xlink:href="#m60b2d8fc31" x="270.087963" y="202.357617" style="fill: #00bfbf; stroke: #00bfbf"/>
     <use xlink:href="#m60b2d8fc31" x="337.248868" y="180.15458" style="fill: #00bfbf; stroke: #00bfbf"/>
     <use xlink:href="#m60b2d8fc31" x="404.409774" y="161.019683" style="fill: #00bfbf; stroke: #00bfbf"/>
    </g>
   </g>
   <g id="line2d_63">
    <path d="M 68.605247 279.486305 
L 135.766153 256.127259 
L 202.927058 214.536368 
L 270.087963 191.581645 
L 337.248868 173.000251 
L 404.409774 149.914266 
" clip-path="url(#pe5142c5f0f)" style="fill: none; stroke: #bf00bf; stroke-width: 1.5; stroke-linecap: square"/>
    <defs>
     <path id="m23d4ce2f23" d="M -3 3 
L 3 -3 
M -3 -3 
L 3 3 
" style="stroke: #bf00bf"/>
    </defs>
    <g clip-path="url(#pe5142c5f0f)">
     <use xlink:href="#m23d4ce2f23" x="68.605247" y="279.486305" style="fill: #bf00bf; stroke: #bf00bf"/>
     <use xlink:href="#m23d4ce2f23" x="135.766153" y="256.127259" style="fill: #bf00bf; stroke: #bf00bf"/>
     <use xlink:href="#m23d4ce2f23" x="202.927058" y="214.536368" style="fill: #bf00bf; stroke: #bf00bf"/>
     <use xlink:href="#m23d4ce2f23" x="270.087963" y="191.581645" style="fill: #bf00bf; stroke: #bf00bf"/>
     <use xlink:href="#m23d4ce2f23" x="337.248868" y="173.000251" style="fill: #bf00bf; stroke: #bf00bf"/>
     <use xlink:href="#m23d4ce2f23" x="404.409774" y="149.914266" style="fill: #bf00bf; stroke: #bf00bf"/>
    </g>
   </g>
   <g id="line2d_64">
    <path d="M 68.605247 279.470456 
L 135.766153 250.922028 
L 202.927058 199.469542 
L 270.087963 185.300558 
L 337.248868 163.098821 
L 404.409774 144.009995 
" clip-path="url(#pe5142c5f0f)" style="fill: none; stroke: #bfbf00; stroke-width: 1.5; stroke-linecap: square"/>
    <defs>
     <path id="mec5e506d81" d="M -3 3 
L 3 -3 
M -3 -3 
L 3 3 
" style="stroke: #bfbf00"/>
    </defs>
    <g clip-path="url(#pe5142c5f0f)">
     <use xlink:href="#mec5e506d81" x="68.605247" y="279.470456" style="fill: #bfbf00; stroke: #bfbf00"/>
     <use xlink:href="#mec5e506d81" x="135.766153" y="250.922028" style="fill: #bfbf00; stroke: #bfbf00"/>
     <use xlink:href="#mec5e506d81" x="202.927058" y="199.469542" style="fill: #bfbf00; stroke: #bfbf00"/>
     <use xlink:href="#mec5e506d81" x="270.087963" y="185.300558" style="fill: #bfbf00; stroke: #bfbf00"/>
     <use xlink:href="#mec5e506d81" x="337.248868" y="163.098821" style="fill: #bfbf00; stroke: #bfbf00"/>
     <use xlink:href="#mec5e506d81" x="404.409774" y="144.009995" style="fill: #bfbf00; stroke: #bfbf00"/>
    </g>
   </g>
   <g id="line2d_65">
    <path d="M 68.605247 279.487606 
L 135.766153 250.710185 
L 202.927058 198.916328 
L 270.087963 165.706193 
L 337.248868 156.388331 
L 404.409774 137.290213 
" clip-path="url(#pe5142c5f0f)" style="fill: none; stroke: #000000; stroke-width: 1.5; stroke-linecap: square"/>
    <defs>
     <path id="m65735e7ea5" d="M -3 3 
L 3 -3 
M -3 -3 
L 3 3 
" style="stroke: #000000"/>
    </defs>
    <g clip-path="url(#pe5142c5f0f)">
     <use xlink:href="#m65735e7ea5" x="68.605247" y="279.487606" style="stroke: #000000"/>
     <use xlink:href="#m65735e7ea5" x="135.766153" y="250.710185" style="stroke: #000000"/>
     <use xlink:href="#m65735e7ea5" x="202.927058" y="198.916328" style="stroke: #000000"/>
     <use xlink:href="#m65735e7ea5" x="270.087963" y="165.706193" style="stroke: #000000"/>
     <use xlink:href="#m65735e7ea5" x="337.248868" y="156.388331" style="stroke: #000000"/>
     <use xlink:href="#m65735e7ea5" x="404.409774" y="137.290213" style="stroke: #000000"/>
    </g>
   </g>
   <g id="line2d_66">
    <path d="M 68.605247 279.509839 
L 135.766153 250.768177 
L 202.927058 191.187404 
L 270.087963 145.027304 
L 337.248868 111.719211 
L 404.409774 87.603727 
" clip-path="url(#pe5142c5f0f)" style="fill: none; stroke-dasharray: 5.55,2.4; stroke-dashoffset: 0; stroke: #008000; stroke-width: 1.5"/>
    <defs>
     <path id="m8a574d0740" d="M 0 1.5 
C 0.397805 1.5 0.77937 1.341951 1.06066 1.06066 
C 1.341951 0.77937 1.5 0.397805 1.5 0 
C 1.5 -0.397805 1.341951 -0.77937 1.06066 -1.06066 
C 0.77937 -1.341951 0.397805 -1.5 0 -1.5 
C -0.397805 -1.5 -0.77937 -1.341951 -1.06066 -1.06066 
C -1.341951 -0.77937 -1.5 -0.397805 -1.5 0 
C -1.5 0.397805 -1.341951 0.77937 -1.06066 1.06066 
C -0.77937 1.341951 -0.397805 1.5 0 1.5 
z
" style="stroke: #008000"/>
    </defs>
    <g clip-path="url(#pe5142c5f0f)">
     <use xlink:href="#m8a574d0740" x="68.605247" y="279.509839" style="fill: #008000; stroke: #008000"/>
     <use xlink:href="#m8a574d0740" x="135.766153" y="250.768177" style="fill: #008000; stroke: #008000"/>
     <use xlink:href="#m8a574d0740" x="202.927058" y="191.187404" style="fill: #008000; stroke: #008000"/>
     <use xlink:href="#m8a574d0740" x="270.087963" y="145.027304" style="fill: #008000; stroke: #008000"/>
     <use xlink:href="#m8a574d0740" x="337.248868" y="111.719211" style="fill: #008000; stroke: #008000"/>
     <use xlink:href="#m8a574d0740" x="404.409774" y="87.603727" style="fill: #008000; stroke: #008000"/>
    </g>
   </g>
   <g id="line2d_67">
    <path d="M 68.605247 279.493512 
L 135.766153 250.770925 
L 202.927058 188.098637 
L 270.087963 139.190247 
L 337.248868 102.94289 
L 404.409774 73.90343 
" clip-path="url(#pe5142c5f0f)" style="fill: none; stroke-dasharray: 5.55,2.4; stroke-dashoffset: 0; stroke: #ff0000; stroke-width: 1.5"/>
    <defs>
     <path id="m520702f987" d="M 0 1.5 
C 0.397805 1.5 0.77937 1.341951 1.06066 1.06066 
C 1.341951 0.77937 1.5 0.397805 1.5 0 
C 1.5 -0.397805 1.341951 -0.77937 1.06066 -1.06066 
C 0.77937 -1.341951 0.397805 -1.5 0 -1.5 
C -0.397805 -1.5 -0.77937 -1.341951 -1.06066 -1.06066 
C -1.341951 -0.77937 -1.5 -0.397805 -1.5 0 
C -1.5 0.397805 -1.341951 0.77937 -1.06066 1.06066 
C -0.77937 1.341951 -0.397805 1.5 0 1.5 
z
" style="stroke: #ff0000"/>
    </defs>
    <g clip-path="url(#pe5142c5f0f)">
     <use xlink:href="#m520702f987" x="68.605247" y="279.493512" style="fill: #ff0000; stroke: #ff0000"/>
     <use xlink:href="#m520702f987" x="135.766153" y="250.770925" style="fill: #ff0000; stroke: #ff0000"/>
     <use xlink:href="#m520702f987" x="202.927058" y="188.098637" style="fill: #ff0000; stroke: #ff0000"/>
     <use xlink:href="#m520702f987" x="270.087963" y="139.190247" style="fill: #ff0000; stroke: #ff0000"/>
     <use xlink:href="#m520702f987" x="337.248868" y="102.94289" style="fill: #ff0000; stroke: #ff0000"/>
     <use xlink:href="#m520702f987" x="404.409774" y="73.90343" style="fill: #ff0000; stroke: #ff0000"/>
    </g>
   </g>
   <g id="line2d_68">
    <path d="M 68.605247 279.520404 
L 135.766153 250.769031 
L 202.927058 188.108361 
L 270.087963 137.082023 
L 337.248868 98.564724 
L 404.409774 66.849373 
" clip-path="url(#pe5142c5f0f)" style="fill: none; stroke-dasharray: 5.55,2.4; stroke-dashoffset: 0; stroke: #00bfbf; stroke-width: 1.5"/>
    <defs>
     <path id="m76fcab6a79" d="M 0 1.5 
C 0.397805 1.5 0.77937 1.341951 1.06066 1.06066 
C 1.341951 0.77937 1.5 0.397805 1.5 0 
C 1.5 -0.397805 1.341951 -0.77937 1.06066 -1.06066 
C 0.77937 -1.341951 0.397805 -1.5 0 -1.5 
C -0.397805 -1.5 -0.77937 -1.341951 -1.06066 -1.06066 
C -1.341951 -0.77937 -1.5 -0.397805 -1.5 0 
C -1.5 0.397805 -1.341951 0.77937 -1.06066 1.06066 
C -0.77937 1.341951 -0.397805 1.5 0 1.5 
z
" style="stroke: #00bfbf"/>
    </defs>
    <g clip-path="url(#pe5142c5f0f)">
     <use xlink:href="#m76fcab6a79" x="68.605247" y="279.520404" style="fill: #00bfbf; stroke: #00bfbf"/>
     <use xlink:href="#m76fcab6a79" x="135.766153" y="250.769031" style="fill: #00bfbf; stroke: #00bfbf"/>
     <use xlink:href="#m76fcab6a79" x="202.927058" y="188.108361" style="fill: #00bfbf; stroke: #00bfbf"/>
     <use xlink:href="#m76fcab6a79" x="270.087963" y="137.082023" style="fill: #00bfbf; stroke: #00bfbf"/>
     <use xlink:href="#m76fcab6a79" x="337.248868" y="98.564724" style="fill: #00bfbf; stroke: #00bfbf"/>
     <use xlink:href="#m76fcab6a79" x="404.409774" y="66.849373" style="fill: #00bfbf; stroke: #00bfbf"/>
    </g>
   </g>
   <g id="line2d_69">
    <path d="M 68.605247 279.524501 
L 135.766153 250.772617 
L 202.927058 188.108614 
L 270.087963 137.021839 
L 337.248868 96.280443 
L 404.409774 62.543593 
" clip-path="url(#pe5142c5f0f)" style="fill: none; stroke-dasharray: 5.55,2.4; stroke-dashoffset: 0; stroke: #bf00bf; stroke-width: 1.5"/>
    <defs>
     <path id="m48fd489deb" d="M 0 1.5 
C 0.397805 1.5 0.77937 1.341951 1.06066 1.06066 
C 1.341951 0.77937 1.5 0.397805 1.5 0 
C 1.5 -0.397805 1.341951 -0.77937 1.06066 -1.06066 
C 0.77937 -1.341951 0.397805 -1.5 0 -1.5 
C -0.397805 -1.5 -0.77937 -1.341951 -1.06066 -1.06066 
C -1.341951 -0.77937 -1.5 -0.397805 -1.5 0 
C -1.5 0.397805 -1.341951 0.77937 -1.06066 1.06066 
C -0.77937 1.341951 -0.397805 1.5 0 1.5 
z
" style="stroke: #bf00bf"/>
    </defs>
    <g clip-path="url(#pe5142c5f0f)">
     <use xlink:href="#m48fd489deb" x="68.605247" y="279.524501" style="fill: #bf00bf; stroke: #bf00bf"/>
     <use xlink:href="#m48fd489deb" x="135.766153" y="250.772617" style="fill: #bf00bf; stroke: #bf00bf"/>
     <use xlink:href="#m48fd489deb" x="202.927058" y="188.108614" style="fill: #bf00bf; stroke: #bf00bf"/>
     <use xlink:href="#m48fd489deb" x="270.087963" y="137.021839" style="fill: #bf00bf; stroke: #bf00bf"/>
     <use xlink:href="#m48fd489deb" x="337.248868" y="96.280443" style="fill: #bf00bf; stroke: #bf00bf"/>
     <use xlink:href="#m48fd489deb" x="404.409774" y="62.543593" style="fill: #bf00bf; stroke: #bf00bf"/>
    </g>
   </g>
   <g id="line2d_70">
    <path d="M 68.605247 279.490257 
L 135.766153 250.775458 
L 202.927058 188.108528 
L 270.087963 137.022428 
L 337.248868 94.911142 
L 404.409774 60.21456 
" clip-path="url(#pe5142c5f0f)" style="fill: none; stroke-dasharray: 5.55,2.4; stroke-dashoffset: 0; stroke: #bfbf00; stroke-width: 1.5"/>
    <defs>
     <path id="m412c5ff979" d="M 0 1.5 
C 0.397805 1.5 0.77937 1.341951 1.06066 1.06066 
C 1.341951 0.77937 1.5 0.397805 1.5 0 
C 1.5 -0.397805 1.341951 -0.77937 1.06066 -1.06066 
C 0.77937 -1.341951 0.397805 -1.5 0 -1.5 
C -0.397805 -1.5 -0.77937 -1.341951 -1.06066 -1.06066 
C -1.341951 -0.77937 -1.5 -0.397805 -1.5 0 
C -1.5 0.397805 -1.341951 0.77937 -1.06066 1.06066 
C -0.77937 1.341951 -0.397805 1.5 0 1.5 
z
" style="stroke: #bfbf00"/>
    </defs>
    <g clip-path="url(#pe5142c5f0f)">
     <use xlink:href="#m412c5ff979" x="68.605247" y="279.490257" style="fill: #bfbf00; stroke: #bfbf00"/>
     <use xlink:href="#m412c5ff979" x="135.766153" y="250.775458" style="fill: #bfbf00; stroke: #bfbf00"/>
     <use xlink:href="#m412c5ff979" x="202.927058" y="188.108528" style="fill: #bfbf00; stroke: #bfbf00"/>
     <use xlink:href="#m412c5ff979" x="270.087963" y="137.022428" style="fill: #bfbf00; stroke: #bfbf00"/>
     <use xlink:href="#m412c5ff979" x="337.248868" y="94.911142" style="fill: #bfbf00; stroke: #bfbf00"/>
     <use xlink:href="#m412c5ff979" x="404.409774" y="60.21456" style="fill: #bfbf00; stroke: #bfbf00"/>
    </g>
   </g>
   <g id="line2d_71">
    <path d="M 68.605247 279.465207 
L 135.766153 250.767339 
L 202.927058 188.108195 
L 270.087963 137.022428 
L 337.248868 94.87603 
L 404.409774 59.143489 
" clip-path="url(#pe5142c5f0f)" style="fill: none; stroke-dasharray: 5.55,2.4; stroke-dashoffset: 0; stroke: #000000; stroke-width: 1.5"/>
    <defs>
     <path id="m171437d2ea" d="M 0 1.5 
C 0.397805 1.5 0.77937 1.341951 1.06066 1.06066 
C 1.341951 0.77937 1.5 0.397805 1.5 0 
C 1.5 -0.397805 1.341951 -0.77937 1.06066 -1.06066 
C 0.77937 -1.341951 0.397805 -1.5 0 -1.5 
C -0.397805 -1.5 -0.77937 -1.341951 -1.06066 -1.06066 
C -1.341951 -0.77937 -1.5 -0.397805 -1.5 0 
C -1.5 0.397805 -1.341951 0.77937 -1.06066 1.06066 
C -0.77937 1.341951 -0.397805 1.5 0 1.5 
z
" style="stroke: #000000"/>
    </defs>
    <g clip-path="url(#pe5142c5f0f)">
     <use xlink:href="#m171437d2ea" x="68.605247" y="279.465207" style="stroke: #000000"/>
     <use xlink:href="#m171437d2ea" x="135.766153" y="250.767339" style="stroke: #000000"/>
     <use xlink:href="#m171437d2ea" x="202.927058" y="188.108195" style="stroke: #000000"/>
     <use xlink:href="#m171437d2ea" x="270.087963" y="137.022428" style="stroke: #000000"/>
     <use xlink:href="#m171437d2ea" x="337.248868" y="94.87603" style="stroke: #000000"/>
     <use xlink:href="#m171437d2ea" x="404.409774" y="59.143489" style="stroke: #000000"/>
    </g>
   </g>
   <g id="line2d_72">
    <path d="M 68.605247 303.430909 
L 135.766153 238.821126 
L 202.927058 174.357614 
L 270.087963 121.239952 
L 337.248868 77.418402 
L 404.409774 40.049091 
" clip-path="url(#pe5142c5f0f)" style="fill: none; stroke: #bf00bf; stroke-width: 3; stroke-linecap: square"/>
    <defs>
     <path id="m22c5a7db4e" d="M 0 3 
C 0.795609 3 1.55874 2.683901 2.12132 2.12132 
C 2.683901 1.55874 3 0.795609 3 0 
C 3 -0.795609 2.683901 -1.55874 2.12132 -2.12132 
C 1.55874 -2.683901 0.795609 -3 0 -3 
C -0.795609 -3 -1.55874 -2.683901 -2.12132 -2.12132 
C -2.683901 -1.55874 -3 -0.795609 -3 0 
C -3 0.795609 -2.683901 1.55874 -2.12132 2.12132 
C -1.55874 2.683901 -0.795609 3 0 3 
z
" style="stroke: #bf00bf"/>
    </defs>
    <g clip-path="url(#pe5142c5f0f)">
     <use xlink:href="#m22c5a7db4e" x="68.605247" y="303.430909" style="fill: #bf00bf; stroke: #bf00bf"/>
     <use xlink:href="#m22c5a7db4e" x="135.766153" y="238.821126" style="fill: #bf00bf; stroke: #bf00bf"/>
     <use xlink:href="#m22c5a7db4e" x="202.927058" y="174.357614" style="fill: #bf00bf; stroke: #bf00bf"/>
     <use xlink:href="#m22c5a7db4e" x="270.087963" y="121.239952" style="fill: #bf00bf; stroke: #bf00bf"/>
     <use xlink:href="#m22c5a7db4e" x="337.248868" y="77.418402" style="fill: #bf00bf; stroke: #bf00bf"/>
     <use xlink:href="#m22c5a7db4e" x="404.409774" y="40.049091" style="fill: #bf00bf; stroke: #bf00bf"/>
    </g>
   </g>
   <g id="patch_3">
    <path d="M 51.815021 316.6 
L 51.815021 26.88 
" style="fill: none; stroke: #000000; stroke-width: 0.8; stroke-linejoin: miter; stroke-linecap: square"/>
   </g>
   <g id="patch_4">
    <path d="M 421.2 316.6 
L 421.2 26.88 
" style="fill: none; stroke: #000000; stroke-width: 0.8; stroke-linejoin: miter; stroke-linecap: square"/>
   </g>
   <g id="patch_5">
    <path d="M 51.815021 316.6 
L 421.2 316.6 
" style="fill: none; stroke: #000000; stroke-width: 0.8; stroke-linejoin: miter; stroke-linecap: square"/>
   </g>
   <g id="patch_6">
    <path d="M 51.815021 26.88 
L 421.2 26.88 
" style="fill: none; stroke: #000000; stroke-width: 0.8; stroke-linejoin: miter; stroke-linecap: square"/>
   </g>
   <g id="text_13">
    <!-- Memory analysis - TN &amp; Sparse -->
    <g transform="translate(142.702198 20.88) scale(0.12 -0.12)">
     <defs>
      <path id="DejaVuSans-2d" d="M 313 2009 
L 1997 2009 
L 1997 1497 
L 313 1497 
L 313 2009 
z
" transform="scale(0.015625)"/>
      <path id="DejaVuSans-54" d="M -19 4666 
L 3928 4666 
L 3928 4134 
L 2272 4134 
L 2272 0 
L 1638 0 
L 1638 4134 
L -19 4134 
L -19 4666 
z
" transform="scale(0.015625)"/>
      <path id="DejaVuSans-4e" d="M 628 4666 
L 1478 4666 
L 3547 763 
L 3547 4666 
L 4159 4666 
L 4159 0 
L 3309 0 
L 1241 3903 
L 1241 0 
L 628 0 
L 628 4666 
z
" transform="scale(0.015625)"/>
      <path id="DejaVuSans-26" d="M 1556 2509 
Q 1272 2256 1139 2004 
Q 1006 1753 1006 1478 
Q 1006 1022 1337 719 
Q 1669 416 2169 416 
Q 2466 416 2725 514 
Q 2984 613 3213 813 
L 1556 2509 
z
M 1997 2859 
L 3584 1234 
Q 3769 1513 3872 1830 
Q 3975 2147 3994 2503 
L 4575 2503 
Q 4538 2091 4375 1687 
Q 4213 1284 3922 891 
L 4794 0 
L 4006 0 
L 3559 459 
Q 3234 181 2878 45 
Q 2522 -91 2113 -91 
Q 1359 -91 881 339 
Q 403 769 403 1441 
Q 403 1841 612 2192 
Q 822 2544 1241 2853 
Q 1091 3050 1012 3245 
Q 934 3441 934 3628 
Q 934 4134 1281 4442 
Q 1628 4750 2203 4750 
Q 2463 4750 2720 4694 
Q 2978 4638 3244 4525 
L 3244 3956 
Q 2972 4103 2725 4179 
Q 2478 4256 2266 4256 
Q 1938 4256 1733 4082 
Q 1528 3909 1528 3634 
Q 1528 3475 1620 3314 
Q 1713 3153 1997 2859 
z
" transform="scale(0.015625)"/>
      <path id="DejaVuSans-53" d="M 3425 4513 
L 3425 3897 
Q 3066 4069 2747 4153 
Q 2428 4238 2131 4238 
Q 1616 4238 1336 4038 
Q 1056 3838 1056 3469 
Q 1056 3159 1242 3001 
Q 1428 2844 1947 2747 
L 2328 2669 
Q 3034 2534 3370 2195 
Q 3706 1856 3706 1288 
Q 3706 609 3251 259 
Q 2797 -91 1919 -91 
Q 1588 -91 1214 -16 
Q 841 59 441 206 
L 441 856 
Q 825 641 1194 531 
Q 1563 422 1919 422 
Q 2459 422 2753 634 
Q 3047 847 3047 1241 
Q 3047 1584 2836 1778 
Q 2625 1972 2144 2069 
L 1759 2144 
Q 1053 2284 737 2584 
Q 422 2884 422 3419 
Q 422 4038 858 4394 
Q 1294 4750 2059 4750 
Q 2388 4750 2728 4690 
Q 3069 4631 3425 4513 
z
" transform="scale(0.015625)"/>
     </defs>
     <use xlink:href="#DejaVuSans-4d"/>
     <use xlink:href="#DejaVuSans-65" x="86.279297"/>
     <use xlink:href="#DejaVuSans-6d" x="147.802734"/>
     <use xlink:href="#DejaVuSans-6f" x="245.214844"/>
     <use xlink:href="#DejaVuSans-72" x="306.396484"/>
     <use xlink:href="#DejaVuSans-79" x="347.509766"/>
     <use xlink:href="#DejaVuSans-20" x="406.689453"/>
     <use xlink:href="#DejaVuSans-61" x="438.476562"/>
     <use xlink:href="#DejaVuSans-6e" x="499.755859"/>
     <use xlink:href="#DejaVuSans-61" x="563.134766"/>
     <use xlink:href="#DejaVuSans-6c" x="624.414062"/>
     <use xlink:href="#DejaVuSans-79" x="652.197266"/>
     <use xlink:href="#DejaVuSans-73" x="711.376953"/>
     <use xlink:href="#DejaVuSans-69" x="763.476562"/>
     <use xlink:href="#DejaVuSans-73" x="791.259766"/>
     <use xlink:href="#DejaVuSans-20" x="843.359375"/>
     <use xlink:href="#DejaVuSans-2d" x="875.146484"/>
     <use xlink:href="#DejaVuSans-20" x="911.230469"/>
     <use xlink:href="#DejaVuSans-54" x="943.017578"/>
     <use xlink:href="#DejaVuSans-4e" x="1004.101562"/>
     <use xlink:href="#DejaVuSans-20" x="1078.90625"/>
     <use xlink:href="#DejaVuSans-26" x="1110.693359"/>
     <use xlink:href="#DejaVuSans-20" x="1188.671875"/>
     <use xlink:href="#DejaVuSans-53" x="1220.458984"/>
     <use xlink:href="#DejaVuSans-70" x="1283.935547"/>
     <use xlink:href="#DejaVuSans-61" x="1347.412109"/>
     <use xlink:href="#DejaVuSans-72" x="1408.691406"/>
     <use xlink:href="#DejaVuSans-73" x="1449.804688"/>
     <use xlink:href="#DejaVuSans-65" x="1501.904297"/>
    </g>
   </g>
   <g id="legend_1">
    <g id="patch_7">
     <path d="M 353.351562 311.6 
L 414.2 311.6 
Q 416.2 311.6 416.2 309.6 
L 416.2 207.853125 
Q 416.2 205.853125 414.2 205.853125 
L 353.351562 205.853125 
Q 351.351562 205.853125 351.351562 207.853125 
L 351.351562 309.6 
Q 351.351562 311.6 353.351562 311.6 
z
" style="fill: #f8f8f8; opacity: 0.8; stroke: #cccccc; stroke-linejoin: miter"/>
    </g>
    <g id="text_14">
     <!-- MPN = 0.1 -->
     <g transform="translate(357.386719 217.451563) scale(0.1 -0.1)">
      <defs>
       <path id="DejaVuSans-50" d="M 1259 4147 
L 1259 2394 
L 2053 2394 
Q 2494 2394 2734 2622 
Q 2975 2850 2975 3272 
Q 2975 3691 2734 3919 
Q 2494 4147 2053 4147 
L 1259 4147 
z
M 628 4666 
L 2053 4666 
Q 2838 4666 3239 4311 
Q 3641 3956 3641 3272 
Q 3641 2581 3239 2228 
Q 2838 1875 2053 1875 
L 1259 1875 
L 1259 0 
L 628 0 
L 628 4666 
z
" transform="scale(0.015625)"/>
       <path id="DejaVuSans-3d" d="M 678 2906 
L 4684 2906 
L 4684 2381 
L 678 2381 
L 678 2906 
z
M 678 1631 
L 4684 1631 
L 4684 1100 
L 678 1100 
L 678 1631 
z
" transform="scale(0.015625)"/>
       <path id="DejaVuSans-2e" d="M 684 794 
L 1344 794 
L 1344 0 
L 684 0 
L 684 794 
z
" transform="scale(0.015625)"/>
      </defs>
      <use xlink:href="#DejaVuSans-4d"/>
      <use xlink:href="#DejaVuSans-50" x="86.279297"/>
      <use xlink:href="#DejaVuSans-4e" x="146.582031"/>
      <use xlink:href="#DejaVuSans-20" x="221.386719"/>
      <use xlink:href="#DejaVuSans-3d" x="253.173828"/>
      <use xlink:href="#DejaVuSans-20" x="336.962891"/>
      <use xlink:href="#DejaVuSans-30" x="368.75"/>
      <use xlink:href="#DejaVuSans-2e" x="432.373047"/>
      <use xlink:href="#DejaVuSans-31" x="464.160156"/>
     </g>
    </g>
    <g id="line2d_73">
     <path d="M 355.351562 228.629688 
L 365.351562 228.629688 
L 375.351562 228.629688 
" style="fill: none; stroke: #008000; stroke-width: 1.5; stroke-linecap: square"/>
     <g>
      <use xlink:href="#m4326bf6fe8" x="365.351562" y="228.629688" style="fill: #008000; stroke: #008000"/>
     </g>
    </g>
    <g id="text_15">
     <!-- 1e-05 -->
     <g transform="translate(383.351562 232.129688) scale(0.1 -0.1)">
      <use xlink:href="#DejaVuSans-31"/>
      <use xlink:href="#DejaVuSans-65" x="63.623047"/>
      <use xlink:href="#DejaVuSans-2d" x="125.146484"/>
      <use xlink:href="#DejaVuSans-30" x="161.230469"/>
      <use xlink:href="#DejaVuSans-35" x="224.853516"/>
     </g>
    </g>
    <g id="line2d_74">
     <path d="M 355.351562 243.307813 
L 365.351562 243.307813 
L 375.351562 243.307813 
" style="fill: none; stroke: #ff0000; stroke-width: 1.5; stroke-linecap: square"/>
     <g>
      <use xlink:href="#mc9f4102043" x="365.351562" y="243.307813" style="fill: #ff0000; stroke: #ff0000"/>
     </g>
    </g>
    <g id="text_16">
     <!-- 1e-06 -->
     <g transform="translate(383.351562 246.807813) scale(0.1 -0.1)">
      <use xlink:href="#DejaVuSans-31"/>
      <use xlink:href="#DejaVuSans-65" x="63.623047"/>
      <use xlink:href="#DejaVuSans-2d" x="125.146484"/>
      <use xlink:href="#DejaVuSans-30" x="161.230469"/>
      <use xlink:href="#DejaVuSans-36" x="224.853516"/>
     </g>
    </g>
    <g id="line2d_75">
     <path d="M 355.351562 257.985938 
L 365.351562 257.985938 
L 375.351562 257.985938 
" style="fill: none; stroke: #00bfbf; stroke-width: 1.5; stroke-linecap: square"/>
     <g>
      <use xlink:href="#m60b2d8fc31" x="365.351562" y="257.985938" style="fill: #00bfbf; stroke: #00bfbf"/>
     </g>
    </g>
    <g id="text_17">
     <!-- 1e-07 -->
     <g transform="translate(383.351562 261.485938) scale(0.1 -0.1)">
      <use xlink:href="#DejaVuSans-31"/>
      <use xlink:href="#DejaVuSans-65" x="63.623047"/>
      <use xlink:href="#DejaVuSans-2d" x="125.146484"/>
      <use xlink:href="#DejaVuSans-30" x="161.230469"/>
      <use xlink:href="#DejaVuSans-37" x="224.853516"/>
     </g>
    </g>
    <g id="line2d_76">
     <path d="M 355.351562 272.664062 
L 365.351562 272.664062 
L 375.351562 272.664062 
" style="fill: none; stroke: #bf00bf; stroke-width: 1.5; stroke-linecap: square"/>
     <g>
      <use xlink:href="#m23d4ce2f23" x="365.351562" y="272.664062" style="fill: #bf00bf; stroke: #bf00bf"/>
     </g>
    </g>
    <g id="text_18">
     <!-- 1e-08 -->
     <g transform="translate(383.351562 276.164062) scale(0.1 -0.1)">
      <use xlink:href="#DejaVuSans-31"/>
      <use xlink:href="#DejaVuSans-65" x="63.623047"/>
      <use xlink:href="#DejaVuSans-2d" x="125.146484"/>
      <use xlink:href="#DejaVuSans-30" x="161.230469"/>
      <use xlink:href="#DejaVuSans-38" x="224.853516"/>
     </g>
    </g>
    <g id="line2d_77">
     <path d="M 355.351562 287.342188 
L 365.351562 287.342188 
L 375.351562 287.342188 
" style="fill: none; stroke: #bfbf00; stroke-width: 1.5; stroke-linecap: square"/>
     <g>
      <use xlink:href="#mec5e506d81" x="365.351562" y="287.342188" style="fill: #bfbf00; stroke: #bfbf00"/>
     </g>
    </g>
    <g id="text_19">
     <!-- 1e-09 -->
     <g transform="translate(383.351562 290.842188) scale(0.1 -0.1)">
      <use xlink:href="#DejaVuSans-31"/>
      <use xlink:href="#DejaVuSans-65" x="63.623047"/>
      <use xlink:href="#DejaVuSans-2d" x="125.146484"/>
      <use xlink:href="#DejaVuSans-30" x="161.230469"/>
      <use xlink:href="#DejaVuSans-39" x="224.853516"/>
     </g>
    </g>
    <g id="line2d_78">
     <path d="M 355.351562 302.020313 
L 365.351562 302.020313 
L 375.351562 302.020313 
" style="fill: none; stroke: #000000; stroke-width: 1.5; stroke-linecap: square"/>
     <g>
      <use xlink:href="#m65735e7ea5" x="365.351562" y="302.020313" style="stroke: #000000"/>
     </g>
    </g>
    <g id="text_20">
     <!-- 1e-10 -->
     <g transform="translate(383.351562 305.520313) scale(0.1 -0.1)">
      <use xlink:href="#DejaVuSans-31"/>
      <use xlink:href="#DejaVuSans-65" x="63.623047"/>
      <use xlink:href="#DejaVuSans-2d" x="125.146484"/>
      <use xlink:href="#DejaVuSans-31" x="161.230469"/>
      <use xlink:href="#DejaVuSans-30" x="224.853516"/>
     </g>
    </g>
   </g>
   <g id="legend_2">
    <g id="patch_8">
     <path d="M 58.815021 152.305 
L 125.113459 152.305 
Q 127.113459 152.305 127.113459 150.305 
L 127.113459 33.88 
Q 127.113459 31.88 125.113459 31.88 
L 58.815021 31.88 
Q 56.815021 31.88 56.815021 33.88 
L 56.815021 150.305 
Q 56.815021 152.305 58.815021 152.305 
z
" style="fill: #f8f8f8; opacity: 0.8; stroke: #cccccc; stroke-linejoin: miter"/>
    </g>
    <g id="text_21">
     <!-- MPN = 0.5 -->
     <g transform="translate(65.575177 43.478437) scale(0.1 -0.1)">
      <use xlink:href="#DejaVuSans-4d"/>
      <use xlink:href="#DejaVuSans-50" x="86.279297"/>
      <use xlink:href="#DejaVuSans-4e" x="146.582031"/>
      <use xlink:href="#DejaVuSans-20" x="221.386719"/>
      <use xlink:href="#DejaVuSans-3d" x="253.173828"/>
      <use xlink:href="#DejaVuSans-20" x="336.962891"/>
      <use xlink:href="#DejaVuSans-30" x="368.75"/>
      <use xlink:href="#DejaVuSans-2e" x="432.373047"/>
      <use xlink:href="#DejaVuSans-35" x="464.160156"/>
     </g>
    </g>
    <g id="line2d_79">
     <path d="M 60.815021 54.656563 
L 70.815021 54.656563 
L 80.815021 54.656563 
" style="fill: none; stroke-dasharray: 5.55,2.4; stroke-dashoffset: 0; stroke: #008000; stroke-width: 1.5"/>
     <g>
      <use xlink:href="#m8a574d0740" x="70.815021" y="54.656563" style="fill: #008000; stroke: #008000"/>
     </g>
    </g>
    <g id="text_22">
     <!-- 1e-05 -->
     <g transform="translate(88.815021 58.156563) scale(0.1 -0.1)">
      <use xlink:href="#DejaVuSans-31"/>
      <use xlink:href="#DejaVuSans-65" x="63.623047"/>
      <use xlink:href="#DejaVuSans-2d" x="125.146484"/>
      <use xlink:href="#DejaVuSans-30" x="161.230469"/>
      <use xlink:href="#DejaVuSans-35" x="224.853516"/>
     </g>
    </g>
    <g id="line2d_80">
     <path d="M 60.815021 69.334688 
L 70.815021 69.334688 
L 80.815021 69.334688 
" style="fill: none; stroke-dasharray: 5.55,2.4; stroke-dashoffset: 0; stroke: #ff0000; stroke-width: 1.5"/>
     <g>
      <use xlink:href="#m520702f987" x="70.815021" y="69.334688" style="fill: #ff0000; stroke: #ff0000"/>
     </g>
    </g>
    <g id="text_23">
     <!-- 1e-06 -->
     <g transform="translate(88.815021 72.834688) scale(0.1 -0.1)">
      <use xlink:href="#DejaVuSans-31"/>
      <use xlink:href="#DejaVuSans-65" x="63.623047"/>
      <use xlink:href="#DejaVuSans-2d" x="125.146484"/>
      <use xlink:href="#DejaVuSans-30" x="161.230469"/>
      <use xlink:href="#DejaVuSans-36" x="224.853516"/>
     </g>
    </g>
    <g id="line2d_81">
     <path d="M 60.815021 84.012812 
L 70.815021 84.012812 
L 80.815021 84.012812 
" style="fill: none; stroke-dasharray: 5.55,2.4; stroke-dashoffset: 0; stroke: #00bfbf; stroke-width: 1.5"/>
     <g>
      <use xlink:href="#m76fcab6a79" x="70.815021" y="84.012812" style="fill: #00bfbf; stroke: #00bfbf"/>
     </g>
    </g>
    <g id="text_24">
     <!-- 1e-07 -->
     <g transform="translate(88.815021 87.512812) scale(0.1 -0.1)">
      <use xlink:href="#DejaVuSans-31"/>
      <use xlink:href="#DejaVuSans-65" x="63.623047"/>
      <use xlink:href="#DejaVuSans-2d" x="125.146484"/>
      <use xlink:href="#DejaVuSans-30" x="161.230469"/>
      <use xlink:href="#DejaVuSans-37" x="224.853516"/>
     </g>
    </g>
    <g id="line2d_82">
     <path d="M 60.815021 98.690938 
L 70.815021 98.690938 
L 80.815021 98.690938 
" style="fill: none; stroke-dasharray: 5.55,2.4; stroke-dashoffset: 0; stroke: #bf00bf; stroke-width: 1.5"/>
     <g>
      <use xlink:href="#m48fd489deb" x="70.815021" y="98.690938" style="fill: #bf00bf; stroke: #bf00bf"/>
     </g>
    </g>
    <g id="text_25">
     <!-- 1e-08 -->
     <g transform="translate(88.815021 102.190938) scale(0.1 -0.1)">
      <use xlink:href="#DejaVuSans-31"/>
      <use xlink:href="#DejaVuSans-65" x="63.623047"/>
      <use xlink:href="#DejaVuSans-2d" x="125.146484"/>
      <use xlink:href="#DejaVuSans-30" x="161.230469"/>
      <use xlink:href="#DejaVuSans-38" x="224.853516"/>
     </g>
    </g>
    <g id="line2d_83">
     <path d="M 60.815021 113.369063 
L 70.815021 113.369063 
L 80.815021 113.369063 
" style="fill: none; stroke-dasharray: 5.55,2.4; stroke-dashoffset: 0; stroke: #bfbf00; stroke-width: 1.5"/>
     <g>
      <use xlink:href="#m412c5ff979" x="70.815021" y="113.369063" style="fill: #bfbf00; stroke: #bfbf00"/>
     </g>
    </g>
    <g id="text_26">
     <!-- 1e-09 -->
     <g transform="translate(88.815021 116.869063) scale(0.1 -0.1)">
      <use xlink:href="#DejaVuSans-31"/>
      <use xlink:href="#DejaVuSans-65" x="63.623047"/>
      <use xlink:href="#DejaVuSans-2d" x="125.146484"/>
      <use xlink:href="#DejaVuSans-30" x="161.230469"/>
      <use xlink:href="#DejaVuSans-39" x="224.853516"/>
     </g>
    </g>
    <g id="line2d_84">
     <path d="M 60.815021 128.047188 
L 70.815021 128.047188 
L 80.815021 128.047188 
" style="fill: none; stroke-dasharray: 5.55,2.4; stroke-dashoffset: 0; stroke: #000000; stroke-width: 1.5"/>
     <g>
      <use xlink:href="#m171437d2ea" x="70.815021" y="128.047188" style="stroke: #000000"/>
     </g>
    </g>
    <g id="text_27">
     <!-- 1e-10 -->
     <g transform="translate(88.815021 131.547188) scale(0.1 -0.1)">
      <use xlink:href="#DejaVuSans-31"/>
      <use xlink:href="#DejaVuSans-65" x="63.623047"/>
      <use xlink:href="#DejaVuSans-2d" x="125.146484"/>
      <use xlink:href="#DejaVuSans-31" x="161.230469"/>
      <use xlink:href="#DejaVuSans-30" x="224.853516"/>
     </g>
    </g>
    <g id="line2d_85">
     <path d="M 60.815021 142.725313 
L 70.815021 142.725313 
L 80.815021 142.725313 
" style="fill: none; stroke: #bf00bf; stroke-width: 3; stroke-linecap: square"/>
     <g>
      <use xlink:href="#m22c5a7db4e" x="70.815021" y="142.725313" style="fill: #bf00bf; stroke: #bf00bf"/>
     </g>
    </g>
    <g id="text_28">
     <!-- Sparse -->
     <g transform="translate(88.815021 146.225313) scale(0.1 -0.1)">
      <use xlink:href="#DejaVuSans-53"/>
      <use xlink:href="#DejaVuSans-70" x="63.476562"/>
      <use xlink:href="#DejaVuSans-61" x="126.953125"/>
      <use xlink:href="#DejaVuSans-72" x="188.232422"/>
      <use xlink:href="#DejaVuSans-73" x="229.345703"/>
      <use xlink:href="#DejaVuSans-65" x="281.445312"/>
     </g>
    </g>
   </g>
  </g>
 </g>
 <defs>
  <clipPath id="pe5142c5f0f">
   <rect x="51.815021" y="26.88" width="369.384979" height="289.72"/>
  </clipPath>
 </defs>
</svg>
